%TF.GenerationSoftware,KiCad,Pcbnew,9.0.0*%
%TF.CreationDate,2025-03-28T13:41:41+02:00*%
%TF.ProjectId,Project Design,50726f6a-6563-4742-9044-657369676e2e,rev?*%
%TF.SameCoordinates,Original*%
%TF.FileFunction,Legend,Top*%
%TF.FilePolarity,Positive*%
%FSLAX46Y46*%
G04 Gerber Fmt 4.6, Leading zero omitted, Abs format (unit mm)*
G04 Created by KiCad (PCBNEW 9.0.0) date 2025-03-28 13:41:41*
%MOMM*%
%LPD*%
G01*
G04 APERTURE LIST*
G04 Aperture macros list*
%AMRoundRect*
0 Rectangle with rounded corners*
0 $1 Rounding radius*
0 $2 $3 $4 $5 $6 $7 $8 $9 X,Y pos of 4 corners*
0 Add a 4 corners polygon primitive as box body*
4,1,4,$2,$3,$4,$5,$6,$7,$8,$9,$2,$3,0*
0 Add four circle primitives for the rounded corners*
1,1,$1+$1,$2,$3*
1,1,$1+$1,$4,$5*
1,1,$1+$1,$6,$7*
1,1,$1+$1,$8,$9*
0 Add four rect primitives between the rounded corners*
20,1,$1+$1,$2,$3,$4,$5,0*
20,1,$1+$1,$4,$5,$6,$7,0*
20,1,$1+$1,$6,$7,$8,$9,0*
20,1,$1+$1,$8,$9,$2,$3,0*%
G04 Aperture macros list end*
%ADD10C,0.125000*%
%ADD11C,0.150000*%
%ADD12C,0.120000*%
%ADD13C,0.254000*%
%ADD14C,0.152400*%
%ADD15RoundRect,0.125000X-0.537500X-0.125000X0.537500X-0.125000X0.537500X0.125000X-0.537500X0.125000X0*%
%ADD16O,2.101600X1.201600*%
%ADD17RoundRect,0.050800X-0.600000X0.350000X-0.600000X-0.350000X0.600000X-0.350000X0.600000X0.350000X0*%
%ADD18RoundRect,0.050800X-0.600000X0.400000X-0.600000X-0.400000X0.600000X-0.400000X0.600000X0.400000X0*%
%ADD19RoundRect,0.050800X-0.600000X0.450000X-0.600000X-0.450000X0.600000X-0.450000X0.600000X0.450000X0*%
%ADD20RoundRect,0.250000X-0.325000X-0.650000X0.325000X-0.650000X0.325000X0.650000X-0.325000X0.650000X0*%
%ADD21RoundRect,0.200000X-0.200000X-0.275000X0.200000X-0.275000X0.200000X0.275000X-0.200000X0.275000X0*%
%ADD22RoundRect,0.250000X0.325000X0.650000X-0.325000X0.650000X-0.325000X-0.650000X0.325000X-0.650000X0*%
%ADD23C,1.600000*%
%ADD24R,1.500000X1.500000*%
%ADD25RoundRect,0.135000X-0.135000X-0.185000X0.135000X-0.185000X0.135000X0.185000X-0.135000X0.185000X0*%
%ADD26RoundRect,0.050800X0.500000X0.800000X-0.500000X0.800000X-0.500000X-0.800000X0.500000X-0.800000X0*%
%ADD27RoundRect,0.050800X0.250000X-0.175000X0.250000X0.175000X-0.250000X0.175000X-0.250000X-0.175000X0*%
%ADD28R,1.000000X1.000000*%
%ADD29O,1.750000X1.200000*%
%ADD30RoundRect,0.250000X0.625000X-0.350000X0.625000X0.350000X-0.625000X0.350000X-0.625000X-0.350000X0*%
%ADD31RoundRect,0.150000X-0.512500X-0.150000X0.512500X-0.150000X0.512500X0.150000X-0.512500X0.150000X0*%
%ADD32RoundRect,0.051000X-0.550000X-0.300000X0.550000X-0.300000X0.550000X0.300000X-0.550000X0.300000X0*%
%ADD33R,2.460000X2.310000*%
%ADD34RoundRect,0.100000X-0.687500X-0.100000X0.687500X-0.100000X0.687500X0.100000X-0.687500X0.100000X0*%
%ADD35RoundRect,0.250000X-0.312500X-0.625000X0.312500X-0.625000X0.312500X0.625000X-0.312500X0.625000X0*%
%ADD36RoundRect,0.200000X0.200000X0.275000X-0.200000X0.275000X-0.200000X-0.275000X0.200000X-0.275000X0*%
%ADD37RoundRect,0.200000X-0.275000X0.200000X-0.275000X-0.200000X0.275000X-0.200000X0.275000X0.200000X0*%
%ADD38RoundRect,0.050800X-0.625000X-0.350000X0.625000X-0.350000X0.625000X0.350000X-0.625000X0.350000X0*%
%ADD39R,1.500000X2.400000*%
%ADD40R,1.700000X1.700000*%
%ADD41O,1.700000X1.700000*%
G04 APERTURE END LIST*
D10*
X187320331Y-90151231D02*
X187320331Y-89151231D01*
X187891759Y-90151231D02*
X187463188Y-89579802D01*
X187891759Y-89151231D02*
X187320331Y-89722659D01*
X188748902Y-90151231D02*
X188748902Y-89627421D01*
X188748902Y-89627421D02*
X188701283Y-89532183D01*
X188701283Y-89532183D02*
X188606045Y-89484564D01*
X188606045Y-89484564D02*
X188415569Y-89484564D01*
X188415569Y-89484564D02*
X188320331Y-89532183D01*
X188748902Y-90103612D02*
X188653664Y-90151231D01*
X188653664Y-90151231D02*
X188415569Y-90151231D01*
X188415569Y-90151231D02*
X188320331Y-90103612D01*
X188320331Y-90103612D02*
X188272712Y-90008373D01*
X188272712Y-90008373D02*
X188272712Y-89913135D01*
X188272712Y-89913135D02*
X188320331Y-89817897D01*
X188320331Y-89817897D02*
X188415569Y-89770278D01*
X188415569Y-89770278D02*
X188653664Y-89770278D01*
X188653664Y-89770278D02*
X188748902Y-89722659D01*
X189225093Y-90151231D02*
X189225093Y-89484564D01*
X189225093Y-89675040D02*
X189272712Y-89579802D01*
X189272712Y-89579802D02*
X189320331Y-89532183D01*
X189320331Y-89532183D02*
X189415569Y-89484564D01*
X189415569Y-89484564D02*
X189510807Y-89484564D01*
X190272712Y-90151231D02*
X190272712Y-89627421D01*
X190272712Y-89627421D02*
X190225093Y-89532183D01*
X190225093Y-89532183D02*
X190129855Y-89484564D01*
X190129855Y-89484564D02*
X189939379Y-89484564D01*
X189939379Y-89484564D02*
X189844141Y-89532183D01*
X190272712Y-90103612D02*
X190177474Y-90151231D01*
X190177474Y-90151231D02*
X189939379Y-90151231D01*
X189939379Y-90151231D02*
X189844141Y-90103612D01*
X189844141Y-90103612D02*
X189796522Y-90008373D01*
X189796522Y-90008373D02*
X189796522Y-89913135D01*
X189796522Y-89913135D02*
X189844141Y-89817897D01*
X189844141Y-89817897D02*
X189939379Y-89770278D01*
X189939379Y-89770278D02*
X190177474Y-89770278D01*
X190177474Y-89770278D02*
X190272712Y-89722659D01*
X190748903Y-90151231D02*
X190748903Y-89151231D01*
X190748903Y-89532183D02*
X190844141Y-89484564D01*
X190844141Y-89484564D02*
X191034617Y-89484564D01*
X191034617Y-89484564D02*
X191129855Y-89532183D01*
X191129855Y-89532183D02*
X191177474Y-89579802D01*
X191177474Y-89579802D02*
X191225093Y-89675040D01*
X191225093Y-89675040D02*
X191225093Y-89960754D01*
X191225093Y-89960754D02*
X191177474Y-90055992D01*
X191177474Y-90055992D02*
X191129855Y-90103612D01*
X191129855Y-90103612D02*
X191034617Y-90151231D01*
X191034617Y-90151231D02*
X190844141Y-90151231D01*
X190844141Y-90151231D02*
X190748903Y-90103612D01*
X191796522Y-90151231D02*
X191701284Y-90103612D01*
X191701284Y-90103612D02*
X191653665Y-90055992D01*
X191653665Y-90055992D02*
X191606046Y-89960754D01*
X191606046Y-89960754D02*
X191606046Y-89675040D01*
X191606046Y-89675040D02*
X191653665Y-89579802D01*
X191653665Y-89579802D02*
X191701284Y-89532183D01*
X191701284Y-89532183D02*
X191796522Y-89484564D01*
X191796522Y-89484564D02*
X191939379Y-89484564D01*
X191939379Y-89484564D02*
X192034617Y-89532183D01*
X192034617Y-89532183D02*
X192082236Y-89579802D01*
X192082236Y-89579802D02*
X192129855Y-89675040D01*
X192129855Y-89675040D02*
X192129855Y-89960754D01*
X192129855Y-89960754D02*
X192082236Y-90055992D01*
X192082236Y-90055992D02*
X192034617Y-90103612D01*
X192034617Y-90103612D02*
X191939379Y-90151231D01*
X191939379Y-90151231D02*
X191796522Y-90151231D01*
X193320332Y-90151231D02*
X193320332Y-89151231D01*
X193320332Y-89151231D02*
X193653665Y-89865516D01*
X193653665Y-89865516D02*
X193986998Y-89151231D01*
X193986998Y-89151231D02*
X193986998Y-90151231D01*
X194891760Y-90151231D02*
X194891760Y-89627421D01*
X194891760Y-89627421D02*
X194844141Y-89532183D01*
X194844141Y-89532183D02*
X194748903Y-89484564D01*
X194748903Y-89484564D02*
X194558427Y-89484564D01*
X194558427Y-89484564D02*
X194463189Y-89532183D01*
X194891760Y-90103612D02*
X194796522Y-90151231D01*
X194796522Y-90151231D02*
X194558427Y-90151231D01*
X194558427Y-90151231D02*
X194463189Y-90103612D01*
X194463189Y-90103612D02*
X194415570Y-90008373D01*
X194415570Y-90008373D02*
X194415570Y-89913135D01*
X194415570Y-89913135D02*
X194463189Y-89817897D01*
X194463189Y-89817897D02*
X194558427Y-89770278D01*
X194558427Y-89770278D02*
X194796522Y-89770278D01*
X194796522Y-89770278D02*
X194891760Y-89722659D01*
X195367951Y-90151231D02*
X195367951Y-89151231D01*
X195463189Y-89770278D02*
X195748903Y-90151231D01*
X195748903Y-89484564D02*
X195367951Y-89865516D01*
X196606046Y-89484564D02*
X196606046Y-90294088D01*
X196606046Y-90294088D02*
X196558427Y-90389326D01*
X196558427Y-90389326D02*
X196510808Y-90436945D01*
X196510808Y-90436945D02*
X196415570Y-90484564D01*
X196415570Y-90484564D02*
X196272713Y-90484564D01*
X196272713Y-90484564D02*
X196177475Y-90436945D01*
X196606046Y-90103612D02*
X196510808Y-90151231D01*
X196510808Y-90151231D02*
X196320332Y-90151231D01*
X196320332Y-90151231D02*
X196225094Y-90103612D01*
X196225094Y-90103612D02*
X196177475Y-90055992D01*
X196177475Y-90055992D02*
X196129856Y-89960754D01*
X196129856Y-89960754D02*
X196129856Y-89675040D01*
X196129856Y-89675040D02*
X196177475Y-89579802D01*
X196177475Y-89579802D02*
X196225094Y-89532183D01*
X196225094Y-89532183D02*
X196320332Y-89484564D01*
X196320332Y-89484564D02*
X196510808Y-89484564D01*
X196510808Y-89484564D02*
X196606046Y-89532183D01*
X197225094Y-90151231D02*
X197129856Y-90103612D01*
X197129856Y-90103612D02*
X197082237Y-90055992D01*
X197082237Y-90055992D02*
X197034618Y-89960754D01*
X197034618Y-89960754D02*
X197034618Y-89675040D01*
X197034618Y-89675040D02*
X197082237Y-89579802D01*
X197082237Y-89579802D02*
X197129856Y-89532183D01*
X197129856Y-89532183D02*
X197225094Y-89484564D01*
X197225094Y-89484564D02*
X197367951Y-89484564D01*
X197367951Y-89484564D02*
X197463189Y-89532183D01*
X197463189Y-89532183D02*
X197510808Y-89579802D01*
X197510808Y-89579802D02*
X197558427Y-89675040D01*
X197558427Y-89675040D02*
X197558427Y-89960754D01*
X197558427Y-89960754D02*
X197510808Y-90055992D01*
X197510808Y-90055992D02*
X197463189Y-90103612D01*
X197463189Y-90103612D02*
X197367951Y-90151231D01*
X197367951Y-90151231D02*
X197225094Y-90151231D01*
X197986999Y-90151231D02*
X197986999Y-89151231D01*
X197986999Y-89532183D02*
X198082237Y-89484564D01*
X198082237Y-89484564D02*
X198272713Y-89484564D01*
X198272713Y-89484564D02*
X198367951Y-89532183D01*
X198367951Y-89532183D02*
X198415570Y-89579802D01*
X198415570Y-89579802D02*
X198463189Y-89675040D01*
X198463189Y-89675040D02*
X198463189Y-89960754D01*
X198463189Y-89960754D02*
X198415570Y-90055992D01*
X198415570Y-90055992D02*
X198367951Y-90103612D01*
X198367951Y-90103612D02*
X198272713Y-90151231D01*
X198272713Y-90151231D02*
X198082237Y-90151231D01*
X198082237Y-90151231D02*
X197986999Y-90103612D01*
X199320332Y-90151231D02*
X199320332Y-89627421D01*
X199320332Y-89627421D02*
X199272713Y-89532183D01*
X199272713Y-89532183D02*
X199177475Y-89484564D01*
X199177475Y-89484564D02*
X198986999Y-89484564D01*
X198986999Y-89484564D02*
X198891761Y-89532183D01*
X199320332Y-90103612D02*
X199225094Y-90151231D01*
X199225094Y-90151231D02*
X198986999Y-90151231D01*
X198986999Y-90151231D02*
X198891761Y-90103612D01*
X198891761Y-90103612D02*
X198844142Y-90008373D01*
X198844142Y-90008373D02*
X198844142Y-89913135D01*
X198844142Y-89913135D02*
X198891761Y-89817897D01*
X198891761Y-89817897D02*
X198986999Y-89770278D01*
X198986999Y-89770278D02*
X199225094Y-89770278D01*
X199225094Y-89770278D02*
X199320332Y-89722659D01*
X187320331Y-91761175D02*
X187320331Y-90761175D01*
X187891759Y-91761175D02*
X187463188Y-91189746D01*
X187891759Y-90761175D02*
X187320331Y-91332603D01*
X188748902Y-91094508D02*
X188748902Y-91761175D01*
X188320331Y-91094508D02*
X188320331Y-91618317D01*
X188320331Y-91618317D02*
X188367950Y-91713556D01*
X188367950Y-91713556D02*
X188463188Y-91761175D01*
X188463188Y-91761175D02*
X188606045Y-91761175D01*
X188606045Y-91761175D02*
X188701283Y-91713556D01*
X188701283Y-91713556D02*
X188748902Y-91665936D01*
X189082236Y-91094508D02*
X189463188Y-91094508D01*
X189225093Y-90761175D02*
X189225093Y-91618317D01*
X189225093Y-91618317D02*
X189272712Y-91713556D01*
X189272712Y-91713556D02*
X189367950Y-91761175D01*
X189367950Y-91761175D02*
X189463188Y-91761175D01*
X189939379Y-91761175D02*
X189844141Y-91713556D01*
X189844141Y-91713556D02*
X189796522Y-91618317D01*
X189796522Y-91618317D02*
X189796522Y-90761175D01*
X190225094Y-91094508D02*
X190415570Y-91761175D01*
X190415570Y-91761175D02*
X190606046Y-91284984D01*
X190606046Y-91284984D02*
X190796522Y-91761175D01*
X190796522Y-91761175D02*
X190986998Y-91094508D01*
X191796522Y-91761175D02*
X191796522Y-91237365D01*
X191796522Y-91237365D02*
X191748903Y-91142127D01*
X191748903Y-91142127D02*
X191653665Y-91094508D01*
X191653665Y-91094508D02*
X191463189Y-91094508D01*
X191463189Y-91094508D02*
X191367951Y-91142127D01*
X191796522Y-91713556D02*
X191701284Y-91761175D01*
X191701284Y-91761175D02*
X191463189Y-91761175D01*
X191463189Y-91761175D02*
X191367951Y-91713556D01*
X191367951Y-91713556D02*
X191320332Y-91618317D01*
X191320332Y-91618317D02*
X191320332Y-91523079D01*
X191320332Y-91523079D02*
X191367951Y-91427841D01*
X191367951Y-91427841D02*
X191463189Y-91380222D01*
X191463189Y-91380222D02*
X191701284Y-91380222D01*
X191701284Y-91380222D02*
X191796522Y-91332603D01*
X192272713Y-91094508D02*
X192272713Y-91761175D01*
X192272713Y-91189746D02*
X192320332Y-91142127D01*
X192320332Y-91142127D02*
X192415570Y-91094508D01*
X192415570Y-91094508D02*
X192558427Y-91094508D01*
X192558427Y-91094508D02*
X192653665Y-91142127D01*
X192653665Y-91142127D02*
X192701284Y-91237365D01*
X192701284Y-91237365D02*
X192701284Y-91761175D01*
X193320332Y-91761175D02*
X193225094Y-91713556D01*
X193225094Y-91713556D02*
X193177475Y-91665936D01*
X193177475Y-91665936D02*
X193129856Y-91570698D01*
X193129856Y-91570698D02*
X193129856Y-91284984D01*
X193129856Y-91284984D02*
X193177475Y-91189746D01*
X193177475Y-91189746D02*
X193225094Y-91142127D01*
X193225094Y-91142127D02*
X193320332Y-91094508D01*
X193320332Y-91094508D02*
X193463189Y-91094508D01*
X193463189Y-91094508D02*
X193558427Y-91142127D01*
X193558427Y-91142127D02*
X193606046Y-91189746D01*
X193606046Y-91189746D02*
X193653665Y-91284984D01*
X193653665Y-91284984D02*
X193653665Y-91570698D01*
X193653665Y-91570698D02*
X193606046Y-91665936D01*
X193606046Y-91665936D02*
X193558427Y-91713556D01*
X193558427Y-91713556D02*
X193463189Y-91761175D01*
X193463189Y-91761175D02*
X193320332Y-91761175D01*
X194844142Y-91761175D02*
X194844142Y-90761175D01*
X194844142Y-90761175D02*
X195177475Y-91475460D01*
X195177475Y-91475460D02*
X195510808Y-90761175D01*
X195510808Y-90761175D02*
X195510808Y-91761175D01*
X196129856Y-91761175D02*
X196034618Y-91713556D01*
X196034618Y-91713556D02*
X195986999Y-91665936D01*
X195986999Y-91665936D02*
X195939380Y-91570698D01*
X195939380Y-91570698D02*
X195939380Y-91284984D01*
X195939380Y-91284984D02*
X195986999Y-91189746D01*
X195986999Y-91189746D02*
X196034618Y-91142127D01*
X196034618Y-91142127D02*
X196129856Y-91094508D01*
X196129856Y-91094508D02*
X196272713Y-91094508D01*
X196272713Y-91094508D02*
X196367951Y-91142127D01*
X196367951Y-91142127D02*
X196415570Y-91189746D01*
X196415570Y-91189746D02*
X196463189Y-91284984D01*
X196463189Y-91284984D02*
X196463189Y-91570698D01*
X196463189Y-91570698D02*
X196415570Y-91665936D01*
X196415570Y-91665936D02*
X196367951Y-91713556D01*
X196367951Y-91713556D02*
X196272713Y-91761175D01*
X196272713Y-91761175D02*
X196129856Y-91761175D01*
X196891761Y-91094508D02*
X196891761Y-91761175D01*
X196891761Y-91189746D02*
X196939380Y-91142127D01*
X196939380Y-91142127D02*
X197034618Y-91094508D01*
X197034618Y-91094508D02*
X197177475Y-91094508D01*
X197177475Y-91094508D02*
X197272713Y-91142127D01*
X197272713Y-91142127D02*
X197320332Y-91237365D01*
X197320332Y-91237365D02*
X197320332Y-91761175D01*
X197796523Y-91761175D02*
X197796523Y-90761175D01*
X197891761Y-91380222D02*
X198177475Y-91761175D01*
X198177475Y-91094508D02*
X197796523Y-91475460D01*
X198748904Y-91761175D02*
X198653666Y-91713556D01*
X198653666Y-91713556D02*
X198606047Y-91665936D01*
X198606047Y-91665936D02*
X198558428Y-91570698D01*
X198558428Y-91570698D02*
X198558428Y-91284984D01*
X198558428Y-91284984D02*
X198606047Y-91189746D01*
X198606047Y-91189746D02*
X198653666Y-91142127D01*
X198653666Y-91142127D02*
X198748904Y-91094508D01*
X198748904Y-91094508D02*
X198891761Y-91094508D01*
X198891761Y-91094508D02*
X198986999Y-91142127D01*
X198986999Y-91142127D02*
X199034618Y-91189746D01*
X199034618Y-91189746D02*
X199082237Y-91284984D01*
X199082237Y-91284984D02*
X199082237Y-91570698D01*
X199082237Y-91570698D02*
X199034618Y-91665936D01*
X199034618Y-91665936D02*
X198986999Y-91713556D01*
X198986999Y-91713556D02*
X198891761Y-91761175D01*
X198891761Y-91761175D02*
X198748904Y-91761175D01*
X199891761Y-91713556D02*
X199796523Y-91761175D01*
X199796523Y-91761175D02*
X199606047Y-91761175D01*
X199606047Y-91761175D02*
X199510809Y-91713556D01*
X199510809Y-91713556D02*
X199463190Y-91618317D01*
X199463190Y-91618317D02*
X199463190Y-91237365D01*
X199463190Y-91237365D02*
X199510809Y-91142127D01*
X199510809Y-91142127D02*
X199606047Y-91094508D01*
X199606047Y-91094508D02*
X199796523Y-91094508D01*
X199796523Y-91094508D02*
X199891761Y-91142127D01*
X199891761Y-91142127D02*
X199939380Y-91237365D01*
X199939380Y-91237365D02*
X199939380Y-91332603D01*
X199939380Y-91332603D02*
X199463190Y-91427841D01*
X187844140Y-92418738D02*
X187748902Y-92371119D01*
X187748902Y-92371119D02*
X187606045Y-92371119D01*
X187606045Y-92371119D02*
X187463188Y-92418738D01*
X187463188Y-92418738D02*
X187367950Y-92513976D01*
X187367950Y-92513976D02*
X187320331Y-92609214D01*
X187320331Y-92609214D02*
X187272712Y-92799690D01*
X187272712Y-92799690D02*
X187272712Y-92942547D01*
X187272712Y-92942547D02*
X187320331Y-93133023D01*
X187320331Y-93133023D02*
X187367950Y-93228261D01*
X187367950Y-93228261D02*
X187463188Y-93323500D01*
X187463188Y-93323500D02*
X187606045Y-93371119D01*
X187606045Y-93371119D02*
X187701283Y-93371119D01*
X187701283Y-93371119D02*
X187844140Y-93323500D01*
X187844140Y-93323500D02*
X187891759Y-93275880D01*
X187891759Y-93275880D02*
X187891759Y-92942547D01*
X187891759Y-92942547D02*
X187701283Y-92942547D01*
X188320331Y-93371119D02*
X188320331Y-92704452D01*
X188320331Y-92894928D02*
X188367950Y-92799690D01*
X188367950Y-92799690D02*
X188415569Y-92752071D01*
X188415569Y-92752071D02*
X188510807Y-92704452D01*
X188510807Y-92704452D02*
X188606045Y-92704452D01*
X189082236Y-93371119D02*
X188986998Y-93323500D01*
X188986998Y-93323500D02*
X188939379Y-93275880D01*
X188939379Y-93275880D02*
X188891760Y-93180642D01*
X188891760Y-93180642D02*
X188891760Y-92894928D01*
X188891760Y-92894928D02*
X188939379Y-92799690D01*
X188939379Y-92799690D02*
X188986998Y-92752071D01*
X188986998Y-92752071D02*
X189082236Y-92704452D01*
X189082236Y-92704452D02*
X189225093Y-92704452D01*
X189225093Y-92704452D02*
X189320331Y-92752071D01*
X189320331Y-92752071D02*
X189367950Y-92799690D01*
X189367950Y-92799690D02*
X189415569Y-92894928D01*
X189415569Y-92894928D02*
X189415569Y-93180642D01*
X189415569Y-93180642D02*
X189367950Y-93275880D01*
X189367950Y-93275880D02*
X189320331Y-93323500D01*
X189320331Y-93323500D02*
X189225093Y-93371119D01*
X189225093Y-93371119D02*
X189082236Y-93371119D01*
X190272712Y-92704452D02*
X190272712Y-93371119D01*
X189844141Y-92704452D02*
X189844141Y-93228261D01*
X189844141Y-93228261D02*
X189891760Y-93323500D01*
X189891760Y-93323500D02*
X189986998Y-93371119D01*
X189986998Y-93371119D02*
X190129855Y-93371119D01*
X190129855Y-93371119D02*
X190225093Y-93323500D01*
X190225093Y-93323500D02*
X190272712Y-93275880D01*
X190748903Y-92704452D02*
X190748903Y-93704452D01*
X190748903Y-92752071D02*
X190844141Y-92704452D01*
X190844141Y-92704452D02*
X191034617Y-92704452D01*
X191034617Y-92704452D02*
X191129855Y-92752071D01*
X191129855Y-92752071D02*
X191177474Y-92799690D01*
X191177474Y-92799690D02*
X191225093Y-92894928D01*
X191225093Y-92894928D02*
X191225093Y-93180642D01*
X191225093Y-93180642D02*
X191177474Y-93275880D01*
X191177474Y-93275880D02*
X191129855Y-93323500D01*
X191129855Y-93323500D02*
X191034617Y-93371119D01*
X191034617Y-93371119D02*
X190844141Y-93371119D01*
X190844141Y-93371119D02*
X190748903Y-93323500D01*
X192367951Y-92466357D02*
X192415570Y-92418738D01*
X192415570Y-92418738D02*
X192510808Y-92371119D01*
X192510808Y-92371119D02*
X192748903Y-92371119D01*
X192748903Y-92371119D02*
X192844141Y-92418738D01*
X192844141Y-92418738D02*
X192891760Y-92466357D01*
X192891760Y-92466357D02*
X192939379Y-92561595D01*
X192939379Y-92561595D02*
X192939379Y-92656833D01*
X192939379Y-92656833D02*
X192891760Y-92799690D01*
X192891760Y-92799690D02*
X192320332Y-93371119D01*
X192320332Y-93371119D02*
X192939379Y-93371119D01*
X193272713Y-92371119D02*
X193939379Y-92371119D01*
X193939379Y-92371119D02*
X193510808Y-93371119D01*
D11*
X182329405Y-74354819D02*
X182329405Y-75164342D01*
X182329405Y-75164342D02*
X182377024Y-75259580D01*
X182377024Y-75259580D02*
X182424643Y-75307200D01*
X182424643Y-75307200D02*
X182519881Y-75354819D01*
X182519881Y-75354819D02*
X182710357Y-75354819D01*
X182710357Y-75354819D02*
X182805595Y-75307200D01*
X182805595Y-75307200D02*
X182853214Y-75259580D01*
X182853214Y-75259580D02*
X182900833Y-75164342D01*
X182900833Y-75164342D02*
X182900833Y-74354819D01*
X183900833Y-75354819D02*
X183329405Y-75354819D01*
X183615119Y-75354819D02*
X183615119Y-74354819D01*
X183615119Y-74354819D02*
X183519881Y-74497676D01*
X183519881Y-74497676D02*
X183424643Y-74592914D01*
X183424643Y-74592914D02*
X183329405Y-74640533D01*
X184853214Y-75354819D02*
X184281786Y-75354819D01*
X184567500Y-75354819D02*
X184567500Y-74354819D01*
X184567500Y-74354819D02*
X184472262Y-74497676D01*
X184472262Y-74497676D02*
X184377024Y-74592914D01*
X184377024Y-74592914D02*
X184281786Y-74640533D01*
X140377626Y-55842381D02*
X141405721Y-55842381D01*
X141405721Y-55842381D02*
X141526673Y-55781904D01*
X141526673Y-55781904D02*
X141587150Y-55721428D01*
X141587150Y-55721428D02*
X141647626Y-55600476D01*
X141647626Y-55600476D02*
X141647626Y-55358571D01*
X141647626Y-55358571D02*
X141587150Y-55237619D01*
X141587150Y-55237619D02*
X141526673Y-55177142D01*
X141526673Y-55177142D02*
X141405721Y-55116666D01*
X141405721Y-55116666D02*
X140377626Y-55116666D01*
X141587150Y-54572381D02*
X141647626Y-54390952D01*
X141647626Y-54390952D02*
X141647626Y-54088571D01*
X141647626Y-54088571D02*
X141587150Y-53967619D01*
X141587150Y-53967619D02*
X141526673Y-53907143D01*
X141526673Y-53907143D02*
X141405721Y-53846666D01*
X141405721Y-53846666D02*
X141284769Y-53846666D01*
X141284769Y-53846666D02*
X141163816Y-53907143D01*
X141163816Y-53907143D02*
X141103340Y-53967619D01*
X141103340Y-53967619D02*
X141042864Y-54088571D01*
X141042864Y-54088571D02*
X140982388Y-54330476D01*
X140982388Y-54330476D02*
X140921911Y-54451428D01*
X140921911Y-54451428D02*
X140861435Y-54511905D01*
X140861435Y-54511905D02*
X140740483Y-54572381D01*
X140740483Y-54572381D02*
X140619530Y-54572381D01*
X140619530Y-54572381D02*
X140498578Y-54511905D01*
X140498578Y-54511905D02*
X140438102Y-54451428D01*
X140438102Y-54451428D02*
X140377626Y-54330476D01*
X140377626Y-54330476D02*
X140377626Y-54028095D01*
X140377626Y-54028095D02*
X140438102Y-53846666D01*
X140982388Y-52879047D02*
X141042864Y-52697619D01*
X141042864Y-52697619D02*
X141103340Y-52637142D01*
X141103340Y-52637142D02*
X141224292Y-52576666D01*
X141224292Y-52576666D02*
X141405721Y-52576666D01*
X141405721Y-52576666D02*
X141526673Y-52637142D01*
X141526673Y-52637142D02*
X141587150Y-52697619D01*
X141587150Y-52697619D02*
X141647626Y-52818571D01*
X141647626Y-52818571D02*
X141647626Y-53302381D01*
X141647626Y-53302381D02*
X140377626Y-53302381D01*
X140377626Y-53302381D02*
X140377626Y-52879047D01*
X140377626Y-52879047D02*
X140438102Y-52758095D01*
X140438102Y-52758095D02*
X140498578Y-52697619D01*
X140498578Y-52697619D02*
X140619530Y-52637142D01*
X140619530Y-52637142D02*
X140740483Y-52637142D01*
X140740483Y-52637142D02*
X140861435Y-52697619D01*
X140861435Y-52697619D02*
X140921911Y-52758095D01*
X140921911Y-52758095D02*
X140982388Y-52879047D01*
X140982388Y-52879047D02*
X140982388Y-53302381D01*
X141526673Y-51306666D02*
X141587150Y-51367142D01*
X141587150Y-51367142D02*
X141647626Y-51548571D01*
X141647626Y-51548571D02*
X141647626Y-51669523D01*
X141647626Y-51669523D02*
X141587150Y-51850952D01*
X141587150Y-51850952D02*
X141466197Y-51971904D01*
X141466197Y-51971904D02*
X141345245Y-52032381D01*
X141345245Y-52032381D02*
X141103340Y-52092857D01*
X141103340Y-52092857D02*
X140921911Y-52092857D01*
X140921911Y-52092857D02*
X140680007Y-52032381D01*
X140680007Y-52032381D02*
X140559054Y-51971904D01*
X140559054Y-51971904D02*
X140438102Y-51850952D01*
X140438102Y-51850952D02*
X140377626Y-51669523D01*
X140377626Y-51669523D02*
X140377626Y-51548571D01*
X140377626Y-51548571D02*
X140438102Y-51367142D01*
X140438102Y-51367142D02*
X140498578Y-51306666D01*
X141647626Y-50097142D02*
X141647626Y-50822857D01*
X141647626Y-50460000D02*
X140377626Y-50460000D01*
X140377626Y-50460000D02*
X140559054Y-50580952D01*
X140559054Y-50580952D02*
X140680007Y-50701904D01*
X140680007Y-50701904D02*
X140740483Y-50822857D01*
X156833333Y-49009580D02*
X156785714Y-49057200D01*
X156785714Y-49057200D02*
X156642857Y-49104819D01*
X156642857Y-49104819D02*
X156547619Y-49104819D01*
X156547619Y-49104819D02*
X156404762Y-49057200D01*
X156404762Y-49057200D02*
X156309524Y-48961961D01*
X156309524Y-48961961D02*
X156261905Y-48866723D01*
X156261905Y-48866723D02*
X156214286Y-48676247D01*
X156214286Y-48676247D02*
X156214286Y-48533390D01*
X156214286Y-48533390D02*
X156261905Y-48342914D01*
X156261905Y-48342914D02*
X156309524Y-48247676D01*
X156309524Y-48247676D02*
X156404762Y-48152438D01*
X156404762Y-48152438D02*
X156547619Y-48104819D01*
X156547619Y-48104819D02*
X156642857Y-48104819D01*
X156642857Y-48104819D02*
X156785714Y-48152438D01*
X156785714Y-48152438D02*
X156833333Y-48200057D01*
X157166667Y-48104819D02*
X157785714Y-48104819D01*
X157785714Y-48104819D02*
X157452381Y-48485771D01*
X157452381Y-48485771D02*
X157595238Y-48485771D01*
X157595238Y-48485771D02*
X157690476Y-48533390D01*
X157690476Y-48533390D02*
X157738095Y-48581009D01*
X157738095Y-48581009D02*
X157785714Y-48676247D01*
X157785714Y-48676247D02*
X157785714Y-48914342D01*
X157785714Y-48914342D02*
X157738095Y-49009580D01*
X157738095Y-49009580D02*
X157690476Y-49057200D01*
X157690476Y-49057200D02*
X157595238Y-49104819D01*
X157595238Y-49104819D02*
X157309524Y-49104819D01*
X157309524Y-49104819D02*
X157214286Y-49057200D01*
X157214286Y-49057200D02*
X157166667Y-49009580D01*
X141682142Y-97524819D02*
X141348809Y-97048628D01*
X141110714Y-97524819D02*
X141110714Y-96524819D01*
X141110714Y-96524819D02*
X141491666Y-96524819D01*
X141491666Y-96524819D02*
X141586904Y-96572438D01*
X141586904Y-96572438D02*
X141634523Y-96620057D01*
X141634523Y-96620057D02*
X141682142Y-96715295D01*
X141682142Y-96715295D02*
X141682142Y-96858152D01*
X141682142Y-96858152D02*
X141634523Y-96953390D01*
X141634523Y-96953390D02*
X141586904Y-97001009D01*
X141586904Y-97001009D02*
X141491666Y-97048628D01*
X141491666Y-97048628D02*
X141110714Y-97048628D01*
X142634523Y-97524819D02*
X142063095Y-97524819D01*
X142348809Y-97524819D02*
X142348809Y-96524819D01*
X142348809Y-96524819D02*
X142253571Y-96667676D01*
X142253571Y-96667676D02*
X142158333Y-96762914D01*
X142158333Y-96762914D02*
X142063095Y-96810533D01*
X143015476Y-96620057D02*
X143063095Y-96572438D01*
X143063095Y-96572438D02*
X143158333Y-96524819D01*
X143158333Y-96524819D02*
X143396428Y-96524819D01*
X143396428Y-96524819D02*
X143491666Y-96572438D01*
X143491666Y-96572438D02*
X143539285Y-96620057D01*
X143539285Y-96620057D02*
X143586904Y-96715295D01*
X143586904Y-96715295D02*
X143586904Y-96810533D01*
X143586904Y-96810533D02*
X143539285Y-96953390D01*
X143539285Y-96953390D02*
X142967857Y-97524819D01*
X142967857Y-97524819D02*
X143586904Y-97524819D01*
X169833333Y-62954819D02*
X169500000Y-62478628D01*
X169261905Y-62954819D02*
X169261905Y-61954819D01*
X169261905Y-61954819D02*
X169642857Y-61954819D01*
X169642857Y-61954819D02*
X169738095Y-62002438D01*
X169738095Y-62002438D02*
X169785714Y-62050057D01*
X169785714Y-62050057D02*
X169833333Y-62145295D01*
X169833333Y-62145295D02*
X169833333Y-62288152D01*
X169833333Y-62288152D02*
X169785714Y-62383390D01*
X169785714Y-62383390D02*
X169738095Y-62431009D01*
X169738095Y-62431009D02*
X169642857Y-62478628D01*
X169642857Y-62478628D02*
X169261905Y-62478628D01*
X170690476Y-61954819D02*
X170500000Y-61954819D01*
X170500000Y-61954819D02*
X170404762Y-62002438D01*
X170404762Y-62002438D02*
X170357143Y-62050057D01*
X170357143Y-62050057D02*
X170261905Y-62192914D01*
X170261905Y-62192914D02*
X170214286Y-62383390D01*
X170214286Y-62383390D02*
X170214286Y-62764342D01*
X170214286Y-62764342D02*
X170261905Y-62859580D01*
X170261905Y-62859580D02*
X170309524Y-62907200D01*
X170309524Y-62907200D02*
X170404762Y-62954819D01*
X170404762Y-62954819D02*
X170595238Y-62954819D01*
X170595238Y-62954819D02*
X170690476Y-62907200D01*
X170690476Y-62907200D02*
X170738095Y-62859580D01*
X170738095Y-62859580D02*
X170785714Y-62764342D01*
X170785714Y-62764342D02*
X170785714Y-62526247D01*
X170785714Y-62526247D02*
X170738095Y-62431009D01*
X170738095Y-62431009D02*
X170690476Y-62383390D01*
X170690476Y-62383390D02*
X170595238Y-62335771D01*
X170595238Y-62335771D02*
X170404762Y-62335771D01*
X170404762Y-62335771D02*
X170309524Y-62383390D01*
X170309524Y-62383390D02*
X170261905Y-62431009D01*
X170261905Y-62431009D02*
X170214286Y-62526247D01*
X147357142Y-76509580D02*
X147309523Y-76557200D01*
X147309523Y-76557200D02*
X147166666Y-76604819D01*
X147166666Y-76604819D02*
X147071428Y-76604819D01*
X147071428Y-76604819D02*
X146928571Y-76557200D01*
X146928571Y-76557200D02*
X146833333Y-76461961D01*
X146833333Y-76461961D02*
X146785714Y-76366723D01*
X146785714Y-76366723D02*
X146738095Y-76176247D01*
X146738095Y-76176247D02*
X146738095Y-76033390D01*
X146738095Y-76033390D02*
X146785714Y-75842914D01*
X146785714Y-75842914D02*
X146833333Y-75747676D01*
X146833333Y-75747676D02*
X146928571Y-75652438D01*
X146928571Y-75652438D02*
X147071428Y-75604819D01*
X147071428Y-75604819D02*
X147166666Y-75604819D01*
X147166666Y-75604819D02*
X147309523Y-75652438D01*
X147309523Y-75652438D02*
X147357142Y-75700057D01*
X148309523Y-76604819D02*
X147738095Y-76604819D01*
X148023809Y-76604819D02*
X148023809Y-75604819D01*
X148023809Y-75604819D02*
X147928571Y-75747676D01*
X147928571Y-75747676D02*
X147833333Y-75842914D01*
X147833333Y-75842914D02*
X147738095Y-75890533D01*
X148642857Y-75604819D02*
X149261904Y-75604819D01*
X149261904Y-75604819D02*
X148928571Y-75985771D01*
X148928571Y-75985771D02*
X149071428Y-75985771D01*
X149071428Y-75985771D02*
X149166666Y-76033390D01*
X149166666Y-76033390D02*
X149214285Y-76081009D01*
X149214285Y-76081009D02*
X149261904Y-76176247D01*
X149261904Y-76176247D02*
X149261904Y-76414342D01*
X149261904Y-76414342D02*
X149214285Y-76509580D01*
X149214285Y-76509580D02*
X149166666Y-76557200D01*
X149166666Y-76557200D02*
X149071428Y-76604819D01*
X149071428Y-76604819D02*
X148785714Y-76604819D01*
X148785714Y-76604819D02*
X148690476Y-76557200D01*
X148690476Y-76557200D02*
X148642857Y-76509580D01*
X150357142Y-69709580D02*
X150309523Y-69757200D01*
X150309523Y-69757200D02*
X150166666Y-69804819D01*
X150166666Y-69804819D02*
X150071428Y-69804819D01*
X150071428Y-69804819D02*
X149928571Y-69757200D01*
X149928571Y-69757200D02*
X149833333Y-69661961D01*
X149833333Y-69661961D02*
X149785714Y-69566723D01*
X149785714Y-69566723D02*
X149738095Y-69376247D01*
X149738095Y-69376247D02*
X149738095Y-69233390D01*
X149738095Y-69233390D02*
X149785714Y-69042914D01*
X149785714Y-69042914D02*
X149833333Y-68947676D01*
X149833333Y-68947676D02*
X149928571Y-68852438D01*
X149928571Y-68852438D02*
X150071428Y-68804819D01*
X150071428Y-68804819D02*
X150166666Y-68804819D01*
X150166666Y-68804819D02*
X150309523Y-68852438D01*
X150309523Y-68852438D02*
X150357142Y-68900057D01*
X150738095Y-68900057D02*
X150785714Y-68852438D01*
X150785714Y-68852438D02*
X150880952Y-68804819D01*
X150880952Y-68804819D02*
X151119047Y-68804819D01*
X151119047Y-68804819D02*
X151214285Y-68852438D01*
X151214285Y-68852438D02*
X151261904Y-68900057D01*
X151261904Y-68900057D02*
X151309523Y-68995295D01*
X151309523Y-68995295D02*
X151309523Y-69090533D01*
X151309523Y-69090533D02*
X151261904Y-69233390D01*
X151261904Y-69233390D02*
X150690476Y-69804819D01*
X150690476Y-69804819D02*
X151309523Y-69804819D01*
X152214285Y-68804819D02*
X151738095Y-68804819D01*
X151738095Y-68804819D02*
X151690476Y-69281009D01*
X151690476Y-69281009D02*
X151738095Y-69233390D01*
X151738095Y-69233390D02*
X151833333Y-69185771D01*
X151833333Y-69185771D02*
X152071428Y-69185771D01*
X152071428Y-69185771D02*
X152166666Y-69233390D01*
X152166666Y-69233390D02*
X152214285Y-69281009D01*
X152214285Y-69281009D02*
X152261904Y-69376247D01*
X152261904Y-69376247D02*
X152261904Y-69614342D01*
X152261904Y-69614342D02*
X152214285Y-69709580D01*
X152214285Y-69709580D02*
X152166666Y-69757200D01*
X152166666Y-69757200D02*
X152071428Y-69804819D01*
X152071428Y-69804819D02*
X151833333Y-69804819D01*
X151833333Y-69804819D02*
X151738095Y-69757200D01*
X151738095Y-69757200D02*
X151690476Y-69709580D01*
X196382142Y-66209580D02*
X196334523Y-66257200D01*
X196334523Y-66257200D02*
X196191666Y-66304819D01*
X196191666Y-66304819D02*
X196096428Y-66304819D01*
X196096428Y-66304819D02*
X195953571Y-66257200D01*
X195953571Y-66257200D02*
X195858333Y-66161961D01*
X195858333Y-66161961D02*
X195810714Y-66066723D01*
X195810714Y-66066723D02*
X195763095Y-65876247D01*
X195763095Y-65876247D02*
X195763095Y-65733390D01*
X195763095Y-65733390D02*
X195810714Y-65542914D01*
X195810714Y-65542914D02*
X195858333Y-65447676D01*
X195858333Y-65447676D02*
X195953571Y-65352438D01*
X195953571Y-65352438D02*
X196096428Y-65304819D01*
X196096428Y-65304819D02*
X196191666Y-65304819D01*
X196191666Y-65304819D02*
X196334523Y-65352438D01*
X196334523Y-65352438D02*
X196382142Y-65400057D01*
X196763095Y-65400057D02*
X196810714Y-65352438D01*
X196810714Y-65352438D02*
X196905952Y-65304819D01*
X196905952Y-65304819D02*
X197144047Y-65304819D01*
X197144047Y-65304819D02*
X197239285Y-65352438D01*
X197239285Y-65352438D02*
X197286904Y-65400057D01*
X197286904Y-65400057D02*
X197334523Y-65495295D01*
X197334523Y-65495295D02*
X197334523Y-65590533D01*
X197334523Y-65590533D02*
X197286904Y-65733390D01*
X197286904Y-65733390D02*
X196715476Y-66304819D01*
X196715476Y-66304819D02*
X197334523Y-66304819D01*
X197953571Y-65304819D02*
X198048809Y-65304819D01*
X198048809Y-65304819D02*
X198144047Y-65352438D01*
X198144047Y-65352438D02*
X198191666Y-65400057D01*
X198191666Y-65400057D02*
X198239285Y-65495295D01*
X198239285Y-65495295D02*
X198286904Y-65685771D01*
X198286904Y-65685771D02*
X198286904Y-65923866D01*
X198286904Y-65923866D02*
X198239285Y-66114342D01*
X198239285Y-66114342D02*
X198191666Y-66209580D01*
X198191666Y-66209580D02*
X198144047Y-66257200D01*
X198144047Y-66257200D02*
X198048809Y-66304819D01*
X198048809Y-66304819D02*
X197953571Y-66304819D01*
X197953571Y-66304819D02*
X197858333Y-66257200D01*
X197858333Y-66257200D02*
X197810714Y-66209580D01*
X197810714Y-66209580D02*
X197763095Y-66114342D01*
X197763095Y-66114342D02*
X197715476Y-65923866D01*
X197715476Y-65923866D02*
X197715476Y-65685771D01*
X197715476Y-65685771D02*
X197763095Y-65495295D01*
X197763095Y-65495295D02*
X197810714Y-65400057D01*
X197810714Y-65400057D02*
X197858333Y-65352438D01*
X197858333Y-65352438D02*
X197953571Y-65304819D01*
X206447200Y-63833332D02*
X206494819Y-63690475D01*
X206494819Y-63690475D02*
X206494819Y-63452380D01*
X206494819Y-63452380D02*
X206447200Y-63357142D01*
X206447200Y-63357142D02*
X206399580Y-63309523D01*
X206399580Y-63309523D02*
X206304342Y-63261904D01*
X206304342Y-63261904D02*
X206209104Y-63261904D01*
X206209104Y-63261904D02*
X206113866Y-63309523D01*
X206113866Y-63309523D02*
X206066247Y-63357142D01*
X206066247Y-63357142D02*
X206018628Y-63452380D01*
X206018628Y-63452380D02*
X205971009Y-63642856D01*
X205971009Y-63642856D02*
X205923390Y-63738094D01*
X205923390Y-63738094D02*
X205875771Y-63785713D01*
X205875771Y-63785713D02*
X205780533Y-63833332D01*
X205780533Y-63833332D02*
X205685295Y-63833332D01*
X205685295Y-63833332D02*
X205590057Y-63785713D01*
X205590057Y-63785713D02*
X205542438Y-63738094D01*
X205542438Y-63738094D02*
X205494819Y-63642856D01*
X205494819Y-63642856D02*
X205494819Y-63404761D01*
X205494819Y-63404761D02*
X205542438Y-63261904D01*
X205494819Y-62928570D02*
X206494819Y-62690475D01*
X206494819Y-62690475D02*
X205780533Y-62499999D01*
X205780533Y-62499999D02*
X206494819Y-62309523D01*
X206494819Y-62309523D02*
X205494819Y-62071428D01*
X205494819Y-61785713D02*
X205494819Y-61166666D01*
X205494819Y-61166666D02*
X205875771Y-61499999D01*
X205875771Y-61499999D02*
X205875771Y-61357142D01*
X205875771Y-61357142D02*
X205923390Y-61261904D01*
X205923390Y-61261904D02*
X205971009Y-61214285D01*
X205971009Y-61214285D02*
X206066247Y-61166666D01*
X206066247Y-61166666D02*
X206304342Y-61166666D01*
X206304342Y-61166666D02*
X206399580Y-61214285D01*
X206399580Y-61214285D02*
X206447200Y-61261904D01*
X206447200Y-61261904D02*
X206494819Y-61357142D01*
X206494819Y-61357142D02*
X206494819Y-61642856D01*
X206494819Y-61642856D02*
X206447200Y-61738094D01*
X206447200Y-61738094D02*
X206399580Y-61785713D01*
X128390951Y-84784819D02*
X128057618Y-84308628D01*
X127819523Y-84784819D02*
X127819523Y-83784819D01*
X127819523Y-83784819D02*
X128200475Y-83784819D01*
X128200475Y-83784819D02*
X128295713Y-83832438D01*
X128295713Y-83832438D02*
X128343332Y-83880057D01*
X128343332Y-83880057D02*
X128390951Y-83975295D01*
X128390951Y-83975295D02*
X128390951Y-84118152D01*
X128390951Y-84118152D02*
X128343332Y-84213390D01*
X128343332Y-84213390D02*
X128295713Y-84261009D01*
X128295713Y-84261009D02*
X128200475Y-84308628D01*
X128200475Y-84308628D02*
X127819523Y-84308628D01*
X128676666Y-84118152D02*
X129057618Y-84118152D01*
X128819523Y-84784819D02*
X128819523Y-83927676D01*
X128819523Y-83927676D02*
X128867142Y-83832438D01*
X128867142Y-83832438D02*
X128962380Y-83784819D01*
X128962380Y-83784819D02*
X129057618Y-83784819D01*
X129819523Y-84784819D02*
X129819523Y-84261009D01*
X129819523Y-84261009D02*
X129771904Y-84165771D01*
X129771904Y-84165771D02*
X129676666Y-84118152D01*
X129676666Y-84118152D02*
X129486190Y-84118152D01*
X129486190Y-84118152D02*
X129390952Y-84165771D01*
X129819523Y-84737200D02*
X129724285Y-84784819D01*
X129724285Y-84784819D02*
X129486190Y-84784819D01*
X129486190Y-84784819D02*
X129390952Y-84737200D01*
X129390952Y-84737200D02*
X129343333Y-84641961D01*
X129343333Y-84641961D02*
X129343333Y-84546723D01*
X129343333Y-84546723D02*
X129390952Y-84451485D01*
X129390952Y-84451485D02*
X129486190Y-84403866D01*
X129486190Y-84403866D02*
X129724285Y-84403866D01*
X129724285Y-84403866D02*
X129819523Y-84356247D01*
X130248095Y-84737200D02*
X130343333Y-84784819D01*
X130343333Y-84784819D02*
X130533809Y-84784819D01*
X130533809Y-84784819D02*
X130629047Y-84737200D01*
X130629047Y-84737200D02*
X130676666Y-84641961D01*
X130676666Y-84641961D02*
X130676666Y-84594342D01*
X130676666Y-84594342D02*
X130629047Y-84499104D01*
X130629047Y-84499104D02*
X130533809Y-84451485D01*
X130533809Y-84451485D02*
X130390952Y-84451485D01*
X130390952Y-84451485D02*
X130295714Y-84403866D01*
X130295714Y-84403866D02*
X130248095Y-84308628D01*
X130248095Y-84308628D02*
X130248095Y-84261009D01*
X130248095Y-84261009D02*
X130295714Y-84165771D01*
X130295714Y-84165771D02*
X130390952Y-84118152D01*
X130390952Y-84118152D02*
X130533809Y-84118152D01*
X130533809Y-84118152D02*
X130629047Y-84165771D01*
X130962381Y-84118152D02*
X131343333Y-84118152D01*
X131105238Y-83784819D02*
X131105238Y-84641961D01*
X131105238Y-84641961D02*
X131152857Y-84737200D01*
X131152857Y-84737200D02*
X131248095Y-84784819D01*
X131248095Y-84784819D02*
X131343333Y-84784819D01*
X132105238Y-84737200D02*
X132010000Y-84784819D01*
X132010000Y-84784819D02*
X131819524Y-84784819D01*
X131819524Y-84784819D02*
X131724286Y-84737200D01*
X131724286Y-84737200D02*
X131676667Y-84689580D01*
X131676667Y-84689580D02*
X131629048Y-84594342D01*
X131629048Y-84594342D02*
X131629048Y-84308628D01*
X131629048Y-84308628D02*
X131676667Y-84213390D01*
X131676667Y-84213390D02*
X131724286Y-84165771D01*
X131724286Y-84165771D02*
X131819524Y-84118152D01*
X131819524Y-84118152D02*
X132010000Y-84118152D01*
X132010000Y-84118152D02*
X132105238Y-84165771D01*
X132533810Y-84784819D02*
X132533810Y-83784819D01*
X132962381Y-84784819D02*
X132962381Y-84261009D01*
X132962381Y-84261009D02*
X132914762Y-84165771D01*
X132914762Y-84165771D02*
X132819524Y-84118152D01*
X132819524Y-84118152D02*
X132676667Y-84118152D01*
X132676667Y-84118152D02*
X132581429Y-84165771D01*
X132581429Y-84165771D02*
X132533810Y-84213390D01*
X133867143Y-84784819D02*
X133867143Y-84261009D01*
X133867143Y-84261009D02*
X133819524Y-84165771D01*
X133819524Y-84165771D02*
X133724286Y-84118152D01*
X133724286Y-84118152D02*
X133533810Y-84118152D01*
X133533810Y-84118152D02*
X133438572Y-84165771D01*
X133867143Y-84737200D02*
X133771905Y-84784819D01*
X133771905Y-84784819D02*
X133533810Y-84784819D01*
X133533810Y-84784819D02*
X133438572Y-84737200D01*
X133438572Y-84737200D02*
X133390953Y-84641961D01*
X133390953Y-84641961D02*
X133390953Y-84546723D01*
X133390953Y-84546723D02*
X133438572Y-84451485D01*
X133438572Y-84451485D02*
X133533810Y-84403866D01*
X133533810Y-84403866D02*
X133771905Y-84403866D01*
X133771905Y-84403866D02*
X133867143Y-84356247D01*
X134343334Y-84784819D02*
X134343334Y-84118152D01*
X134343334Y-84308628D02*
X134390953Y-84213390D01*
X134390953Y-84213390D02*
X134438572Y-84165771D01*
X134438572Y-84165771D02*
X134533810Y-84118152D01*
X134533810Y-84118152D02*
X134629048Y-84118152D01*
X135390953Y-84118152D02*
X135390953Y-84927676D01*
X135390953Y-84927676D02*
X135343334Y-85022914D01*
X135343334Y-85022914D02*
X135295715Y-85070533D01*
X135295715Y-85070533D02*
X135200477Y-85118152D01*
X135200477Y-85118152D02*
X135057620Y-85118152D01*
X135057620Y-85118152D02*
X134962382Y-85070533D01*
X135390953Y-84737200D02*
X135295715Y-84784819D01*
X135295715Y-84784819D02*
X135105239Y-84784819D01*
X135105239Y-84784819D02*
X135010001Y-84737200D01*
X135010001Y-84737200D02*
X134962382Y-84689580D01*
X134962382Y-84689580D02*
X134914763Y-84594342D01*
X134914763Y-84594342D02*
X134914763Y-84308628D01*
X134914763Y-84308628D02*
X134962382Y-84213390D01*
X134962382Y-84213390D02*
X135010001Y-84165771D01*
X135010001Y-84165771D02*
X135105239Y-84118152D01*
X135105239Y-84118152D02*
X135295715Y-84118152D01*
X135295715Y-84118152D02*
X135390953Y-84165771D01*
X136248096Y-84737200D02*
X136152858Y-84784819D01*
X136152858Y-84784819D02*
X135962382Y-84784819D01*
X135962382Y-84784819D02*
X135867144Y-84737200D01*
X135867144Y-84737200D02*
X135819525Y-84641961D01*
X135819525Y-84641961D02*
X135819525Y-84261009D01*
X135819525Y-84261009D02*
X135867144Y-84165771D01*
X135867144Y-84165771D02*
X135962382Y-84118152D01*
X135962382Y-84118152D02*
X136152858Y-84118152D01*
X136152858Y-84118152D02*
X136248096Y-84165771D01*
X136248096Y-84165771D02*
X136295715Y-84261009D01*
X136295715Y-84261009D02*
X136295715Y-84356247D01*
X136295715Y-84356247D02*
X135819525Y-84451485D01*
X137248096Y-84784819D02*
X136676668Y-84784819D01*
X136962382Y-84784819D02*
X136962382Y-83784819D01*
X136962382Y-83784819D02*
X136867144Y-83927676D01*
X136867144Y-83927676D02*
X136771906Y-84022914D01*
X136771906Y-84022914D02*
X136676668Y-84070533D01*
X140761905Y-88506819D02*
X141333333Y-88506819D01*
X141047619Y-89506819D02*
X141047619Y-88506819D01*
X141666667Y-89506819D02*
X141666667Y-88506819D01*
X141666667Y-88506819D02*
X142047619Y-88506819D01*
X142047619Y-88506819D02*
X142142857Y-88554438D01*
X142142857Y-88554438D02*
X142190476Y-88602057D01*
X142190476Y-88602057D02*
X142238095Y-88697295D01*
X142238095Y-88697295D02*
X142238095Y-88840152D01*
X142238095Y-88840152D02*
X142190476Y-88935390D01*
X142190476Y-88935390D02*
X142142857Y-88983009D01*
X142142857Y-88983009D02*
X142047619Y-89030628D01*
X142047619Y-89030628D02*
X141666667Y-89030628D01*
X142571429Y-88506819D02*
X143190476Y-88506819D01*
X143190476Y-88506819D02*
X142857143Y-88887771D01*
X142857143Y-88887771D02*
X143000000Y-88887771D01*
X143000000Y-88887771D02*
X143095238Y-88935390D01*
X143095238Y-88935390D02*
X143142857Y-88983009D01*
X143142857Y-88983009D02*
X143190476Y-89078247D01*
X143190476Y-89078247D02*
X143190476Y-89316342D01*
X143190476Y-89316342D02*
X143142857Y-89411580D01*
X143142857Y-89411580D02*
X143095238Y-89459200D01*
X143095238Y-89459200D02*
X143000000Y-89506819D01*
X143000000Y-89506819D02*
X142714286Y-89506819D01*
X142714286Y-89506819D02*
X142619048Y-89459200D01*
X142619048Y-89459200D02*
X142571429Y-89411580D01*
X143523810Y-88506819D02*
X144190476Y-88506819D01*
X144190476Y-88506819D02*
X143761905Y-89506819D01*
X196954819Y-52333333D02*
X197669104Y-52333333D01*
X197669104Y-52333333D02*
X197811961Y-52380952D01*
X197811961Y-52380952D02*
X197907200Y-52476190D01*
X197907200Y-52476190D02*
X197954819Y-52619047D01*
X197954819Y-52619047D02*
X197954819Y-52714285D01*
X196954819Y-51952380D02*
X196954819Y-51333333D01*
X196954819Y-51333333D02*
X197335771Y-51666666D01*
X197335771Y-51666666D02*
X197335771Y-51523809D01*
X197335771Y-51523809D02*
X197383390Y-51428571D01*
X197383390Y-51428571D02*
X197431009Y-51380952D01*
X197431009Y-51380952D02*
X197526247Y-51333333D01*
X197526247Y-51333333D02*
X197764342Y-51333333D01*
X197764342Y-51333333D02*
X197859580Y-51380952D01*
X197859580Y-51380952D02*
X197907200Y-51428571D01*
X197907200Y-51428571D02*
X197954819Y-51523809D01*
X197954819Y-51523809D02*
X197954819Y-51809523D01*
X197954819Y-51809523D02*
X197907200Y-51904761D01*
X197907200Y-51904761D02*
X197859580Y-51952380D01*
X188899405Y-59504819D02*
X188899405Y-60314342D01*
X188899405Y-60314342D02*
X188947024Y-60409580D01*
X188947024Y-60409580D02*
X188994643Y-60457200D01*
X188994643Y-60457200D02*
X189089881Y-60504819D01*
X189089881Y-60504819D02*
X189280357Y-60504819D01*
X189280357Y-60504819D02*
X189375595Y-60457200D01*
X189375595Y-60457200D02*
X189423214Y-60409580D01*
X189423214Y-60409580D02*
X189470833Y-60314342D01*
X189470833Y-60314342D02*
X189470833Y-59504819D01*
X190470833Y-60504819D02*
X189899405Y-60504819D01*
X190185119Y-60504819D02*
X190185119Y-59504819D01*
X190185119Y-59504819D02*
X190089881Y-59647676D01*
X190089881Y-59647676D02*
X189994643Y-59742914D01*
X189994643Y-59742914D02*
X189899405Y-59790533D01*
X190804167Y-59504819D02*
X191423214Y-59504819D01*
X191423214Y-59504819D02*
X191089881Y-59885771D01*
X191089881Y-59885771D02*
X191232738Y-59885771D01*
X191232738Y-59885771D02*
X191327976Y-59933390D01*
X191327976Y-59933390D02*
X191375595Y-59981009D01*
X191375595Y-59981009D02*
X191423214Y-60076247D01*
X191423214Y-60076247D02*
X191423214Y-60314342D01*
X191423214Y-60314342D02*
X191375595Y-60409580D01*
X191375595Y-60409580D02*
X191327976Y-60457200D01*
X191327976Y-60457200D02*
X191232738Y-60504819D01*
X191232738Y-60504819D02*
X190947024Y-60504819D01*
X190947024Y-60504819D02*
X190851786Y-60457200D01*
X190851786Y-60457200D02*
X190804167Y-60409580D01*
X148238095Y-69554819D02*
X148238095Y-70364342D01*
X148238095Y-70364342D02*
X148285714Y-70459580D01*
X148285714Y-70459580D02*
X148333333Y-70507200D01*
X148333333Y-70507200D02*
X148428571Y-70554819D01*
X148428571Y-70554819D02*
X148619047Y-70554819D01*
X148619047Y-70554819D02*
X148714285Y-70507200D01*
X148714285Y-70507200D02*
X148761904Y-70459580D01*
X148761904Y-70459580D02*
X148809523Y-70364342D01*
X148809523Y-70364342D02*
X148809523Y-69554819D01*
X149333333Y-70554819D02*
X149523809Y-70554819D01*
X149523809Y-70554819D02*
X149619047Y-70507200D01*
X149619047Y-70507200D02*
X149666666Y-70459580D01*
X149666666Y-70459580D02*
X149761904Y-70316723D01*
X149761904Y-70316723D02*
X149809523Y-70126247D01*
X149809523Y-70126247D02*
X149809523Y-69745295D01*
X149809523Y-69745295D02*
X149761904Y-69650057D01*
X149761904Y-69650057D02*
X149714285Y-69602438D01*
X149714285Y-69602438D02*
X149619047Y-69554819D01*
X149619047Y-69554819D02*
X149428571Y-69554819D01*
X149428571Y-69554819D02*
X149333333Y-69602438D01*
X149333333Y-69602438D02*
X149285714Y-69650057D01*
X149285714Y-69650057D02*
X149238095Y-69745295D01*
X149238095Y-69745295D02*
X149238095Y-69983390D01*
X149238095Y-69983390D02*
X149285714Y-70078628D01*
X149285714Y-70078628D02*
X149333333Y-70126247D01*
X149333333Y-70126247D02*
X149428571Y-70173866D01*
X149428571Y-70173866D02*
X149619047Y-70173866D01*
X149619047Y-70173866D02*
X149714285Y-70126247D01*
X149714285Y-70126247D02*
X149761904Y-70078628D01*
X149761904Y-70078628D02*
X149809523Y-69983390D01*
X181100595Y-59554819D02*
X181100595Y-60364342D01*
X181100595Y-60364342D02*
X181148214Y-60459580D01*
X181148214Y-60459580D02*
X181195833Y-60507200D01*
X181195833Y-60507200D02*
X181291071Y-60554819D01*
X181291071Y-60554819D02*
X181481547Y-60554819D01*
X181481547Y-60554819D02*
X181576785Y-60507200D01*
X181576785Y-60507200D02*
X181624404Y-60459580D01*
X181624404Y-60459580D02*
X181672023Y-60364342D01*
X181672023Y-60364342D02*
X181672023Y-59554819D01*
X182291071Y-59983390D02*
X182195833Y-59935771D01*
X182195833Y-59935771D02*
X182148214Y-59888152D01*
X182148214Y-59888152D02*
X182100595Y-59792914D01*
X182100595Y-59792914D02*
X182100595Y-59745295D01*
X182100595Y-59745295D02*
X182148214Y-59650057D01*
X182148214Y-59650057D02*
X182195833Y-59602438D01*
X182195833Y-59602438D02*
X182291071Y-59554819D01*
X182291071Y-59554819D02*
X182481547Y-59554819D01*
X182481547Y-59554819D02*
X182576785Y-59602438D01*
X182576785Y-59602438D02*
X182624404Y-59650057D01*
X182624404Y-59650057D02*
X182672023Y-59745295D01*
X182672023Y-59745295D02*
X182672023Y-59792914D01*
X182672023Y-59792914D02*
X182624404Y-59888152D01*
X182624404Y-59888152D02*
X182576785Y-59935771D01*
X182576785Y-59935771D02*
X182481547Y-59983390D01*
X182481547Y-59983390D02*
X182291071Y-59983390D01*
X182291071Y-59983390D02*
X182195833Y-60031009D01*
X182195833Y-60031009D02*
X182148214Y-60078628D01*
X182148214Y-60078628D02*
X182100595Y-60173866D01*
X182100595Y-60173866D02*
X182100595Y-60364342D01*
X182100595Y-60364342D02*
X182148214Y-60459580D01*
X182148214Y-60459580D02*
X182195833Y-60507200D01*
X182195833Y-60507200D02*
X182291071Y-60554819D01*
X182291071Y-60554819D02*
X182481547Y-60554819D01*
X182481547Y-60554819D02*
X182576785Y-60507200D01*
X182576785Y-60507200D02*
X182624404Y-60459580D01*
X182624404Y-60459580D02*
X182672023Y-60364342D01*
X182672023Y-60364342D02*
X182672023Y-60173866D01*
X182672023Y-60173866D02*
X182624404Y-60078628D01*
X182624404Y-60078628D02*
X182576785Y-60031009D01*
X182576785Y-60031009D02*
X182481547Y-59983390D01*
X155532380Y-84797826D02*
X155532380Y-85825921D01*
X155532380Y-85825921D02*
X155592857Y-85946873D01*
X155592857Y-85946873D02*
X155653333Y-86007350D01*
X155653333Y-86007350D02*
X155774285Y-86067826D01*
X155774285Y-86067826D02*
X156016190Y-86067826D01*
X156016190Y-86067826D02*
X156137142Y-86007350D01*
X156137142Y-86007350D02*
X156197619Y-85946873D01*
X156197619Y-85946873D02*
X156258095Y-85825921D01*
X156258095Y-85825921D02*
X156258095Y-84797826D01*
X156741904Y-84797826D02*
X157588571Y-84797826D01*
X157588571Y-84797826D02*
X157044285Y-86067826D01*
X160882380Y-73397826D02*
X160882380Y-74425921D01*
X160882380Y-74425921D02*
X160942857Y-74546873D01*
X160942857Y-74546873D02*
X161003333Y-74607350D01*
X161003333Y-74607350D02*
X161124285Y-74667826D01*
X161124285Y-74667826D02*
X161366190Y-74667826D01*
X161366190Y-74667826D02*
X161487142Y-74607350D01*
X161487142Y-74607350D02*
X161547619Y-74546873D01*
X161547619Y-74546873D02*
X161608095Y-74425921D01*
X161608095Y-74425921D02*
X161608095Y-73397826D01*
X162817618Y-73397826D02*
X162212856Y-73397826D01*
X162212856Y-73397826D02*
X162152380Y-74002588D01*
X162152380Y-74002588D02*
X162212856Y-73942111D01*
X162212856Y-73942111D02*
X162333809Y-73881635D01*
X162333809Y-73881635D02*
X162636190Y-73881635D01*
X162636190Y-73881635D02*
X162757142Y-73942111D01*
X162757142Y-73942111D02*
X162817618Y-74002588D01*
X162817618Y-74002588D02*
X162878095Y-74123540D01*
X162878095Y-74123540D02*
X162878095Y-74425921D01*
X162878095Y-74425921D02*
X162817618Y-74546873D01*
X162817618Y-74546873D02*
X162757142Y-74607350D01*
X162757142Y-74607350D02*
X162636190Y-74667826D01*
X162636190Y-74667826D02*
X162333809Y-74667826D01*
X162333809Y-74667826D02*
X162212856Y-74607350D01*
X162212856Y-74607350D02*
X162152380Y-74546873D01*
X137032380Y-95809726D02*
X137032380Y-96837821D01*
X137032380Y-96837821D02*
X137092857Y-96958773D01*
X137092857Y-96958773D02*
X137153333Y-97019250D01*
X137153333Y-97019250D02*
X137274285Y-97079726D01*
X137274285Y-97079726D02*
X137516190Y-97079726D01*
X137516190Y-97079726D02*
X137637142Y-97019250D01*
X137637142Y-97019250D02*
X137697619Y-96958773D01*
X137697619Y-96958773D02*
X137758095Y-96837821D01*
X137758095Y-96837821D02*
X137758095Y-95809726D01*
X138241904Y-95809726D02*
X139028095Y-95809726D01*
X139028095Y-95809726D02*
X138604761Y-96293535D01*
X138604761Y-96293535D02*
X138786190Y-96293535D01*
X138786190Y-96293535D02*
X138907142Y-96354011D01*
X138907142Y-96354011D02*
X138967618Y-96414488D01*
X138967618Y-96414488D02*
X139028095Y-96535440D01*
X139028095Y-96535440D02*
X139028095Y-96837821D01*
X139028095Y-96837821D02*
X138967618Y-96958773D01*
X138967618Y-96958773D02*
X138907142Y-97019250D01*
X138907142Y-97019250D02*
X138786190Y-97079726D01*
X138786190Y-97079726D02*
X138423333Y-97079726D01*
X138423333Y-97079726D02*
X138302380Y-97019250D01*
X138302380Y-97019250D02*
X138241904Y-96958773D01*
X191988095Y-81504819D02*
X191988095Y-82314342D01*
X191988095Y-82314342D02*
X192035714Y-82409580D01*
X192035714Y-82409580D02*
X192083333Y-82457200D01*
X192083333Y-82457200D02*
X192178571Y-82504819D01*
X192178571Y-82504819D02*
X192369047Y-82504819D01*
X192369047Y-82504819D02*
X192464285Y-82457200D01*
X192464285Y-82457200D02*
X192511904Y-82409580D01*
X192511904Y-82409580D02*
X192559523Y-82314342D01*
X192559523Y-82314342D02*
X192559523Y-81504819D01*
X193559523Y-82504819D02*
X192988095Y-82504819D01*
X193273809Y-82504819D02*
X193273809Y-81504819D01*
X193273809Y-81504819D02*
X193178571Y-81647676D01*
X193178571Y-81647676D02*
X193083333Y-81742914D01*
X193083333Y-81742914D02*
X192988095Y-81790533D01*
X190761905Y-96506819D02*
X191333333Y-96506819D01*
X191047619Y-97506819D02*
X191047619Y-96506819D01*
X191666667Y-97506819D02*
X191666667Y-96506819D01*
X191666667Y-96506819D02*
X192047619Y-96506819D01*
X192047619Y-96506819D02*
X192142857Y-96554438D01*
X192142857Y-96554438D02*
X192190476Y-96602057D01*
X192190476Y-96602057D02*
X192238095Y-96697295D01*
X192238095Y-96697295D02*
X192238095Y-96840152D01*
X192238095Y-96840152D02*
X192190476Y-96935390D01*
X192190476Y-96935390D02*
X192142857Y-96983009D01*
X192142857Y-96983009D02*
X192047619Y-97030628D01*
X192047619Y-97030628D02*
X191666667Y-97030628D01*
X192571429Y-96506819D02*
X193190476Y-96506819D01*
X193190476Y-96506819D02*
X192857143Y-96887771D01*
X192857143Y-96887771D02*
X193000000Y-96887771D01*
X193000000Y-96887771D02*
X193095238Y-96935390D01*
X193095238Y-96935390D02*
X193142857Y-96983009D01*
X193142857Y-96983009D02*
X193190476Y-97078247D01*
X193190476Y-97078247D02*
X193190476Y-97316342D01*
X193190476Y-97316342D02*
X193142857Y-97411580D01*
X193142857Y-97411580D02*
X193095238Y-97459200D01*
X193095238Y-97459200D02*
X193000000Y-97506819D01*
X193000000Y-97506819D02*
X192714286Y-97506819D01*
X192714286Y-97506819D02*
X192619048Y-97459200D01*
X192619048Y-97459200D02*
X192571429Y-97411580D01*
X193809524Y-96506819D02*
X193904762Y-96506819D01*
X193904762Y-96506819D02*
X194000000Y-96554438D01*
X194000000Y-96554438D02*
X194047619Y-96602057D01*
X194047619Y-96602057D02*
X194095238Y-96697295D01*
X194095238Y-96697295D02*
X194142857Y-96887771D01*
X194142857Y-96887771D02*
X194142857Y-97125866D01*
X194142857Y-97125866D02*
X194095238Y-97316342D01*
X194095238Y-97316342D02*
X194047619Y-97411580D01*
X194047619Y-97411580D02*
X194000000Y-97459200D01*
X194000000Y-97459200D02*
X193904762Y-97506819D01*
X193904762Y-97506819D02*
X193809524Y-97506819D01*
X193809524Y-97506819D02*
X193714286Y-97459200D01*
X193714286Y-97459200D02*
X193666667Y-97411580D01*
X193666667Y-97411580D02*
X193619048Y-97316342D01*
X193619048Y-97316342D02*
X193571429Y-97125866D01*
X193571429Y-97125866D02*
X193571429Y-96887771D01*
X193571429Y-96887771D02*
X193619048Y-96697295D01*
X193619048Y-96697295D02*
X193666667Y-96602057D01*
X193666667Y-96602057D02*
X193714286Y-96554438D01*
X193714286Y-96554438D02*
X193809524Y-96506819D01*
X189357142Y-66134819D02*
X189023809Y-65658628D01*
X188785714Y-66134819D02*
X188785714Y-65134819D01*
X188785714Y-65134819D02*
X189166666Y-65134819D01*
X189166666Y-65134819D02*
X189261904Y-65182438D01*
X189261904Y-65182438D02*
X189309523Y-65230057D01*
X189309523Y-65230057D02*
X189357142Y-65325295D01*
X189357142Y-65325295D02*
X189357142Y-65468152D01*
X189357142Y-65468152D02*
X189309523Y-65563390D01*
X189309523Y-65563390D02*
X189261904Y-65611009D01*
X189261904Y-65611009D02*
X189166666Y-65658628D01*
X189166666Y-65658628D02*
X188785714Y-65658628D01*
X190309523Y-66134819D02*
X189738095Y-66134819D01*
X190023809Y-66134819D02*
X190023809Y-65134819D01*
X190023809Y-65134819D02*
X189928571Y-65277676D01*
X189928571Y-65277676D02*
X189833333Y-65372914D01*
X189833333Y-65372914D02*
X189738095Y-65420533D01*
X190785714Y-66134819D02*
X190976190Y-66134819D01*
X190976190Y-66134819D02*
X191071428Y-66087200D01*
X191071428Y-66087200D02*
X191119047Y-66039580D01*
X191119047Y-66039580D02*
X191214285Y-65896723D01*
X191214285Y-65896723D02*
X191261904Y-65706247D01*
X191261904Y-65706247D02*
X191261904Y-65325295D01*
X191261904Y-65325295D02*
X191214285Y-65230057D01*
X191214285Y-65230057D02*
X191166666Y-65182438D01*
X191166666Y-65182438D02*
X191071428Y-65134819D01*
X191071428Y-65134819D02*
X190880952Y-65134819D01*
X190880952Y-65134819D02*
X190785714Y-65182438D01*
X190785714Y-65182438D02*
X190738095Y-65230057D01*
X190738095Y-65230057D02*
X190690476Y-65325295D01*
X190690476Y-65325295D02*
X190690476Y-65563390D01*
X190690476Y-65563390D02*
X190738095Y-65658628D01*
X190738095Y-65658628D02*
X190785714Y-65706247D01*
X190785714Y-65706247D02*
X190880952Y-65753866D01*
X190880952Y-65753866D02*
X191071428Y-65753866D01*
X191071428Y-65753866D02*
X191166666Y-65706247D01*
X191166666Y-65706247D02*
X191214285Y-65658628D01*
X191214285Y-65658628D02*
X191261904Y-65563390D01*
X197357142Y-80384819D02*
X197023809Y-79908628D01*
X196785714Y-80384819D02*
X196785714Y-79384819D01*
X196785714Y-79384819D02*
X197166666Y-79384819D01*
X197166666Y-79384819D02*
X197261904Y-79432438D01*
X197261904Y-79432438D02*
X197309523Y-79480057D01*
X197309523Y-79480057D02*
X197357142Y-79575295D01*
X197357142Y-79575295D02*
X197357142Y-79718152D01*
X197357142Y-79718152D02*
X197309523Y-79813390D01*
X197309523Y-79813390D02*
X197261904Y-79861009D01*
X197261904Y-79861009D02*
X197166666Y-79908628D01*
X197166666Y-79908628D02*
X196785714Y-79908628D01*
X198309523Y-80384819D02*
X197738095Y-80384819D01*
X198023809Y-80384819D02*
X198023809Y-79384819D01*
X198023809Y-79384819D02*
X197928571Y-79527676D01*
X197928571Y-79527676D02*
X197833333Y-79622914D01*
X197833333Y-79622914D02*
X197738095Y-79670533D01*
X198880952Y-79813390D02*
X198785714Y-79765771D01*
X198785714Y-79765771D02*
X198738095Y-79718152D01*
X198738095Y-79718152D02*
X198690476Y-79622914D01*
X198690476Y-79622914D02*
X198690476Y-79575295D01*
X198690476Y-79575295D02*
X198738095Y-79480057D01*
X198738095Y-79480057D02*
X198785714Y-79432438D01*
X198785714Y-79432438D02*
X198880952Y-79384819D01*
X198880952Y-79384819D02*
X199071428Y-79384819D01*
X199071428Y-79384819D02*
X199166666Y-79432438D01*
X199166666Y-79432438D02*
X199214285Y-79480057D01*
X199214285Y-79480057D02*
X199261904Y-79575295D01*
X199261904Y-79575295D02*
X199261904Y-79622914D01*
X199261904Y-79622914D02*
X199214285Y-79718152D01*
X199214285Y-79718152D02*
X199166666Y-79765771D01*
X199166666Y-79765771D02*
X199071428Y-79813390D01*
X199071428Y-79813390D02*
X198880952Y-79813390D01*
X198880952Y-79813390D02*
X198785714Y-79861009D01*
X198785714Y-79861009D02*
X198738095Y-79908628D01*
X198738095Y-79908628D02*
X198690476Y-80003866D01*
X198690476Y-80003866D02*
X198690476Y-80194342D01*
X198690476Y-80194342D02*
X198738095Y-80289580D01*
X198738095Y-80289580D02*
X198785714Y-80337200D01*
X198785714Y-80337200D02*
X198880952Y-80384819D01*
X198880952Y-80384819D02*
X199071428Y-80384819D01*
X199071428Y-80384819D02*
X199166666Y-80337200D01*
X199166666Y-80337200D02*
X199214285Y-80289580D01*
X199214285Y-80289580D02*
X199261904Y-80194342D01*
X199261904Y-80194342D02*
X199261904Y-80003866D01*
X199261904Y-80003866D02*
X199214285Y-79908628D01*
X199214285Y-79908628D02*
X199166666Y-79861009D01*
X199166666Y-79861009D02*
X199071428Y-79813390D01*
X153357142Y-76024819D02*
X153023809Y-75548628D01*
X152785714Y-76024819D02*
X152785714Y-75024819D01*
X152785714Y-75024819D02*
X153166666Y-75024819D01*
X153166666Y-75024819D02*
X153261904Y-75072438D01*
X153261904Y-75072438D02*
X153309523Y-75120057D01*
X153309523Y-75120057D02*
X153357142Y-75215295D01*
X153357142Y-75215295D02*
X153357142Y-75358152D01*
X153357142Y-75358152D02*
X153309523Y-75453390D01*
X153309523Y-75453390D02*
X153261904Y-75501009D01*
X153261904Y-75501009D02*
X153166666Y-75548628D01*
X153166666Y-75548628D02*
X152785714Y-75548628D01*
X154309523Y-76024819D02*
X153738095Y-76024819D01*
X154023809Y-76024819D02*
X154023809Y-75024819D01*
X154023809Y-75024819D02*
X153928571Y-75167676D01*
X153928571Y-75167676D02*
X153833333Y-75262914D01*
X153833333Y-75262914D02*
X153738095Y-75310533D01*
X154642857Y-75024819D02*
X155309523Y-75024819D01*
X155309523Y-75024819D02*
X154880952Y-76024819D01*
X150384819Y-89467857D02*
X149908628Y-89801190D01*
X150384819Y-90039285D02*
X149384819Y-90039285D01*
X149384819Y-90039285D02*
X149384819Y-89658333D01*
X149384819Y-89658333D02*
X149432438Y-89563095D01*
X149432438Y-89563095D02*
X149480057Y-89515476D01*
X149480057Y-89515476D02*
X149575295Y-89467857D01*
X149575295Y-89467857D02*
X149718152Y-89467857D01*
X149718152Y-89467857D02*
X149813390Y-89515476D01*
X149813390Y-89515476D02*
X149861009Y-89563095D01*
X149861009Y-89563095D02*
X149908628Y-89658333D01*
X149908628Y-89658333D02*
X149908628Y-90039285D01*
X150384819Y-88515476D02*
X150384819Y-89086904D01*
X150384819Y-88801190D02*
X149384819Y-88801190D01*
X149384819Y-88801190D02*
X149527676Y-88896428D01*
X149527676Y-88896428D02*
X149622914Y-88991666D01*
X149622914Y-88991666D02*
X149670533Y-89086904D01*
X149384819Y-87658333D02*
X149384819Y-87848809D01*
X149384819Y-87848809D02*
X149432438Y-87944047D01*
X149432438Y-87944047D02*
X149480057Y-87991666D01*
X149480057Y-87991666D02*
X149622914Y-88086904D01*
X149622914Y-88086904D02*
X149813390Y-88134523D01*
X149813390Y-88134523D02*
X150194342Y-88134523D01*
X150194342Y-88134523D02*
X150289580Y-88086904D01*
X150289580Y-88086904D02*
X150337200Y-88039285D01*
X150337200Y-88039285D02*
X150384819Y-87944047D01*
X150384819Y-87944047D02*
X150384819Y-87753571D01*
X150384819Y-87753571D02*
X150337200Y-87658333D01*
X150337200Y-87658333D02*
X150289580Y-87610714D01*
X150289580Y-87610714D02*
X150194342Y-87563095D01*
X150194342Y-87563095D02*
X149956247Y-87563095D01*
X149956247Y-87563095D02*
X149861009Y-87610714D01*
X149861009Y-87610714D02*
X149813390Y-87658333D01*
X149813390Y-87658333D02*
X149765771Y-87753571D01*
X149765771Y-87753571D02*
X149765771Y-87944047D01*
X149765771Y-87944047D02*
X149813390Y-88039285D01*
X149813390Y-88039285D02*
X149861009Y-88086904D01*
X149861009Y-88086904D02*
X149956247Y-88134523D01*
X149357142Y-93954819D02*
X149023809Y-93478628D01*
X148785714Y-93954819D02*
X148785714Y-92954819D01*
X148785714Y-92954819D02*
X149166666Y-92954819D01*
X149166666Y-92954819D02*
X149261904Y-93002438D01*
X149261904Y-93002438D02*
X149309523Y-93050057D01*
X149309523Y-93050057D02*
X149357142Y-93145295D01*
X149357142Y-93145295D02*
X149357142Y-93288152D01*
X149357142Y-93288152D02*
X149309523Y-93383390D01*
X149309523Y-93383390D02*
X149261904Y-93431009D01*
X149261904Y-93431009D02*
X149166666Y-93478628D01*
X149166666Y-93478628D02*
X148785714Y-93478628D01*
X150309523Y-93954819D02*
X149738095Y-93954819D01*
X150023809Y-93954819D02*
X150023809Y-92954819D01*
X150023809Y-92954819D02*
X149928571Y-93097676D01*
X149928571Y-93097676D02*
X149833333Y-93192914D01*
X149833333Y-93192914D02*
X149738095Y-93240533D01*
X151166666Y-93288152D02*
X151166666Y-93954819D01*
X150928571Y-92907200D02*
X150690476Y-93621485D01*
X150690476Y-93621485D02*
X151309523Y-93621485D01*
X145384819Y-84642857D02*
X144908628Y-84976190D01*
X145384819Y-85214285D02*
X144384819Y-85214285D01*
X144384819Y-85214285D02*
X144384819Y-84833333D01*
X144384819Y-84833333D02*
X144432438Y-84738095D01*
X144432438Y-84738095D02*
X144480057Y-84690476D01*
X144480057Y-84690476D02*
X144575295Y-84642857D01*
X144575295Y-84642857D02*
X144718152Y-84642857D01*
X144718152Y-84642857D02*
X144813390Y-84690476D01*
X144813390Y-84690476D02*
X144861009Y-84738095D01*
X144861009Y-84738095D02*
X144908628Y-84833333D01*
X144908628Y-84833333D02*
X144908628Y-85214285D01*
X145384819Y-83690476D02*
X145384819Y-84261904D01*
X145384819Y-83976190D02*
X144384819Y-83976190D01*
X144384819Y-83976190D02*
X144527676Y-84071428D01*
X144527676Y-84071428D02*
X144622914Y-84166666D01*
X144622914Y-84166666D02*
X144670533Y-84261904D01*
X144384819Y-83357142D02*
X144384819Y-82738095D01*
X144384819Y-82738095D02*
X144765771Y-83071428D01*
X144765771Y-83071428D02*
X144765771Y-82928571D01*
X144765771Y-82928571D02*
X144813390Y-82833333D01*
X144813390Y-82833333D02*
X144861009Y-82785714D01*
X144861009Y-82785714D02*
X144956247Y-82738095D01*
X144956247Y-82738095D02*
X145194342Y-82738095D01*
X145194342Y-82738095D02*
X145289580Y-82785714D01*
X145289580Y-82785714D02*
X145337200Y-82833333D01*
X145337200Y-82833333D02*
X145384819Y-82928571D01*
X145384819Y-82928571D02*
X145384819Y-83214285D01*
X145384819Y-83214285D02*
X145337200Y-83309523D01*
X145337200Y-83309523D02*
X145289580Y-83357142D01*
X132182142Y-75024819D02*
X131848809Y-74548628D01*
X131610714Y-75024819D02*
X131610714Y-74024819D01*
X131610714Y-74024819D02*
X131991666Y-74024819D01*
X131991666Y-74024819D02*
X132086904Y-74072438D01*
X132086904Y-74072438D02*
X132134523Y-74120057D01*
X132134523Y-74120057D02*
X132182142Y-74215295D01*
X132182142Y-74215295D02*
X132182142Y-74358152D01*
X132182142Y-74358152D02*
X132134523Y-74453390D01*
X132134523Y-74453390D02*
X132086904Y-74501009D01*
X132086904Y-74501009D02*
X131991666Y-74548628D01*
X131991666Y-74548628D02*
X131610714Y-74548628D01*
X133134523Y-75024819D02*
X132563095Y-75024819D01*
X132848809Y-75024819D02*
X132848809Y-74024819D01*
X132848809Y-74024819D02*
X132753571Y-74167676D01*
X132753571Y-74167676D02*
X132658333Y-74262914D01*
X132658333Y-74262914D02*
X132563095Y-74310533D01*
X134086904Y-75024819D02*
X133515476Y-75024819D01*
X133801190Y-75024819D02*
X133801190Y-74024819D01*
X133801190Y-74024819D02*
X133705952Y-74167676D01*
X133705952Y-74167676D02*
X133610714Y-74262914D01*
X133610714Y-74262914D02*
X133515476Y-74310533D01*
X160333333Y-72024819D02*
X160000000Y-71548628D01*
X159761905Y-72024819D02*
X159761905Y-71024819D01*
X159761905Y-71024819D02*
X160142857Y-71024819D01*
X160142857Y-71024819D02*
X160238095Y-71072438D01*
X160238095Y-71072438D02*
X160285714Y-71120057D01*
X160285714Y-71120057D02*
X160333333Y-71215295D01*
X160333333Y-71215295D02*
X160333333Y-71358152D01*
X160333333Y-71358152D02*
X160285714Y-71453390D01*
X160285714Y-71453390D02*
X160238095Y-71501009D01*
X160238095Y-71501009D02*
X160142857Y-71548628D01*
X160142857Y-71548628D02*
X159761905Y-71548628D01*
X160904762Y-71453390D02*
X160809524Y-71405771D01*
X160809524Y-71405771D02*
X160761905Y-71358152D01*
X160761905Y-71358152D02*
X160714286Y-71262914D01*
X160714286Y-71262914D02*
X160714286Y-71215295D01*
X160714286Y-71215295D02*
X160761905Y-71120057D01*
X160761905Y-71120057D02*
X160809524Y-71072438D01*
X160809524Y-71072438D02*
X160904762Y-71024819D01*
X160904762Y-71024819D02*
X161095238Y-71024819D01*
X161095238Y-71024819D02*
X161190476Y-71072438D01*
X161190476Y-71072438D02*
X161238095Y-71120057D01*
X161238095Y-71120057D02*
X161285714Y-71215295D01*
X161285714Y-71215295D02*
X161285714Y-71262914D01*
X161285714Y-71262914D02*
X161238095Y-71358152D01*
X161238095Y-71358152D02*
X161190476Y-71405771D01*
X161190476Y-71405771D02*
X161095238Y-71453390D01*
X161095238Y-71453390D02*
X160904762Y-71453390D01*
X160904762Y-71453390D02*
X160809524Y-71501009D01*
X160809524Y-71501009D02*
X160761905Y-71548628D01*
X160761905Y-71548628D02*
X160714286Y-71643866D01*
X160714286Y-71643866D02*
X160714286Y-71834342D01*
X160714286Y-71834342D02*
X160761905Y-71929580D01*
X160761905Y-71929580D02*
X160809524Y-71977200D01*
X160809524Y-71977200D02*
X160904762Y-72024819D01*
X160904762Y-72024819D02*
X161095238Y-72024819D01*
X161095238Y-72024819D02*
X161190476Y-71977200D01*
X161190476Y-71977200D02*
X161238095Y-71929580D01*
X161238095Y-71929580D02*
X161285714Y-71834342D01*
X161285714Y-71834342D02*
X161285714Y-71643866D01*
X161285714Y-71643866D02*
X161238095Y-71548628D01*
X161238095Y-71548628D02*
X161190476Y-71501009D01*
X161190476Y-71501009D02*
X161095238Y-71453390D01*
X165658333Y-70024819D02*
X165325000Y-69548628D01*
X165086905Y-70024819D02*
X165086905Y-69024819D01*
X165086905Y-69024819D02*
X165467857Y-69024819D01*
X165467857Y-69024819D02*
X165563095Y-69072438D01*
X165563095Y-69072438D02*
X165610714Y-69120057D01*
X165610714Y-69120057D02*
X165658333Y-69215295D01*
X165658333Y-69215295D02*
X165658333Y-69358152D01*
X165658333Y-69358152D02*
X165610714Y-69453390D01*
X165610714Y-69453390D02*
X165563095Y-69501009D01*
X165563095Y-69501009D02*
X165467857Y-69548628D01*
X165467857Y-69548628D02*
X165086905Y-69548628D01*
X165991667Y-69024819D02*
X166658333Y-69024819D01*
X166658333Y-69024819D02*
X166229762Y-70024819D01*
X180954819Y-73166666D02*
X180478628Y-73499999D01*
X180954819Y-73738094D02*
X179954819Y-73738094D01*
X179954819Y-73738094D02*
X179954819Y-73357142D01*
X179954819Y-73357142D02*
X180002438Y-73261904D01*
X180002438Y-73261904D02*
X180050057Y-73214285D01*
X180050057Y-73214285D02*
X180145295Y-73166666D01*
X180145295Y-73166666D02*
X180288152Y-73166666D01*
X180288152Y-73166666D02*
X180383390Y-73214285D01*
X180383390Y-73214285D02*
X180431009Y-73261904D01*
X180431009Y-73261904D02*
X180478628Y-73357142D01*
X180478628Y-73357142D02*
X180478628Y-73738094D01*
X179954819Y-72261904D02*
X179954819Y-72738094D01*
X179954819Y-72738094D02*
X180431009Y-72785713D01*
X180431009Y-72785713D02*
X180383390Y-72738094D01*
X180383390Y-72738094D02*
X180335771Y-72642856D01*
X180335771Y-72642856D02*
X180335771Y-72404761D01*
X180335771Y-72404761D02*
X180383390Y-72309523D01*
X180383390Y-72309523D02*
X180431009Y-72261904D01*
X180431009Y-72261904D02*
X180526247Y-72214285D01*
X180526247Y-72214285D02*
X180764342Y-72214285D01*
X180764342Y-72214285D02*
X180859580Y-72261904D01*
X180859580Y-72261904D02*
X180907200Y-72309523D01*
X180907200Y-72309523D02*
X180954819Y-72404761D01*
X180954819Y-72404761D02*
X180954819Y-72642856D01*
X180954819Y-72642856D02*
X180907200Y-72738094D01*
X180907200Y-72738094D02*
X180859580Y-72785713D01*
X177158333Y-91024819D02*
X176825000Y-90548628D01*
X176586905Y-91024819D02*
X176586905Y-90024819D01*
X176586905Y-90024819D02*
X176967857Y-90024819D01*
X176967857Y-90024819D02*
X177063095Y-90072438D01*
X177063095Y-90072438D02*
X177110714Y-90120057D01*
X177110714Y-90120057D02*
X177158333Y-90215295D01*
X177158333Y-90215295D02*
X177158333Y-90358152D01*
X177158333Y-90358152D02*
X177110714Y-90453390D01*
X177110714Y-90453390D02*
X177063095Y-90501009D01*
X177063095Y-90501009D02*
X176967857Y-90548628D01*
X176967857Y-90548628D02*
X176586905Y-90548628D01*
X178015476Y-90358152D02*
X178015476Y-91024819D01*
X177777381Y-89977200D02*
X177539286Y-90691485D01*
X177539286Y-90691485D02*
X178158333Y-90691485D01*
X174315833Y-49279819D02*
X173982500Y-48803628D01*
X173744405Y-49279819D02*
X173744405Y-48279819D01*
X173744405Y-48279819D02*
X174125357Y-48279819D01*
X174125357Y-48279819D02*
X174220595Y-48327438D01*
X174220595Y-48327438D02*
X174268214Y-48375057D01*
X174268214Y-48375057D02*
X174315833Y-48470295D01*
X174315833Y-48470295D02*
X174315833Y-48613152D01*
X174315833Y-48613152D02*
X174268214Y-48708390D01*
X174268214Y-48708390D02*
X174220595Y-48756009D01*
X174220595Y-48756009D02*
X174125357Y-48803628D01*
X174125357Y-48803628D02*
X173744405Y-48803628D01*
X174649167Y-48279819D02*
X175268214Y-48279819D01*
X175268214Y-48279819D02*
X174934881Y-48660771D01*
X174934881Y-48660771D02*
X175077738Y-48660771D01*
X175077738Y-48660771D02*
X175172976Y-48708390D01*
X175172976Y-48708390D02*
X175220595Y-48756009D01*
X175220595Y-48756009D02*
X175268214Y-48851247D01*
X175268214Y-48851247D02*
X175268214Y-49089342D01*
X175268214Y-49089342D02*
X175220595Y-49184580D01*
X175220595Y-49184580D02*
X175172976Y-49232200D01*
X175172976Y-49232200D02*
X175077738Y-49279819D01*
X175077738Y-49279819D02*
X174792024Y-49279819D01*
X174792024Y-49279819D02*
X174696786Y-49232200D01*
X174696786Y-49232200D02*
X174649167Y-49184580D01*
X190333333Y-71134819D02*
X190000000Y-70658628D01*
X189761905Y-71134819D02*
X189761905Y-70134819D01*
X189761905Y-70134819D02*
X190142857Y-70134819D01*
X190142857Y-70134819D02*
X190238095Y-70182438D01*
X190238095Y-70182438D02*
X190285714Y-70230057D01*
X190285714Y-70230057D02*
X190333333Y-70325295D01*
X190333333Y-70325295D02*
X190333333Y-70468152D01*
X190333333Y-70468152D02*
X190285714Y-70563390D01*
X190285714Y-70563390D02*
X190238095Y-70611009D01*
X190238095Y-70611009D02*
X190142857Y-70658628D01*
X190142857Y-70658628D02*
X189761905Y-70658628D01*
X191285714Y-71134819D02*
X190714286Y-71134819D01*
X191000000Y-71134819D02*
X191000000Y-70134819D01*
X191000000Y-70134819D02*
X190904762Y-70277676D01*
X190904762Y-70277676D02*
X190809524Y-70372914D01*
X190809524Y-70372914D02*
X190714286Y-70420533D01*
X148879047Y-81263278D02*
X148758095Y-81202802D01*
X148758095Y-81202802D02*
X148637142Y-81081850D01*
X148637142Y-81081850D02*
X148455714Y-80900421D01*
X148455714Y-80900421D02*
X148334761Y-80839945D01*
X148334761Y-80839945D02*
X148213809Y-80839945D01*
X148274285Y-81142326D02*
X148153333Y-81081850D01*
X148153333Y-81081850D02*
X148032380Y-80960897D01*
X148032380Y-80960897D02*
X147971904Y-80718992D01*
X147971904Y-80718992D02*
X147971904Y-80295659D01*
X147971904Y-80295659D02*
X148032380Y-80053754D01*
X148032380Y-80053754D02*
X148153333Y-79932802D01*
X148153333Y-79932802D02*
X148274285Y-79872326D01*
X148274285Y-79872326D02*
X148516190Y-79872326D01*
X148516190Y-79872326D02*
X148637142Y-79932802D01*
X148637142Y-79932802D02*
X148758095Y-80053754D01*
X148758095Y-80053754D02*
X148818571Y-80295659D01*
X148818571Y-80295659D02*
X148818571Y-80718992D01*
X148818571Y-80718992D02*
X148758095Y-80960897D01*
X148758095Y-80960897D02*
X148637142Y-81081850D01*
X148637142Y-81081850D02*
X148516190Y-81142326D01*
X148516190Y-81142326D02*
X148274285Y-81142326D01*
X149302380Y-79993278D02*
X149362856Y-79932802D01*
X149362856Y-79932802D02*
X149483809Y-79872326D01*
X149483809Y-79872326D02*
X149786190Y-79872326D01*
X149786190Y-79872326D02*
X149907142Y-79932802D01*
X149907142Y-79932802D02*
X149967618Y-79993278D01*
X149967618Y-79993278D02*
X150028095Y-80114230D01*
X150028095Y-80114230D02*
X150028095Y-80235183D01*
X150028095Y-80235183D02*
X149967618Y-80416611D01*
X149967618Y-80416611D02*
X149241904Y-81142326D01*
X149241904Y-81142326D02*
X150028095Y-81142326D01*
X183333333Y-57904819D02*
X182857143Y-57904819D01*
X182857143Y-57904819D02*
X182857143Y-56904819D01*
X184190476Y-57904819D02*
X183619048Y-57904819D01*
X183904762Y-57904819D02*
X183904762Y-56904819D01*
X183904762Y-56904819D02*
X183809524Y-57047676D01*
X183809524Y-57047676D02*
X183714286Y-57142914D01*
X183714286Y-57142914D02*
X183619048Y-57190533D01*
X191857142Y-51509580D02*
X191809523Y-51557200D01*
X191809523Y-51557200D02*
X191666666Y-51604819D01*
X191666666Y-51604819D02*
X191571428Y-51604819D01*
X191571428Y-51604819D02*
X191428571Y-51557200D01*
X191428571Y-51557200D02*
X191333333Y-51461961D01*
X191333333Y-51461961D02*
X191285714Y-51366723D01*
X191285714Y-51366723D02*
X191238095Y-51176247D01*
X191238095Y-51176247D02*
X191238095Y-51033390D01*
X191238095Y-51033390D02*
X191285714Y-50842914D01*
X191285714Y-50842914D02*
X191333333Y-50747676D01*
X191333333Y-50747676D02*
X191428571Y-50652438D01*
X191428571Y-50652438D02*
X191571428Y-50604819D01*
X191571428Y-50604819D02*
X191666666Y-50604819D01*
X191666666Y-50604819D02*
X191809523Y-50652438D01*
X191809523Y-50652438D02*
X191857142Y-50700057D01*
X192238095Y-50700057D02*
X192285714Y-50652438D01*
X192285714Y-50652438D02*
X192380952Y-50604819D01*
X192380952Y-50604819D02*
X192619047Y-50604819D01*
X192619047Y-50604819D02*
X192714285Y-50652438D01*
X192714285Y-50652438D02*
X192761904Y-50700057D01*
X192761904Y-50700057D02*
X192809523Y-50795295D01*
X192809523Y-50795295D02*
X192809523Y-50890533D01*
X192809523Y-50890533D02*
X192761904Y-51033390D01*
X192761904Y-51033390D02*
X192190476Y-51604819D01*
X192190476Y-51604819D02*
X192809523Y-51604819D01*
X193666666Y-50938152D02*
X193666666Y-51604819D01*
X193428571Y-50557200D02*
X193190476Y-51271485D01*
X193190476Y-51271485D02*
X193809523Y-51271485D01*
X176357142Y-59709580D02*
X176309523Y-59757200D01*
X176309523Y-59757200D02*
X176166666Y-59804819D01*
X176166666Y-59804819D02*
X176071428Y-59804819D01*
X176071428Y-59804819D02*
X175928571Y-59757200D01*
X175928571Y-59757200D02*
X175833333Y-59661961D01*
X175833333Y-59661961D02*
X175785714Y-59566723D01*
X175785714Y-59566723D02*
X175738095Y-59376247D01*
X175738095Y-59376247D02*
X175738095Y-59233390D01*
X175738095Y-59233390D02*
X175785714Y-59042914D01*
X175785714Y-59042914D02*
X175833333Y-58947676D01*
X175833333Y-58947676D02*
X175928571Y-58852438D01*
X175928571Y-58852438D02*
X176071428Y-58804819D01*
X176071428Y-58804819D02*
X176166666Y-58804819D01*
X176166666Y-58804819D02*
X176309523Y-58852438D01*
X176309523Y-58852438D02*
X176357142Y-58900057D01*
X176738095Y-58900057D02*
X176785714Y-58852438D01*
X176785714Y-58852438D02*
X176880952Y-58804819D01*
X176880952Y-58804819D02*
X177119047Y-58804819D01*
X177119047Y-58804819D02*
X177214285Y-58852438D01*
X177214285Y-58852438D02*
X177261904Y-58900057D01*
X177261904Y-58900057D02*
X177309523Y-58995295D01*
X177309523Y-58995295D02*
X177309523Y-59090533D01*
X177309523Y-59090533D02*
X177261904Y-59233390D01*
X177261904Y-59233390D02*
X176690476Y-59804819D01*
X176690476Y-59804819D02*
X177309523Y-59804819D01*
X177642857Y-58804819D02*
X178261904Y-58804819D01*
X178261904Y-58804819D02*
X177928571Y-59185771D01*
X177928571Y-59185771D02*
X178071428Y-59185771D01*
X178071428Y-59185771D02*
X178166666Y-59233390D01*
X178166666Y-59233390D02*
X178214285Y-59281009D01*
X178214285Y-59281009D02*
X178261904Y-59376247D01*
X178261904Y-59376247D02*
X178261904Y-59614342D01*
X178261904Y-59614342D02*
X178214285Y-59709580D01*
X178214285Y-59709580D02*
X178166666Y-59757200D01*
X178166666Y-59757200D02*
X178071428Y-59804819D01*
X178071428Y-59804819D02*
X177785714Y-59804819D01*
X177785714Y-59804819D02*
X177690476Y-59757200D01*
X177690476Y-59757200D02*
X177642857Y-59709580D01*
X169857142Y-55509580D02*
X169809523Y-55557200D01*
X169809523Y-55557200D02*
X169666666Y-55604819D01*
X169666666Y-55604819D02*
X169571428Y-55604819D01*
X169571428Y-55604819D02*
X169428571Y-55557200D01*
X169428571Y-55557200D02*
X169333333Y-55461961D01*
X169333333Y-55461961D02*
X169285714Y-55366723D01*
X169285714Y-55366723D02*
X169238095Y-55176247D01*
X169238095Y-55176247D02*
X169238095Y-55033390D01*
X169238095Y-55033390D02*
X169285714Y-54842914D01*
X169285714Y-54842914D02*
X169333333Y-54747676D01*
X169333333Y-54747676D02*
X169428571Y-54652438D01*
X169428571Y-54652438D02*
X169571428Y-54604819D01*
X169571428Y-54604819D02*
X169666666Y-54604819D01*
X169666666Y-54604819D02*
X169809523Y-54652438D01*
X169809523Y-54652438D02*
X169857142Y-54700057D01*
X170238095Y-54700057D02*
X170285714Y-54652438D01*
X170285714Y-54652438D02*
X170380952Y-54604819D01*
X170380952Y-54604819D02*
X170619047Y-54604819D01*
X170619047Y-54604819D02*
X170714285Y-54652438D01*
X170714285Y-54652438D02*
X170761904Y-54700057D01*
X170761904Y-54700057D02*
X170809523Y-54795295D01*
X170809523Y-54795295D02*
X170809523Y-54890533D01*
X170809523Y-54890533D02*
X170761904Y-55033390D01*
X170761904Y-55033390D02*
X170190476Y-55604819D01*
X170190476Y-55604819D02*
X170809523Y-55604819D01*
X171190476Y-54700057D02*
X171238095Y-54652438D01*
X171238095Y-54652438D02*
X171333333Y-54604819D01*
X171333333Y-54604819D02*
X171571428Y-54604819D01*
X171571428Y-54604819D02*
X171666666Y-54652438D01*
X171666666Y-54652438D02*
X171714285Y-54700057D01*
X171714285Y-54700057D02*
X171761904Y-54795295D01*
X171761904Y-54795295D02*
X171761904Y-54890533D01*
X171761904Y-54890533D02*
X171714285Y-55033390D01*
X171714285Y-55033390D02*
X171142857Y-55604819D01*
X171142857Y-55604819D02*
X171761904Y-55604819D01*
X143357142Y-66009580D02*
X143309523Y-66057200D01*
X143309523Y-66057200D02*
X143166666Y-66104819D01*
X143166666Y-66104819D02*
X143071428Y-66104819D01*
X143071428Y-66104819D02*
X142928571Y-66057200D01*
X142928571Y-66057200D02*
X142833333Y-65961961D01*
X142833333Y-65961961D02*
X142785714Y-65866723D01*
X142785714Y-65866723D02*
X142738095Y-65676247D01*
X142738095Y-65676247D02*
X142738095Y-65533390D01*
X142738095Y-65533390D02*
X142785714Y-65342914D01*
X142785714Y-65342914D02*
X142833333Y-65247676D01*
X142833333Y-65247676D02*
X142928571Y-65152438D01*
X142928571Y-65152438D02*
X143071428Y-65104819D01*
X143071428Y-65104819D02*
X143166666Y-65104819D01*
X143166666Y-65104819D02*
X143309523Y-65152438D01*
X143309523Y-65152438D02*
X143357142Y-65200057D01*
X143738095Y-65200057D02*
X143785714Y-65152438D01*
X143785714Y-65152438D02*
X143880952Y-65104819D01*
X143880952Y-65104819D02*
X144119047Y-65104819D01*
X144119047Y-65104819D02*
X144214285Y-65152438D01*
X144214285Y-65152438D02*
X144261904Y-65200057D01*
X144261904Y-65200057D02*
X144309523Y-65295295D01*
X144309523Y-65295295D02*
X144309523Y-65390533D01*
X144309523Y-65390533D02*
X144261904Y-65533390D01*
X144261904Y-65533390D02*
X143690476Y-66104819D01*
X143690476Y-66104819D02*
X144309523Y-66104819D01*
X145261904Y-66104819D02*
X144690476Y-66104819D01*
X144976190Y-66104819D02*
X144976190Y-65104819D01*
X144976190Y-65104819D02*
X144880952Y-65247676D01*
X144880952Y-65247676D02*
X144785714Y-65342914D01*
X144785714Y-65342914D02*
X144690476Y-65390533D01*
X169009642Y-49184580D02*
X168962023Y-49232200D01*
X168962023Y-49232200D02*
X168819166Y-49279819D01*
X168819166Y-49279819D02*
X168723928Y-49279819D01*
X168723928Y-49279819D02*
X168581071Y-49232200D01*
X168581071Y-49232200D02*
X168485833Y-49136961D01*
X168485833Y-49136961D02*
X168438214Y-49041723D01*
X168438214Y-49041723D02*
X168390595Y-48851247D01*
X168390595Y-48851247D02*
X168390595Y-48708390D01*
X168390595Y-48708390D02*
X168438214Y-48517914D01*
X168438214Y-48517914D02*
X168485833Y-48422676D01*
X168485833Y-48422676D02*
X168581071Y-48327438D01*
X168581071Y-48327438D02*
X168723928Y-48279819D01*
X168723928Y-48279819D02*
X168819166Y-48279819D01*
X168819166Y-48279819D02*
X168962023Y-48327438D01*
X168962023Y-48327438D02*
X169009642Y-48375057D01*
X169962023Y-49279819D02*
X169390595Y-49279819D01*
X169676309Y-49279819D02*
X169676309Y-48279819D01*
X169676309Y-48279819D02*
X169581071Y-48422676D01*
X169581071Y-48422676D02*
X169485833Y-48517914D01*
X169485833Y-48517914D02*
X169390595Y-48565533D01*
X170438214Y-49279819D02*
X170628690Y-49279819D01*
X170628690Y-49279819D02*
X170723928Y-49232200D01*
X170723928Y-49232200D02*
X170771547Y-49184580D01*
X170771547Y-49184580D02*
X170866785Y-49041723D01*
X170866785Y-49041723D02*
X170914404Y-48851247D01*
X170914404Y-48851247D02*
X170914404Y-48470295D01*
X170914404Y-48470295D02*
X170866785Y-48375057D01*
X170866785Y-48375057D02*
X170819166Y-48327438D01*
X170819166Y-48327438D02*
X170723928Y-48279819D01*
X170723928Y-48279819D02*
X170533452Y-48279819D01*
X170533452Y-48279819D02*
X170438214Y-48327438D01*
X170438214Y-48327438D02*
X170390595Y-48375057D01*
X170390595Y-48375057D02*
X170342976Y-48470295D01*
X170342976Y-48470295D02*
X170342976Y-48708390D01*
X170342976Y-48708390D02*
X170390595Y-48803628D01*
X170390595Y-48803628D02*
X170438214Y-48851247D01*
X170438214Y-48851247D02*
X170533452Y-48898866D01*
X170533452Y-48898866D02*
X170723928Y-48898866D01*
X170723928Y-48898866D02*
X170819166Y-48851247D01*
X170819166Y-48851247D02*
X170866785Y-48803628D01*
X170866785Y-48803628D02*
X170914404Y-48708390D01*
X154857142Y-70009580D02*
X154809523Y-70057200D01*
X154809523Y-70057200D02*
X154666666Y-70104819D01*
X154666666Y-70104819D02*
X154571428Y-70104819D01*
X154571428Y-70104819D02*
X154428571Y-70057200D01*
X154428571Y-70057200D02*
X154333333Y-69961961D01*
X154333333Y-69961961D02*
X154285714Y-69866723D01*
X154285714Y-69866723D02*
X154238095Y-69676247D01*
X154238095Y-69676247D02*
X154238095Y-69533390D01*
X154238095Y-69533390D02*
X154285714Y-69342914D01*
X154285714Y-69342914D02*
X154333333Y-69247676D01*
X154333333Y-69247676D02*
X154428571Y-69152438D01*
X154428571Y-69152438D02*
X154571428Y-69104819D01*
X154571428Y-69104819D02*
X154666666Y-69104819D01*
X154666666Y-69104819D02*
X154809523Y-69152438D01*
X154809523Y-69152438D02*
X154857142Y-69200057D01*
X155809523Y-70104819D02*
X155238095Y-70104819D01*
X155523809Y-70104819D02*
X155523809Y-69104819D01*
X155523809Y-69104819D02*
X155428571Y-69247676D01*
X155428571Y-69247676D02*
X155333333Y-69342914D01*
X155333333Y-69342914D02*
X155238095Y-69390533D01*
X156142857Y-69104819D02*
X156809523Y-69104819D01*
X156809523Y-69104819D02*
X156380952Y-70104819D01*
X161857142Y-56009580D02*
X161809523Y-56057200D01*
X161809523Y-56057200D02*
X161666666Y-56104819D01*
X161666666Y-56104819D02*
X161571428Y-56104819D01*
X161571428Y-56104819D02*
X161428571Y-56057200D01*
X161428571Y-56057200D02*
X161333333Y-55961961D01*
X161333333Y-55961961D02*
X161285714Y-55866723D01*
X161285714Y-55866723D02*
X161238095Y-55676247D01*
X161238095Y-55676247D02*
X161238095Y-55533390D01*
X161238095Y-55533390D02*
X161285714Y-55342914D01*
X161285714Y-55342914D02*
X161333333Y-55247676D01*
X161333333Y-55247676D02*
X161428571Y-55152438D01*
X161428571Y-55152438D02*
X161571428Y-55104819D01*
X161571428Y-55104819D02*
X161666666Y-55104819D01*
X161666666Y-55104819D02*
X161809523Y-55152438D01*
X161809523Y-55152438D02*
X161857142Y-55200057D01*
X162809523Y-56104819D02*
X162238095Y-56104819D01*
X162523809Y-56104819D02*
X162523809Y-55104819D01*
X162523809Y-55104819D02*
X162428571Y-55247676D01*
X162428571Y-55247676D02*
X162333333Y-55342914D01*
X162333333Y-55342914D02*
X162238095Y-55390533D01*
X163666666Y-55104819D02*
X163476190Y-55104819D01*
X163476190Y-55104819D02*
X163380952Y-55152438D01*
X163380952Y-55152438D02*
X163333333Y-55200057D01*
X163333333Y-55200057D02*
X163238095Y-55342914D01*
X163238095Y-55342914D02*
X163190476Y-55533390D01*
X163190476Y-55533390D02*
X163190476Y-55914342D01*
X163190476Y-55914342D02*
X163238095Y-56009580D01*
X163238095Y-56009580D02*
X163285714Y-56057200D01*
X163285714Y-56057200D02*
X163380952Y-56104819D01*
X163380952Y-56104819D02*
X163571428Y-56104819D01*
X163571428Y-56104819D02*
X163666666Y-56057200D01*
X163666666Y-56057200D02*
X163714285Y-56009580D01*
X163714285Y-56009580D02*
X163761904Y-55914342D01*
X163761904Y-55914342D02*
X163761904Y-55676247D01*
X163761904Y-55676247D02*
X163714285Y-55581009D01*
X163714285Y-55581009D02*
X163666666Y-55533390D01*
X163666666Y-55533390D02*
X163571428Y-55485771D01*
X163571428Y-55485771D02*
X163380952Y-55485771D01*
X163380952Y-55485771D02*
X163285714Y-55533390D01*
X163285714Y-55533390D02*
X163238095Y-55581009D01*
X163238095Y-55581009D02*
X163190476Y-55676247D01*
X154857142Y-62009580D02*
X154809523Y-62057200D01*
X154809523Y-62057200D02*
X154666666Y-62104819D01*
X154666666Y-62104819D02*
X154571428Y-62104819D01*
X154571428Y-62104819D02*
X154428571Y-62057200D01*
X154428571Y-62057200D02*
X154333333Y-61961961D01*
X154333333Y-61961961D02*
X154285714Y-61866723D01*
X154285714Y-61866723D02*
X154238095Y-61676247D01*
X154238095Y-61676247D02*
X154238095Y-61533390D01*
X154238095Y-61533390D02*
X154285714Y-61342914D01*
X154285714Y-61342914D02*
X154333333Y-61247676D01*
X154333333Y-61247676D02*
X154428571Y-61152438D01*
X154428571Y-61152438D02*
X154571428Y-61104819D01*
X154571428Y-61104819D02*
X154666666Y-61104819D01*
X154666666Y-61104819D02*
X154809523Y-61152438D01*
X154809523Y-61152438D02*
X154857142Y-61200057D01*
X155809523Y-62104819D02*
X155238095Y-62104819D01*
X155523809Y-62104819D02*
X155523809Y-61104819D01*
X155523809Y-61104819D02*
X155428571Y-61247676D01*
X155428571Y-61247676D02*
X155333333Y-61342914D01*
X155333333Y-61342914D02*
X155238095Y-61390533D01*
X156190476Y-61200057D02*
X156238095Y-61152438D01*
X156238095Y-61152438D02*
X156333333Y-61104819D01*
X156333333Y-61104819D02*
X156571428Y-61104819D01*
X156571428Y-61104819D02*
X156666666Y-61152438D01*
X156666666Y-61152438D02*
X156714285Y-61200057D01*
X156714285Y-61200057D02*
X156761904Y-61295295D01*
X156761904Y-61295295D02*
X156761904Y-61390533D01*
X156761904Y-61390533D02*
X156714285Y-61533390D01*
X156714285Y-61533390D02*
X156142857Y-62104819D01*
X156142857Y-62104819D02*
X156761904Y-62104819D01*
X146382142Y-58009580D02*
X146334523Y-58057200D01*
X146334523Y-58057200D02*
X146191666Y-58104819D01*
X146191666Y-58104819D02*
X146096428Y-58104819D01*
X146096428Y-58104819D02*
X145953571Y-58057200D01*
X145953571Y-58057200D02*
X145858333Y-57961961D01*
X145858333Y-57961961D02*
X145810714Y-57866723D01*
X145810714Y-57866723D02*
X145763095Y-57676247D01*
X145763095Y-57676247D02*
X145763095Y-57533390D01*
X145763095Y-57533390D02*
X145810714Y-57342914D01*
X145810714Y-57342914D02*
X145858333Y-57247676D01*
X145858333Y-57247676D02*
X145953571Y-57152438D01*
X145953571Y-57152438D02*
X146096428Y-57104819D01*
X146096428Y-57104819D02*
X146191666Y-57104819D01*
X146191666Y-57104819D02*
X146334523Y-57152438D01*
X146334523Y-57152438D02*
X146382142Y-57200057D01*
X147334523Y-58104819D02*
X146763095Y-58104819D01*
X147048809Y-58104819D02*
X147048809Y-57104819D01*
X147048809Y-57104819D02*
X146953571Y-57247676D01*
X146953571Y-57247676D02*
X146858333Y-57342914D01*
X146858333Y-57342914D02*
X146763095Y-57390533D01*
X148286904Y-58104819D02*
X147715476Y-58104819D01*
X148001190Y-58104819D02*
X148001190Y-57104819D01*
X148001190Y-57104819D02*
X147905952Y-57247676D01*
X147905952Y-57247676D02*
X147810714Y-57342914D01*
X147810714Y-57342914D02*
X147715476Y-57390533D01*
X142357142Y-75359580D02*
X142309523Y-75407200D01*
X142309523Y-75407200D02*
X142166666Y-75454819D01*
X142166666Y-75454819D02*
X142071428Y-75454819D01*
X142071428Y-75454819D02*
X141928571Y-75407200D01*
X141928571Y-75407200D02*
X141833333Y-75311961D01*
X141833333Y-75311961D02*
X141785714Y-75216723D01*
X141785714Y-75216723D02*
X141738095Y-75026247D01*
X141738095Y-75026247D02*
X141738095Y-74883390D01*
X141738095Y-74883390D02*
X141785714Y-74692914D01*
X141785714Y-74692914D02*
X141833333Y-74597676D01*
X141833333Y-74597676D02*
X141928571Y-74502438D01*
X141928571Y-74502438D02*
X142071428Y-74454819D01*
X142071428Y-74454819D02*
X142166666Y-74454819D01*
X142166666Y-74454819D02*
X142309523Y-74502438D01*
X142309523Y-74502438D02*
X142357142Y-74550057D01*
X143309523Y-75454819D02*
X142738095Y-75454819D01*
X143023809Y-75454819D02*
X143023809Y-74454819D01*
X143023809Y-74454819D02*
X142928571Y-74597676D01*
X142928571Y-74597676D02*
X142833333Y-74692914D01*
X142833333Y-74692914D02*
X142738095Y-74740533D01*
X143928571Y-74454819D02*
X144023809Y-74454819D01*
X144023809Y-74454819D02*
X144119047Y-74502438D01*
X144119047Y-74502438D02*
X144166666Y-74550057D01*
X144166666Y-74550057D02*
X144214285Y-74645295D01*
X144214285Y-74645295D02*
X144261904Y-74835771D01*
X144261904Y-74835771D02*
X144261904Y-75073866D01*
X144261904Y-75073866D02*
X144214285Y-75264342D01*
X144214285Y-75264342D02*
X144166666Y-75359580D01*
X144166666Y-75359580D02*
X144119047Y-75407200D01*
X144119047Y-75407200D02*
X144023809Y-75454819D01*
X144023809Y-75454819D02*
X143928571Y-75454819D01*
X143928571Y-75454819D02*
X143833333Y-75407200D01*
X143833333Y-75407200D02*
X143785714Y-75359580D01*
X143785714Y-75359580D02*
X143738095Y-75264342D01*
X143738095Y-75264342D02*
X143690476Y-75073866D01*
X143690476Y-75073866D02*
X143690476Y-74835771D01*
X143690476Y-74835771D02*
X143738095Y-74645295D01*
X143738095Y-74645295D02*
X143785714Y-74550057D01*
X143785714Y-74550057D02*
X143833333Y-74502438D01*
X143833333Y-74502438D02*
X143928571Y-74454819D01*
X135833333Y-80009580D02*
X135785714Y-80057200D01*
X135785714Y-80057200D02*
X135642857Y-80104819D01*
X135642857Y-80104819D02*
X135547619Y-80104819D01*
X135547619Y-80104819D02*
X135404762Y-80057200D01*
X135404762Y-80057200D02*
X135309524Y-79961961D01*
X135309524Y-79961961D02*
X135261905Y-79866723D01*
X135261905Y-79866723D02*
X135214286Y-79676247D01*
X135214286Y-79676247D02*
X135214286Y-79533390D01*
X135214286Y-79533390D02*
X135261905Y-79342914D01*
X135261905Y-79342914D02*
X135309524Y-79247676D01*
X135309524Y-79247676D02*
X135404762Y-79152438D01*
X135404762Y-79152438D02*
X135547619Y-79104819D01*
X135547619Y-79104819D02*
X135642857Y-79104819D01*
X135642857Y-79104819D02*
X135785714Y-79152438D01*
X135785714Y-79152438D02*
X135833333Y-79200057D01*
X136309524Y-80104819D02*
X136500000Y-80104819D01*
X136500000Y-80104819D02*
X136595238Y-80057200D01*
X136595238Y-80057200D02*
X136642857Y-80009580D01*
X136642857Y-80009580D02*
X136738095Y-79866723D01*
X136738095Y-79866723D02*
X136785714Y-79676247D01*
X136785714Y-79676247D02*
X136785714Y-79295295D01*
X136785714Y-79295295D02*
X136738095Y-79200057D01*
X136738095Y-79200057D02*
X136690476Y-79152438D01*
X136690476Y-79152438D02*
X136595238Y-79104819D01*
X136595238Y-79104819D02*
X136404762Y-79104819D01*
X136404762Y-79104819D02*
X136309524Y-79152438D01*
X136309524Y-79152438D02*
X136261905Y-79200057D01*
X136261905Y-79200057D02*
X136214286Y-79295295D01*
X136214286Y-79295295D02*
X136214286Y-79533390D01*
X136214286Y-79533390D02*
X136261905Y-79628628D01*
X136261905Y-79628628D02*
X136309524Y-79676247D01*
X136309524Y-79676247D02*
X136404762Y-79723866D01*
X136404762Y-79723866D02*
X136595238Y-79723866D01*
X136595238Y-79723866D02*
X136690476Y-79676247D01*
X136690476Y-79676247D02*
X136738095Y-79628628D01*
X136738095Y-79628628D02*
X136785714Y-79533390D01*
X147333333Y-62009580D02*
X147285714Y-62057200D01*
X147285714Y-62057200D02*
X147142857Y-62104819D01*
X147142857Y-62104819D02*
X147047619Y-62104819D01*
X147047619Y-62104819D02*
X146904762Y-62057200D01*
X146904762Y-62057200D02*
X146809524Y-61961961D01*
X146809524Y-61961961D02*
X146761905Y-61866723D01*
X146761905Y-61866723D02*
X146714286Y-61676247D01*
X146714286Y-61676247D02*
X146714286Y-61533390D01*
X146714286Y-61533390D02*
X146761905Y-61342914D01*
X146761905Y-61342914D02*
X146809524Y-61247676D01*
X146809524Y-61247676D02*
X146904762Y-61152438D01*
X146904762Y-61152438D02*
X147047619Y-61104819D01*
X147047619Y-61104819D02*
X147142857Y-61104819D01*
X147142857Y-61104819D02*
X147285714Y-61152438D01*
X147285714Y-61152438D02*
X147333333Y-61200057D01*
X147904762Y-61533390D02*
X147809524Y-61485771D01*
X147809524Y-61485771D02*
X147761905Y-61438152D01*
X147761905Y-61438152D02*
X147714286Y-61342914D01*
X147714286Y-61342914D02*
X147714286Y-61295295D01*
X147714286Y-61295295D02*
X147761905Y-61200057D01*
X147761905Y-61200057D02*
X147809524Y-61152438D01*
X147809524Y-61152438D02*
X147904762Y-61104819D01*
X147904762Y-61104819D02*
X148095238Y-61104819D01*
X148095238Y-61104819D02*
X148190476Y-61152438D01*
X148190476Y-61152438D02*
X148238095Y-61200057D01*
X148238095Y-61200057D02*
X148285714Y-61295295D01*
X148285714Y-61295295D02*
X148285714Y-61342914D01*
X148285714Y-61342914D02*
X148238095Y-61438152D01*
X148238095Y-61438152D02*
X148190476Y-61485771D01*
X148190476Y-61485771D02*
X148095238Y-61533390D01*
X148095238Y-61533390D02*
X147904762Y-61533390D01*
X147904762Y-61533390D02*
X147809524Y-61581009D01*
X147809524Y-61581009D02*
X147761905Y-61628628D01*
X147761905Y-61628628D02*
X147714286Y-61723866D01*
X147714286Y-61723866D02*
X147714286Y-61914342D01*
X147714286Y-61914342D02*
X147761905Y-62009580D01*
X147761905Y-62009580D02*
X147809524Y-62057200D01*
X147809524Y-62057200D02*
X147904762Y-62104819D01*
X147904762Y-62104819D02*
X148095238Y-62104819D01*
X148095238Y-62104819D02*
X148190476Y-62057200D01*
X148190476Y-62057200D02*
X148238095Y-62009580D01*
X148238095Y-62009580D02*
X148285714Y-61914342D01*
X148285714Y-61914342D02*
X148285714Y-61723866D01*
X148285714Y-61723866D02*
X148238095Y-61628628D01*
X148238095Y-61628628D02*
X148190476Y-61581009D01*
X148190476Y-61581009D02*
X148095238Y-61533390D01*
X175333333Y-68509580D02*
X175285714Y-68557200D01*
X175285714Y-68557200D02*
X175142857Y-68604819D01*
X175142857Y-68604819D02*
X175047619Y-68604819D01*
X175047619Y-68604819D02*
X174904762Y-68557200D01*
X174904762Y-68557200D02*
X174809524Y-68461961D01*
X174809524Y-68461961D02*
X174761905Y-68366723D01*
X174761905Y-68366723D02*
X174714286Y-68176247D01*
X174714286Y-68176247D02*
X174714286Y-68033390D01*
X174714286Y-68033390D02*
X174761905Y-67842914D01*
X174761905Y-67842914D02*
X174809524Y-67747676D01*
X174809524Y-67747676D02*
X174904762Y-67652438D01*
X174904762Y-67652438D02*
X175047619Y-67604819D01*
X175047619Y-67604819D02*
X175142857Y-67604819D01*
X175142857Y-67604819D02*
X175285714Y-67652438D01*
X175285714Y-67652438D02*
X175333333Y-67700057D01*
X176238095Y-67604819D02*
X175761905Y-67604819D01*
X175761905Y-67604819D02*
X175714286Y-68081009D01*
X175714286Y-68081009D02*
X175761905Y-68033390D01*
X175761905Y-68033390D02*
X175857143Y-67985771D01*
X175857143Y-67985771D02*
X176095238Y-67985771D01*
X176095238Y-67985771D02*
X176190476Y-68033390D01*
X176190476Y-68033390D02*
X176238095Y-68081009D01*
X176238095Y-68081009D02*
X176285714Y-68176247D01*
X176285714Y-68176247D02*
X176285714Y-68414342D01*
X176285714Y-68414342D02*
X176238095Y-68509580D01*
X176238095Y-68509580D02*
X176190476Y-68557200D01*
X176190476Y-68557200D02*
X176095238Y-68604819D01*
X176095238Y-68604819D02*
X175857143Y-68604819D01*
X175857143Y-68604819D02*
X175761905Y-68557200D01*
X175761905Y-68557200D02*
X175714286Y-68509580D01*
X136833333Y-61509580D02*
X136785714Y-61557200D01*
X136785714Y-61557200D02*
X136642857Y-61604819D01*
X136642857Y-61604819D02*
X136547619Y-61604819D01*
X136547619Y-61604819D02*
X136404762Y-61557200D01*
X136404762Y-61557200D02*
X136309524Y-61461961D01*
X136309524Y-61461961D02*
X136261905Y-61366723D01*
X136261905Y-61366723D02*
X136214286Y-61176247D01*
X136214286Y-61176247D02*
X136214286Y-61033390D01*
X136214286Y-61033390D02*
X136261905Y-60842914D01*
X136261905Y-60842914D02*
X136309524Y-60747676D01*
X136309524Y-60747676D02*
X136404762Y-60652438D01*
X136404762Y-60652438D02*
X136547619Y-60604819D01*
X136547619Y-60604819D02*
X136642857Y-60604819D01*
X136642857Y-60604819D02*
X136785714Y-60652438D01*
X136785714Y-60652438D02*
X136833333Y-60700057D01*
X137690476Y-60938152D02*
X137690476Y-61604819D01*
X137452381Y-60557200D02*
X137214286Y-61271485D01*
X137214286Y-61271485D02*
X137833333Y-61271485D01*
X183308333Y-67009580D02*
X183260714Y-67057200D01*
X183260714Y-67057200D02*
X183117857Y-67104819D01*
X183117857Y-67104819D02*
X183022619Y-67104819D01*
X183022619Y-67104819D02*
X182879762Y-67057200D01*
X182879762Y-67057200D02*
X182784524Y-66961961D01*
X182784524Y-66961961D02*
X182736905Y-66866723D01*
X182736905Y-66866723D02*
X182689286Y-66676247D01*
X182689286Y-66676247D02*
X182689286Y-66533390D01*
X182689286Y-66533390D02*
X182736905Y-66342914D01*
X182736905Y-66342914D02*
X182784524Y-66247676D01*
X182784524Y-66247676D02*
X182879762Y-66152438D01*
X182879762Y-66152438D02*
X183022619Y-66104819D01*
X183022619Y-66104819D02*
X183117857Y-66104819D01*
X183117857Y-66104819D02*
X183260714Y-66152438D01*
X183260714Y-66152438D02*
X183308333Y-66200057D01*
X183689286Y-66200057D02*
X183736905Y-66152438D01*
X183736905Y-66152438D02*
X183832143Y-66104819D01*
X183832143Y-66104819D02*
X184070238Y-66104819D01*
X184070238Y-66104819D02*
X184165476Y-66152438D01*
X184165476Y-66152438D02*
X184213095Y-66200057D01*
X184213095Y-66200057D02*
X184260714Y-66295295D01*
X184260714Y-66295295D02*
X184260714Y-66390533D01*
X184260714Y-66390533D02*
X184213095Y-66533390D01*
X184213095Y-66533390D02*
X183641667Y-67104819D01*
X183641667Y-67104819D02*
X184260714Y-67104819D01*
X201333333Y-77209580D02*
X201285714Y-77257200D01*
X201285714Y-77257200D02*
X201142857Y-77304819D01*
X201142857Y-77304819D02*
X201047619Y-77304819D01*
X201047619Y-77304819D02*
X200904762Y-77257200D01*
X200904762Y-77257200D02*
X200809524Y-77161961D01*
X200809524Y-77161961D02*
X200761905Y-77066723D01*
X200761905Y-77066723D02*
X200714286Y-76876247D01*
X200714286Y-76876247D02*
X200714286Y-76733390D01*
X200714286Y-76733390D02*
X200761905Y-76542914D01*
X200761905Y-76542914D02*
X200809524Y-76447676D01*
X200809524Y-76447676D02*
X200904762Y-76352438D01*
X200904762Y-76352438D02*
X201047619Y-76304819D01*
X201047619Y-76304819D02*
X201142857Y-76304819D01*
X201142857Y-76304819D02*
X201285714Y-76352438D01*
X201285714Y-76352438D02*
X201333333Y-76400057D01*
X202285714Y-77304819D02*
X201714286Y-77304819D01*
X202000000Y-77304819D02*
X202000000Y-76304819D01*
X202000000Y-76304819D02*
X201904762Y-76447676D01*
X201904762Y-76447676D02*
X201809524Y-76542914D01*
X201809524Y-76542914D02*
X201714286Y-76590533D01*
X149761905Y-49506819D02*
X150333333Y-49506819D01*
X150047619Y-50506819D02*
X150047619Y-49506819D01*
X150666667Y-50506819D02*
X150666667Y-49506819D01*
X150666667Y-49506819D02*
X151047619Y-49506819D01*
X151047619Y-49506819D02*
X151142857Y-49554438D01*
X151142857Y-49554438D02*
X151190476Y-49602057D01*
X151190476Y-49602057D02*
X151238095Y-49697295D01*
X151238095Y-49697295D02*
X151238095Y-49840152D01*
X151238095Y-49840152D02*
X151190476Y-49935390D01*
X151190476Y-49935390D02*
X151142857Y-49983009D01*
X151142857Y-49983009D02*
X151047619Y-50030628D01*
X151047619Y-50030628D02*
X150666667Y-50030628D01*
X151571429Y-49506819D02*
X152190476Y-49506819D01*
X152190476Y-49506819D02*
X151857143Y-49887771D01*
X151857143Y-49887771D02*
X152000000Y-49887771D01*
X152000000Y-49887771D02*
X152095238Y-49935390D01*
X152095238Y-49935390D02*
X152142857Y-49983009D01*
X152142857Y-49983009D02*
X152190476Y-50078247D01*
X152190476Y-50078247D02*
X152190476Y-50316342D01*
X152190476Y-50316342D02*
X152142857Y-50411580D01*
X152142857Y-50411580D02*
X152095238Y-50459200D01*
X152095238Y-50459200D02*
X152000000Y-50506819D01*
X152000000Y-50506819D02*
X151714286Y-50506819D01*
X151714286Y-50506819D02*
X151619048Y-50459200D01*
X151619048Y-50459200D02*
X151571429Y-50411580D01*
X152761905Y-49935390D02*
X152666667Y-49887771D01*
X152666667Y-49887771D02*
X152619048Y-49840152D01*
X152619048Y-49840152D02*
X152571429Y-49744914D01*
X152571429Y-49744914D02*
X152571429Y-49697295D01*
X152571429Y-49697295D02*
X152619048Y-49602057D01*
X152619048Y-49602057D02*
X152666667Y-49554438D01*
X152666667Y-49554438D02*
X152761905Y-49506819D01*
X152761905Y-49506819D02*
X152952381Y-49506819D01*
X152952381Y-49506819D02*
X153047619Y-49554438D01*
X153047619Y-49554438D02*
X153095238Y-49602057D01*
X153095238Y-49602057D02*
X153142857Y-49697295D01*
X153142857Y-49697295D02*
X153142857Y-49744914D01*
X153142857Y-49744914D02*
X153095238Y-49840152D01*
X153095238Y-49840152D02*
X153047619Y-49887771D01*
X153047619Y-49887771D02*
X152952381Y-49935390D01*
X152952381Y-49935390D02*
X152761905Y-49935390D01*
X152761905Y-49935390D02*
X152666667Y-49983009D01*
X152666667Y-49983009D02*
X152619048Y-50030628D01*
X152619048Y-50030628D02*
X152571429Y-50125866D01*
X152571429Y-50125866D02*
X152571429Y-50316342D01*
X152571429Y-50316342D02*
X152619048Y-50411580D01*
X152619048Y-50411580D02*
X152666667Y-50459200D01*
X152666667Y-50459200D02*
X152761905Y-50506819D01*
X152761905Y-50506819D02*
X152952381Y-50506819D01*
X152952381Y-50506819D02*
X153047619Y-50459200D01*
X153047619Y-50459200D02*
X153095238Y-50411580D01*
X153095238Y-50411580D02*
X153142857Y-50316342D01*
X153142857Y-50316342D02*
X153142857Y-50125866D01*
X153142857Y-50125866D02*
X153095238Y-50030628D01*
X153095238Y-50030628D02*
X153047619Y-49983009D01*
X153047619Y-49983009D02*
X152952381Y-49935390D01*
X140761905Y-88506819D02*
X141333333Y-88506819D01*
X141047619Y-89506819D02*
X141047619Y-88506819D01*
X141666667Y-89506819D02*
X141666667Y-88506819D01*
X141666667Y-88506819D02*
X142047619Y-88506819D01*
X142047619Y-88506819D02*
X142142857Y-88554438D01*
X142142857Y-88554438D02*
X142190476Y-88602057D01*
X142190476Y-88602057D02*
X142238095Y-88697295D01*
X142238095Y-88697295D02*
X142238095Y-88840152D01*
X142238095Y-88840152D02*
X142190476Y-88935390D01*
X142190476Y-88935390D02*
X142142857Y-88983009D01*
X142142857Y-88983009D02*
X142047619Y-89030628D01*
X142047619Y-89030628D02*
X141666667Y-89030628D01*
X142571429Y-88506819D02*
X143190476Y-88506819D01*
X143190476Y-88506819D02*
X142857143Y-88887771D01*
X142857143Y-88887771D02*
X143000000Y-88887771D01*
X143000000Y-88887771D02*
X143095238Y-88935390D01*
X143095238Y-88935390D02*
X143142857Y-88983009D01*
X143142857Y-88983009D02*
X143190476Y-89078247D01*
X143190476Y-89078247D02*
X143190476Y-89316342D01*
X143190476Y-89316342D02*
X143142857Y-89411580D01*
X143142857Y-89411580D02*
X143095238Y-89459200D01*
X143095238Y-89459200D02*
X143000000Y-89506819D01*
X143000000Y-89506819D02*
X142714286Y-89506819D01*
X142714286Y-89506819D02*
X142619048Y-89459200D01*
X142619048Y-89459200D02*
X142571429Y-89411580D01*
X144047619Y-88506819D02*
X143857143Y-88506819D01*
X143857143Y-88506819D02*
X143761905Y-88554438D01*
X143761905Y-88554438D02*
X143714286Y-88602057D01*
X143714286Y-88602057D02*
X143619048Y-88744914D01*
X143619048Y-88744914D02*
X143571429Y-88935390D01*
X143571429Y-88935390D02*
X143571429Y-89316342D01*
X143571429Y-89316342D02*
X143619048Y-89411580D01*
X143619048Y-89411580D02*
X143666667Y-89459200D01*
X143666667Y-89459200D02*
X143761905Y-89506819D01*
X143761905Y-89506819D02*
X143952381Y-89506819D01*
X143952381Y-89506819D02*
X144047619Y-89459200D01*
X144047619Y-89459200D02*
X144095238Y-89411580D01*
X144095238Y-89411580D02*
X144142857Y-89316342D01*
X144142857Y-89316342D02*
X144142857Y-89078247D01*
X144142857Y-89078247D02*
X144095238Y-88983009D01*
X144095238Y-88983009D02*
X144047619Y-88935390D01*
X144047619Y-88935390D02*
X143952381Y-88887771D01*
X143952381Y-88887771D02*
X143761905Y-88887771D01*
X143761905Y-88887771D02*
X143666667Y-88935390D01*
X143666667Y-88935390D02*
X143619048Y-88983009D01*
X143619048Y-88983009D02*
X143571429Y-89078247D01*
X203761905Y-81506819D02*
X204333333Y-81506819D01*
X204047619Y-82506819D02*
X204047619Y-81506819D01*
X204666667Y-82506819D02*
X204666667Y-81506819D01*
X204666667Y-81506819D02*
X205047619Y-81506819D01*
X205047619Y-81506819D02*
X205142857Y-81554438D01*
X205142857Y-81554438D02*
X205190476Y-81602057D01*
X205190476Y-81602057D02*
X205238095Y-81697295D01*
X205238095Y-81697295D02*
X205238095Y-81840152D01*
X205238095Y-81840152D02*
X205190476Y-81935390D01*
X205190476Y-81935390D02*
X205142857Y-81983009D01*
X205142857Y-81983009D02*
X205047619Y-82030628D01*
X205047619Y-82030628D02*
X204666667Y-82030628D01*
X205619048Y-81602057D02*
X205666667Y-81554438D01*
X205666667Y-81554438D02*
X205761905Y-81506819D01*
X205761905Y-81506819D02*
X206000000Y-81506819D01*
X206000000Y-81506819D02*
X206095238Y-81554438D01*
X206095238Y-81554438D02*
X206142857Y-81602057D01*
X206142857Y-81602057D02*
X206190476Y-81697295D01*
X206190476Y-81697295D02*
X206190476Y-81792533D01*
X206190476Y-81792533D02*
X206142857Y-81935390D01*
X206142857Y-81935390D02*
X205571429Y-82506819D01*
X205571429Y-82506819D02*
X206190476Y-82506819D01*
X206666667Y-82506819D02*
X206857143Y-82506819D01*
X206857143Y-82506819D02*
X206952381Y-82459200D01*
X206952381Y-82459200D02*
X207000000Y-82411580D01*
X207000000Y-82411580D02*
X207095238Y-82268723D01*
X207095238Y-82268723D02*
X207142857Y-82078247D01*
X207142857Y-82078247D02*
X207142857Y-81697295D01*
X207142857Y-81697295D02*
X207095238Y-81602057D01*
X207095238Y-81602057D02*
X207047619Y-81554438D01*
X207047619Y-81554438D02*
X206952381Y-81506819D01*
X206952381Y-81506819D02*
X206761905Y-81506819D01*
X206761905Y-81506819D02*
X206666667Y-81554438D01*
X206666667Y-81554438D02*
X206619048Y-81602057D01*
X206619048Y-81602057D02*
X206571429Y-81697295D01*
X206571429Y-81697295D02*
X206571429Y-81935390D01*
X206571429Y-81935390D02*
X206619048Y-82030628D01*
X206619048Y-82030628D02*
X206666667Y-82078247D01*
X206666667Y-82078247D02*
X206761905Y-82125866D01*
X206761905Y-82125866D02*
X206952381Y-82125866D01*
X206952381Y-82125866D02*
X207047619Y-82078247D01*
X207047619Y-82078247D02*
X207095238Y-82030628D01*
X207095238Y-82030628D02*
X207142857Y-81935390D01*
X144964819Y-99563333D02*
X145679104Y-99563333D01*
X145679104Y-99563333D02*
X145821961Y-99610952D01*
X145821961Y-99610952D02*
X145917200Y-99706190D01*
X145917200Y-99706190D02*
X145964819Y-99849047D01*
X145964819Y-99849047D02*
X145964819Y-99944285D01*
X145964819Y-98563333D02*
X145964819Y-99134761D01*
X145964819Y-98849047D02*
X144964819Y-98849047D01*
X144964819Y-98849047D02*
X145107676Y-98944285D01*
X145107676Y-98944285D02*
X145202914Y-99039523D01*
X145202914Y-99039523D02*
X145250533Y-99134761D01*
X169100595Y-79779819D02*
X169100595Y-80589342D01*
X169100595Y-80589342D02*
X169148214Y-80684580D01*
X169148214Y-80684580D02*
X169195833Y-80732200D01*
X169195833Y-80732200D02*
X169291071Y-80779819D01*
X169291071Y-80779819D02*
X169481547Y-80779819D01*
X169481547Y-80779819D02*
X169576785Y-80732200D01*
X169576785Y-80732200D02*
X169624404Y-80684580D01*
X169624404Y-80684580D02*
X169672023Y-80589342D01*
X169672023Y-80589342D02*
X169672023Y-79779819D01*
X170100595Y-79875057D02*
X170148214Y-79827438D01*
X170148214Y-79827438D02*
X170243452Y-79779819D01*
X170243452Y-79779819D02*
X170481547Y-79779819D01*
X170481547Y-79779819D02*
X170576785Y-79827438D01*
X170576785Y-79827438D02*
X170624404Y-79875057D01*
X170624404Y-79875057D02*
X170672023Y-79970295D01*
X170672023Y-79970295D02*
X170672023Y-80065533D01*
X170672023Y-80065533D02*
X170624404Y-80208390D01*
X170624404Y-80208390D02*
X170052976Y-80779819D01*
X170052976Y-80779819D02*
X170672023Y-80779819D01*
X145032142Y-55024819D02*
X144698809Y-54548628D01*
X144460714Y-55024819D02*
X144460714Y-54024819D01*
X144460714Y-54024819D02*
X144841666Y-54024819D01*
X144841666Y-54024819D02*
X144936904Y-54072438D01*
X144936904Y-54072438D02*
X144984523Y-54120057D01*
X144984523Y-54120057D02*
X145032142Y-54215295D01*
X145032142Y-54215295D02*
X145032142Y-54358152D01*
X145032142Y-54358152D02*
X144984523Y-54453390D01*
X144984523Y-54453390D02*
X144936904Y-54501009D01*
X144936904Y-54501009D02*
X144841666Y-54548628D01*
X144841666Y-54548628D02*
X144460714Y-54548628D01*
X145413095Y-54120057D02*
X145460714Y-54072438D01*
X145460714Y-54072438D02*
X145555952Y-54024819D01*
X145555952Y-54024819D02*
X145794047Y-54024819D01*
X145794047Y-54024819D02*
X145889285Y-54072438D01*
X145889285Y-54072438D02*
X145936904Y-54120057D01*
X145936904Y-54120057D02*
X145984523Y-54215295D01*
X145984523Y-54215295D02*
X145984523Y-54310533D01*
X145984523Y-54310533D02*
X145936904Y-54453390D01*
X145936904Y-54453390D02*
X145365476Y-55024819D01*
X145365476Y-55024819D02*
X145984523Y-55024819D01*
X146603571Y-54024819D02*
X146698809Y-54024819D01*
X146698809Y-54024819D02*
X146794047Y-54072438D01*
X146794047Y-54072438D02*
X146841666Y-54120057D01*
X146841666Y-54120057D02*
X146889285Y-54215295D01*
X146889285Y-54215295D02*
X146936904Y-54405771D01*
X146936904Y-54405771D02*
X146936904Y-54643866D01*
X146936904Y-54643866D02*
X146889285Y-54834342D01*
X146889285Y-54834342D02*
X146841666Y-54929580D01*
X146841666Y-54929580D02*
X146794047Y-54977200D01*
X146794047Y-54977200D02*
X146698809Y-55024819D01*
X146698809Y-55024819D02*
X146603571Y-55024819D01*
X146603571Y-55024819D02*
X146508333Y-54977200D01*
X146508333Y-54977200D02*
X146460714Y-54929580D01*
X146460714Y-54929580D02*
X146413095Y-54834342D01*
X146413095Y-54834342D02*
X146365476Y-54643866D01*
X146365476Y-54643866D02*
X146365476Y-54405771D01*
X146365476Y-54405771D02*
X146413095Y-54215295D01*
X146413095Y-54215295D02*
X146460714Y-54120057D01*
X146460714Y-54120057D02*
X146508333Y-54072438D01*
X146508333Y-54072438D02*
X146603571Y-54024819D01*
D12*
%TO.C,U11*%
X182267500Y-75815000D02*
X182027500Y-75485000D01*
X182507500Y-75485000D01*
X182267500Y-75815000D01*
G36*
X182267500Y-75815000D02*
G01*
X182027500Y-75485000D01*
X182507500Y-75485000D01*
X182267500Y-75815000D01*
G37*
X183567500Y-78860000D02*
X184367500Y-78860000D01*
X183567500Y-78860000D02*
X182767500Y-78860000D01*
X183567500Y-75740000D02*
X184367500Y-75740000D01*
X183567500Y-75740000D02*
X182767500Y-75740000D01*
D13*
%TO.C,USBC1*%
X136642800Y-48500000D02*
X138022800Y-48500000D01*
X132894200Y-48500000D02*
X134222700Y-48500000D01*
X139734100Y-49459400D02*
X139734100Y-49640000D01*
X135532100Y-50200900D02*
X138034000Y-50698800D01*
X136832600Y-50500600D02*
X136832600Y-50899400D01*
X135532100Y-50675900D02*
X135532100Y-50200900D01*
X138034000Y-50698800D02*
X138034000Y-51999200D01*
X137632700Y-51077200D02*
X135532100Y-50675900D01*
X137632700Y-51605500D02*
X137632700Y-51077200D01*
X136832900Y-51800000D02*
X136832900Y-52200000D01*
X138034000Y-51999200D02*
X135532100Y-52499600D01*
X135532100Y-52004300D02*
X137632700Y-51605500D01*
X135532100Y-52499600D02*
X135532100Y-52004300D01*
X135537200Y-53477700D02*
X138039100Y-53975500D01*
X136837700Y-53777400D02*
X136837700Y-54176200D01*
X135537200Y-53952700D02*
X135537200Y-53477700D01*
X138039100Y-53975500D02*
X138039100Y-55276000D01*
X137637800Y-54354000D02*
X135537200Y-53952700D01*
X137637800Y-54882300D02*
X137637800Y-54354000D01*
X136838000Y-55076800D02*
X136838000Y-55476800D01*
X138039100Y-55276000D02*
X135537200Y-55776400D01*
X135537200Y-55281100D02*
X137637800Y-54882300D01*
X135537200Y-55776400D02*
X135537200Y-55281100D01*
X139774200Y-56360000D02*
X139774200Y-56544300D01*
X138018400Y-57480000D02*
X136647300Y-57480000D01*
X134218300Y-57480000D02*
X132894200Y-57480000D01*
X132894200Y-57480000D02*
X132894200Y-48500000D01*
D12*
%TO.C,C3*%
X156288748Y-51410000D02*
X157711252Y-51410000D01*
X156288748Y-49590000D02*
X157711252Y-49590000D01*
%TO.C,R12*%
X142087742Y-97977500D02*
X142562258Y-97977500D01*
X142087742Y-99022500D02*
X142562258Y-99022500D01*
%TO.C,R_normalcharging1*%
X137587742Y-89022500D02*
X138062258Y-89022500D01*
X137587742Y-87977500D02*
X138062258Y-87977500D01*
%TO.C,R6*%
X170087742Y-64522500D02*
X170562258Y-64522500D01*
X170087742Y-63477500D02*
X170562258Y-63477500D01*
%TO.C,C13*%
X147288748Y-77090000D02*
X148711252Y-77090000D01*
X147288748Y-78910000D02*
X148711252Y-78910000D01*
%TO.C,C25*%
X151711252Y-68410000D02*
X150288748Y-68410000D01*
X151711252Y-66590000D02*
X150288748Y-66590000D01*
%TO.C,C20*%
X197736252Y-64910000D02*
X196313748Y-64910000D01*
X197736252Y-63090000D02*
X196313748Y-63090000D01*
%TO.C,SW3*%
X204860000Y-57390000D02*
X202140000Y-57390000D01*
X202140000Y-67610000D01*
X204860000Y-67610000D01*
X204860000Y-57390000D01*
%TO.C,Rfastcharge1*%
X132356359Y-85880000D02*
X132663641Y-85880000D01*
X132356359Y-85120000D02*
X132663641Y-85120000D01*
D13*
%TO.C,U10*%
X144101000Y-51134000D02*
G75*
G02*
X143851000Y-51134000I-125000J0D01*
G01*
X143851000Y-51134000D02*
G75*
G02*
X144101000Y-51134000I125000J0D01*
G01*
X146500000Y-53206100D02*
X146500000Y-53250000D01*
X146500000Y-51050000D02*
X146500000Y-51093800D01*
X144499900Y-53250000D02*
X146500000Y-53250000D01*
X144499900Y-51050000D02*
X146500000Y-51050000D01*
X144483900Y-53206100D02*
X144483900Y-53250000D01*
D12*
%TO.C,TP37*%
X143200000Y-91200000D02*
X141800000Y-91200000D01*
X143200000Y-89800000D02*
X143200000Y-91200000D01*
X141800000Y-91200000D02*
X141800000Y-89800000D01*
X141800000Y-89800000D02*
X143200000Y-89800000D01*
%TO.C,J3*%
X206410000Y-48940000D02*
X198590000Y-48940000D01*
X200190000Y-48940000D02*
X200190000Y-49860000D01*
X198590000Y-48940000D02*
X198590000Y-49860000D01*
X204150000Y-49700000D02*
X204150000Y-50700000D01*
X202550000Y-49700000D02*
X204150000Y-49700000D01*
X200190000Y-49860000D02*
X200190000Y-50140000D01*
X198590000Y-49860000D02*
X200190000Y-49860000D01*
X204150000Y-50700000D02*
X202550000Y-50700000D01*
X202550000Y-50700000D02*
X202550000Y-49700000D01*
X202050000Y-51500000D02*
X206410000Y-51500000D01*
X206410000Y-52500000D02*
X202050000Y-52500000D01*
X202050000Y-52500000D02*
X202050000Y-51500000D01*
X204150000Y-53300000D02*
X206410000Y-53300000D01*
X204150000Y-53300000D02*
X202550000Y-53300000D01*
X202550000Y-53300000D02*
X202550000Y-54300000D01*
X204150000Y-53800000D02*
X206410000Y-53800000D01*
X200190000Y-53860000D02*
X198975000Y-53860000D01*
X200190000Y-53860000D02*
X200190000Y-54140000D01*
X200190000Y-54140000D02*
X198590000Y-54140000D01*
X198590000Y-54140000D02*
X198590000Y-55060000D01*
X204150000Y-54300000D02*
X204150000Y-53300000D01*
X202550000Y-54300000D02*
X204150000Y-54300000D01*
X206410000Y-55060000D02*
X206410000Y-48940000D01*
X200190000Y-55060000D02*
X200190000Y-54140000D01*
X198590000Y-55060000D02*
X206410000Y-55060000D01*
%TO.C,U13*%
X190137500Y-60890000D02*
X189337500Y-60890000D01*
X190137500Y-60890000D02*
X190937500Y-60890000D01*
X190137500Y-64010000D02*
X189337500Y-64010000D01*
X190137500Y-64010000D02*
X190937500Y-64010000D01*
X188837500Y-60940000D02*
X188597500Y-60610000D01*
X189077500Y-60610000D01*
X188837500Y-60940000D01*
G36*
X188837500Y-60940000D02*
G01*
X188597500Y-60610000D01*
X189077500Y-60610000D01*
X188837500Y-60940000D01*
G37*
%TO.C,U9*%
X149000000Y-70940000D02*
X148200000Y-70940000D01*
X149000000Y-70940000D02*
X149800000Y-70940000D01*
X149000000Y-74060000D02*
X148200000Y-74060000D01*
X149000000Y-74060000D02*
X149800000Y-74060000D01*
X147700000Y-70990000D02*
X147460000Y-70660000D01*
X147940000Y-70660000D01*
X147700000Y-70990000D01*
G36*
X147700000Y-70990000D02*
G01*
X147460000Y-70660000D01*
X147940000Y-70660000D01*
X147700000Y-70990000D01*
G37*
%TO.C,U8*%
X181862500Y-60940000D02*
X181062500Y-60940000D01*
X181862500Y-60940000D02*
X182662500Y-60940000D01*
X181862500Y-64060000D02*
X181062500Y-64060000D01*
X181862500Y-64060000D02*
X182662500Y-64060000D01*
X180562500Y-60990000D02*
X180322500Y-60660000D01*
X180802500Y-60660000D01*
X180562500Y-60990000D01*
G36*
X180562500Y-60990000D02*
G01*
X180322500Y-60660000D01*
X180802500Y-60660000D01*
X180562500Y-60990000D01*
G37*
D13*
%TO.C,U7*%
X155600000Y-86450100D02*
X157400000Y-86450100D01*
X155600000Y-89550100D02*
X157400000Y-89550100D01*
X158024000Y-89651000D02*
G75*
G02*
X157770000Y-89651000I-127000J0D01*
G01*
X157770000Y-89651000D02*
G75*
G02*
X158024000Y-89651000I127000J0D01*
G01*
%TO.C,U5*%
X157950000Y-78000100D02*
X159750000Y-78000100D01*
X157950000Y-81100100D02*
X159750000Y-81100100D01*
X160374000Y-81201000D02*
G75*
G02*
X160120000Y-81201000I-127000J0D01*
G01*
X160120000Y-81201000D02*
G75*
G02*
X160374000Y-81201000I127000J0D01*
G01*
%TO.C,U3*%
X137250000Y-92400100D02*
X139050000Y-92400100D01*
X137250000Y-95500100D02*
X139050000Y-95500100D01*
X139674000Y-95601000D02*
G75*
G02*
X139420000Y-95601000I-127000J0D01*
G01*
X139420000Y-95601000D02*
G75*
G02*
X139674000Y-95601000I127000J0D01*
G01*
D12*
%TO.C,U1*%
X192750000Y-82740000D02*
X190550000Y-82740000D01*
X192750000Y-82740000D02*
X194950000Y-82740000D01*
X192750000Y-88260000D02*
X190550000Y-88260000D01*
X192750000Y-88260000D02*
X194950000Y-88260000D01*
X188840000Y-83225000D02*
X188510000Y-83465000D01*
X188510000Y-82985000D01*
X188840000Y-83225000D01*
G36*
X188840000Y-83225000D02*
G01*
X188510000Y-83465000D01*
X188510000Y-82985000D01*
X188840000Y-83225000D01*
G37*
%TO.C,TP30*%
X191800000Y-97800000D02*
X193200000Y-97800000D01*
X191800000Y-99200000D02*
X191800000Y-97800000D01*
X193200000Y-97800000D02*
X193200000Y-99200000D01*
X193200000Y-99200000D02*
X191800000Y-99200000D01*
%TO.C,TP26*%
X161300000Y-64800000D02*
X162700000Y-64800000D01*
X161300000Y-66200000D02*
X161300000Y-64800000D01*
X162700000Y-64800000D02*
X162700000Y-66200000D01*
X162700000Y-66200000D02*
X161300000Y-66200000D01*
%TO.C,R19*%
X189272936Y-66590000D02*
X190727064Y-66590000D01*
X189272936Y-68410000D02*
X190727064Y-68410000D01*
%TO.C,R18*%
X198237258Y-79022500D02*
X197762742Y-79022500D01*
X198237258Y-77977500D02*
X197762742Y-77977500D01*
%TO.C,R17*%
X153762742Y-76477500D02*
X154237258Y-76477500D01*
X153762742Y-77522500D02*
X154237258Y-77522500D01*
%TO.C,R16*%
X149022500Y-88587742D02*
X149022500Y-89062258D01*
X147977500Y-88587742D02*
X147977500Y-89062258D01*
%TO.C,R14*%
X150087742Y-94477500D02*
X150562258Y-94477500D01*
X150087742Y-95522500D02*
X150562258Y-95522500D01*
%TO.C,R13*%
X144022500Y-83762742D02*
X144022500Y-84237258D01*
X142977500Y-83762742D02*
X142977500Y-84237258D01*
%TO.C,R11*%
X132587742Y-75477500D02*
X133062258Y-75477500D01*
X132587742Y-76522500D02*
X133062258Y-76522500D01*
%TO.C,R8*%
X160262742Y-72477500D02*
X160737258Y-72477500D01*
X160262742Y-73522500D02*
X160737258Y-73522500D01*
%TO.C,R7*%
X165587742Y-70477500D02*
X166062258Y-70477500D01*
X165587742Y-71522500D02*
X166062258Y-71522500D01*
%TO.C,R5*%
X177587742Y-76477500D02*
X178062258Y-76477500D01*
X177587742Y-77522500D02*
X178062258Y-77522500D01*
%TO.C,R4*%
X177087742Y-91477500D02*
X177562258Y-91477500D01*
X177087742Y-92522500D02*
X177562258Y-92522500D01*
%TO.C,R3*%
X174245242Y-49732500D02*
X174719758Y-49732500D01*
X174245242Y-50777500D02*
X174719758Y-50777500D01*
%TO.C,R1*%
X189772936Y-71590000D02*
X191227064Y-71590000D01*
X189772936Y-73410000D02*
X191227064Y-73410000D01*
D14*
%TO.C,Q2*%
X148273800Y-81473800D02*
X148273800Y-82505400D01*
X148273800Y-84526200D02*
X148273800Y-83494600D01*
X149726200Y-81473800D02*
X148273800Y-81473800D01*
X149726200Y-82544600D02*
X149726200Y-83455400D01*
X149726200Y-84526200D02*
X148273800Y-84526200D01*
D12*
%TO.C,L1*%
X186800000Y-56200000D02*
X180200000Y-56200000D01*
X186800000Y-54500000D02*
X186800000Y-56200000D01*
X186800000Y-49800000D02*
X186800000Y-51500000D01*
X180200000Y-56200000D02*
X180200000Y-54500000D01*
X180200000Y-51500000D02*
X180200000Y-49800000D01*
X180200000Y-49800000D02*
X186800000Y-49800000D01*
%TO.C,C24*%
X191788748Y-52090000D02*
X193211252Y-52090000D01*
X191788748Y-53910000D02*
X193211252Y-53910000D01*
%TO.C,C23*%
X177711252Y-58410000D02*
X176288748Y-58410000D01*
X177711252Y-56590000D02*
X176288748Y-56590000D01*
%TO.C,C22*%
X169788748Y-56090000D02*
X171211252Y-56090000D01*
X169788748Y-57910000D02*
X171211252Y-57910000D01*
%TO.C,C21*%
X143288748Y-66590000D02*
X144711252Y-66590000D01*
X143288748Y-68410000D02*
X144711252Y-68410000D01*
%TO.C,C19*%
X168941248Y-49765000D02*
X170363752Y-49765000D01*
X168941248Y-51585000D02*
X170363752Y-51585000D01*
%TO.C,C17*%
X154788748Y-70590000D02*
X156211252Y-70590000D01*
X154788748Y-72410000D02*
X156211252Y-72410000D01*
%TO.C,C16*%
X161788748Y-56590000D02*
X163211252Y-56590000D01*
X161788748Y-58410000D02*
X163211252Y-58410000D01*
%TO.C,C12*%
X154788748Y-62590000D02*
X156211252Y-62590000D01*
X154788748Y-64410000D02*
X156211252Y-64410000D01*
%TO.C,C11*%
X146313748Y-58590000D02*
X147736252Y-58590000D01*
X146313748Y-60410000D02*
X147736252Y-60410000D01*
%TO.C,C10*%
X142686252Y-77910000D02*
X141263748Y-77910000D01*
X142686252Y-76090000D02*
X141263748Y-76090000D01*
%TO.C,C9*%
X135288748Y-80590000D02*
X136711252Y-80590000D01*
X135288748Y-82410000D02*
X136711252Y-82410000D01*
%TO.C,C8*%
X146788748Y-62590000D02*
X148211252Y-62590000D01*
X146788748Y-64410000D02*
X148211252Y-64410000D01*
%TO.C,C6*%
X134788748Y-69090000D02*
X136211252Y-69090000D01*
X134788748Y-70910000D02*
X136211252Y-70910000D01*
%TO.C,C5*%
X174788748Y-69090000D02*
X176211252Y-69090000D01*
X174788748Y-70910000D02*
X176211252Y-70910000D01*
%TO.C,C4*%
X136288748Y-62090000D02*
X137711252Y-62090000D01*
X136288748Y-63910000D02*
X137711252Y-63910000D01*
%TO.C,C2*%
X182763748Y-67590000D02*
X184186252Y-67590000D01*
X182763748Y-69410000D02*
X184186252Y-69410000D01*
%TO.C,C1*%
X202211252Y-75910000D02*
X200788748Y-75910000D01*
X202211252Y-74090000D02*
X200788748Y-74090000D01*
%TO.C,TP38*%
X150800000Y-50800000D02*
X152200000Y-50800000D01*
X150800000Y-52200000D02*
X150800000Y-50800000D01*
X152200000Y-50800000D02*
X152200000Y-52200000D01*
X152200000Y-52200000D02*
X150800000Y-52200000D01*
%TO.C,TP36*%
X141800000Y-89800000D02*
X143200000Y-89800000D01*
X141800000Y-91200000D02*
X141800000Y-89800000D01*
X143200000Y-89800000D02*
X143200000Y-91200000D01*
X143200000Y-91200000D02*
X141800000Y-91200000D01*
%TO.C,TP29*%
X204800000Y-82800000D02*
X206200000Y-82800000D01*
X204800000Y-84200000D02*
X204800000Y-82800000D01*
X206200000Y-82800000D02*
X206200000Y-84200000D01*
X206200000Y-84200000D02*
X204800000Y-84200000D01*
%TO.C,J1*%
X188110000Y-104370000D02*
X188110000Y-103040000D01*
X186780000Y-104370000D02*
X188110000Y-104370000D01*
X185510000Y-104370000D02*
X147350000Y-104370000D01*
X185510000Y-104370000D02*
X185510000Y-101770000D01*
X147350000Y-104370000D02*
X147350000Y-99170000D01*
X188110000Y-101770000D02*
X188110000Y-99170000D01*
X185510000Y-101770000D02*
X188110000Y-101770000D01*
X188110000Y-99170000D02*
X147350000Y-99170000D01*
%TO.C,U2*%
X169862500Y-81015000D02*
X167662500Y-81015000D01*
X169862500Y-81015000D02*
X172062500Y-81015000D01*
X169862500Y-86535000D02*
X167662500Y-86535000D01*
X169862500Y-86535000D02*
X172062500Y-86535000D01*
X165952500Y-81500000D02*
X165622500Y-81740000D01*
X165622500Y-81260000D01*
X165952500Y-81500000D01*
G36*
X165952500Y-81500000D02*
G01*
X165622500Y-81740000D01*
X165622500Y-81260000D01*
X165952500Y-81500000D01*
G37*
%TO.C,R20*%
X145437742Y-55477500D02*
X145912258Y-55477500D01*
X145437742Y-56522500D02*
X145912258Y-56522500D01*
%TD*%
%LPC*%
D15*
%TO.C,U11*%
X184705000Y-76325000D03*
X184705000Y-76975000D03*
X184705000Y-77625000D03*
X184705000Y-78275000D03*
X182430000Y-78275000D03*
X182430000Y-77625000D03*
X182430000Y-76975000D03*
X182430000Y-76325000D03*
%TD*%
D16*
%TO.C,USBC1*%
X139232900Y-48680000D03*
X135432800Y-48680000D03*
X139232900Y-57320000D03*
X135432800Y-57320000D03*
D17*
X139231400Y-52500100D03*
D18*
X139232900Y-51480100D03*
D19*
X139233600Y-50300000D03*
D17*
X139231400Y-53500100D03*
D18*
X139235400Y-54519900D03*
D19*
X139233600Y-55700000D03*
%TD*%
D20*
%TO.C,C3*%
X158475000Y-50500000D03*
X155525000Y-50500000D03*
%TD*%
D21*
%TO.C,R12*%
X141500000Y-98500000D03*
X143150000Y-98500000D03*
%TD*%
%TO.C,R_normalcharging1*%
X138650000Y-88500000D03*
X137000000Y-88500000D03*
%TD*%
%TO.C,R6*%
X171150000Y-64000000D03*
X169500000Y-64000000D03*
%TD*%
D20*
%TO.C,C13*%
X146525000Y-78000000D03*
X149475000Y-78000000D03*
%TD*%
D22*
%TO.C,C25*%
X152475000Y-67500000D03*
X149525000Y-67500000D03*
%TD*%
%TO.C,C20*%
X198500000Y-64000000D03*
X195550000Y-64000000D03*
%TD*%
D23*
%TO.C,SW3*%
X203500000Y-65040000D03*
X203500000Y-59960000D03*
D24*
X203500000Y-62500000D03*
%TD*%
D25*
%TO.C,Rfastcharge1*%
X133020000Y-85500000D03*
X132000000Y-85500000D03*
%TD*%
D26*
%TO.C,U10*%
X145500000Y-52150000D03*
D27*
X146500000Y-51500000D03*
X146500000Y-52150000D03*
X146500000Y-52800000D03*
X144500000Y-52800000D03*
X144500000Y-52150000D03*
X144500000Y-51500000D03*
%TD*%
D28*
%TO.C,TP37*%
X142500000Y-90500000D03*
%TD*%
D29*
%TO.C,J3*%
X200050000Y-51000000D03*
D30*
X200050000Y-53000000D03*
%TD*%
D31*
%TO.C,U13*%
X189000000Y-61500000D03*
X189000000Y-62450000D03*
X189000000Y-63400000D03*
X191275000Y-63400000D03*
X191275000Y-61500000D03*
%TD*%
%TO.C,U9*%
X147862500Y-71550000D03*
X147862500Y-72500000D03*
X147862500Y-73450000D03*
X150137500Y-73450000D03*
X150137500Y-71550000D03*
%TD*%
%TO.C,U8*%
X180725000Y-61550000D03*
X180725000Y-63450000D03*
X183000000Y-62500000D03*
%TD*%
D32*
%TO.C,U7*%
X157850000Y-88950000D03*
X157850000Y-88000000D03*
X157850000Y-87050000D03*
X155150000Y-87050000D03*
X155150000Y-88000000D03*
X155150000Y-88950000D03*
%TD*%
%TO.C,U5*%
X160200000Y-80500000D03*
X160200000Y-79550000D03*
X160200000Y-78600000D03*
X157500000Y-78600000D03*
X157500000Y-79550000D03*
X157500000Y-80500000D03*
%TD*%
%TO.C,U3*%
X139500000Y-94900000D03*
X139500000Y-93950000D03*
X139500000Y-93000000D03*
X136800000Y-93000000D03*
X136800000Y-93950000D03*
X136800000Y-94900000D03*
%TD*%
D33*
%TO.C,U1*%
X192750000Y-85500000D03*
D34*
X189887500Y-83225000D03*
X189887500Y-83875000D03*
X189887500Y-84525000D03*
X189887500Y-85175000D03*
X189887500Y-85825000D03*
X189887500Y-86475000D03*
X189887500Y-87125000D03*
X189887500Y-87775000D03*
X195612500Y-87775000D03*
X195612500Y-87125000D03*
X195612500Y-86475000D03*
X195612500Y-85825000D03*
X195612500Y-85175000D03*
X195612500Y-84525000D03*
X195612500Y-83875000D03*
X195612500Y-83225000D03*
%TD*%
D28*
%TO.C,TP30*%
X192500000Y-98500000D03*
%TD*%
%TO.C,TP26*%
X162000000Y-65500000D03*
%TD*%
D35*
%TO.C,R19*%
X188537500Y-67500000D03*
X191462500Y-67500000D03*
%TD*%
D36*
%TO.C,R18*%
X198825000Y-78500000D03*
X197175000Y-78500000D03*
%TD*%
D21*
%TO.C,R17*%
X153175000Y-77000000D03*
X154825000Y-77000000D03*
%TD*%
D37*
%TO.C,R16*%
X148500000Y-88000000D03*
X148500000Y-89650000D03*
%TD*%
D21*
%TO.C,R14*%
X149500000Y-95000000D03*
X151150000Y-95000000D03*
%TD*%
D37*
%TO.C,R13*%
X143500000Y-83175000D03*
X143500000Y-84825000D03*
%TD*%
D21*
%TO.C,R11*%
X132000000Y-76000000D03*
X133650000Y-76000000D03*
%TD*%
%TO.C,R8*%
X159675000Y-73000000D03*
X161325000Y-73000000D03*
%TD*%
%TO.C,R7*%
X165000000Y-71000000D03*
X166650000Y-71000000D03*
%TD*%
%TO.C,R5*%
X177000000Y-77000000D03*
X178650000Y-77000000D03*
%TD*%
%TO.C,R4*%
X176500000Y-92000000D03*
X178150000Y-92000000D03*
%TD*%
%TO.C,R3*%
X173657500Y-50255000D03*
X175307500Y-50255000D03*
%TD*%
D35*
%TO.C,R1*%
X189037500Y-72500000D03*
X191962500Y-72500000D03*
%TD*%
D38*
%TO.C,Q2*%
X150000000Y-83950000D03*
X150000000Y-82050000D03*
X148000000Y-83000000D03*
%TD*%
D39*
%TO.C,L1*%
X186250000Y-53000000D03*
X180750000Y-53000000D03*
%TD*%
D20*
%TO.C,C24*%
X191025000Y-53000000D03*
X193975000Y-53000000D03*
%TD*%
D22*
%TO.C,C23*%
X178475000Y-57500000D03*
X175525000Y-57500000D03*
%TD*%
D20*
%TO.C,C22*%
X169025000Y-57000000D03*
X171975000Y-57000000D03*
%TD*%
%TO.C,C21*%
X142525000Y-67500000D03*
X145475000Y-67500000D03*
%TD*%
%TO.C,C19*%
X168177500Y-50675000D03*
X171127500Y-50675000D03*
%TD*%
%TO.C,C17*%
X154025000Y-71500000D03*
X156975000Y-71500000D03*
%TD*%
%TO.C,C16*%
X161025000Y-57500000D03*
X163975000Y-57500000D03*
%TD*%
%TO.C,C12*%
X154025000Y-63500000D03*
X156975000Y-63500000D03*
%TD*%
%TO.C,C11*%
X145550000Y-59500000D03*
X148500000Y-59500000D03*
%TD*%
D22*
%TO.C,C10*%
X143450000Y-77000000D03*
X140500000Y-77000000D03*
%TD*%
D20*
%TO.C,C9*%
X134525000Y-81500000D03*
X137475000Y-81500000D03*
%TD*%
%TO.C,C8*%
X146025000Y-63500000D03*
X148975000Y-63500000D03*
%TD*%
%TO.C,C6*%
X134025000Y-70000000D03*
X136975000Y-70000000D03*
%TD*%
%TO.C,C5*%
X174025000Y-70000000D03*
X176975000Y-70000000D03*
%TD*%
%TO.C,C4*%
X135525000Y-63000000D03*
X138475000Y-63000000D03*
%TD*%
%TO.C,C2*%
X182000000Y-68500000D03*
X184950000Y-68500000D03*
%TD*%
D22*
%TO.C,C1*%
X202975000Y-75000000D03*
X200025000Y-75000000D03*
%TD*%
D28*
%TO.C,TP38*%
X151500000Y-51500000D03*
%TD*%
%TO.C,TP36*%
X142500000Y-90500000D03*
%TD*%
%TO.C,TP29*%
X205500000Y-83500000D03*
%TD*%
D40*
%TO.C,J1*%
X186780000Y-103040000D03*
D41*
X186780000Y-100500000D03*
X184240000Y-103040000D03*
X184240000Y-100500000D03*
X181700000Y-103040000D03*
X181700000Y-100500000D03*
X179160000Y-103040000D03*
X179160000Y-100500000D03*
X176620000Y-103040000D03*
X176620000Y-100500000D03*
X174080000Y-103040000D03*
X174080000Y-100500000D03*
X171540000Y-103040000D03*
X171540000Y-100500000D03*
X169000000Y-103040000D03*
X169000000Y-100500000D03*
X166460000Y-103040000D03*
X166460000Y-100500000D03*
X163920000Y-103040000D03*
X163920000Y-100500000D03*
X161380000Y-103040000D03*
X161380000Y-100500000D03*
X158840000Y-103040000D03*
X158840000Y-100500000D03*
X156300000Y-103040000D03*
X156300000Y-100500000D03*
X153760000Y-103040000D03*
X153760000Y-100500000D03*
X151220000Y-103040000D03*
X151220000Y-100500000D03*
X148680000Y-103040000D03*
X148680000Y-100500000D03*
%TD*%
D33*
%TO.C,U2*%
X169862500Y-83775000D03*
D34*
X167000000Y-81500000D03*
X167000000Y-82150000D03*
X167000000Y-82800000D03*
X167000000Y-83450000D03*
X167000000Y-84100000D03*
X167000000Y-84750000D03*
X167000000Y-85400000D03*
X167000000Y-86050000D03*
X172725000Y-86050000D03*
X172725000Y-85400000D03*
X172725000Y-84750000D03*
X172725000Y-84100000D03*
X172725000Y-83450000D03*
X172725000Y-82800000D03*
X172725000Y-82150000D03*
X172725000Y-81500000D03*
%TD*%
D21*
%TO.C,R20*%
X144850000Y-56000000D03*
X146500000Y-56000000D03*
%TD*%
%LPD*%
M02*
