%TF.GenerationSoftware,KiCad,Pcbnew,9.0.0*%
%TF.CreationDate,2025-03-28T13:41:41+02:00*%
%TF.ProjectId,Project Design,50726f6a-6563-4742-9044-657369676e2e,rev?*%
%TF.SameCoordinates,Original*%
%TF.FileFunction,Copper,L2,Bot*%
%TF.FilePolarity,Positive*%
%FSLAX46Y46*%
G04 Gerber Fmt 4.6, Leading zero omitted, Abs format (unit mm)*
G04 Created by KiCad (PCBNEW 9.0.0) date 2025-03-28 13:41:41*
%MOMM*%
%LPD*%
G01*
G04 APERTURE LIST*
G04 Aperture macros list*
%AMRoundRect*
0 Rectangle with rounded corners*
0 $1 Rounding radius*
0 $2 $3 $4 $5 $6 $7 $8 $9 X,Y pos of 4 corners*
0 Add a 4 corners polygon primitive as box body*
4,1,4,$2,$3,$4,$5,$6,$7,$8,$9,$2,$3,0*
0 Add four circle primitives for the rounded corners*
1,1,$1+$1,$2,$3*
1,1,$1+$1,$4,$5*
1,1,$1+$1,$6,$7*
1,1,$1+$1,$8,$9*
0 Add four rect primitives between the rounded corners*
20,1,$1+$1,$2,$3,$4,$5,0*
20,1,$1+$1,$4,$5,$6,$7,0*
20,1,$1+$1,$6,$7,$8,$9,0*
20,1,$1+$1,$8,$9,$2,$3,0*%
G04 Aperture macros list end*
%TA.AperFunction,ComponentPad*%
%ADD10O,2.000000X1.100000*%
%TD*%
%TA.AperFunction,ComponentPad*%
%ADD11C,1.600000*%
%TD*%
%TA.AperFunction,ComponentPad*%
%ADD12R,1.500000X1.500000*%
%TD*%
%TA.AperFunction,ComponentPad*%
%ADD13O,1.750000X1.200000*%
%TD*%
%TA.AperFunction,ComponentPad*%
%ADD14RoundRect,0.250000X0.625000X-0.350000X0.625000X0.350000X-0.625000X0.350000X-0.625000X-0.350000X0*%
%TD*%
%TA.AperFunction,HeatsinkPad*%
%ADD15C,0.500000*%
%TD*%
%TA.AperFunction,HeatsinkPad*%
%ADD16R,2.000000X3.500000*%
%TD*%
%TA.AperFunction,ComponentPad*%
%ADD17R,1.700000X1.700000*%
%TD*%
%TA.AperFunction,ComponentPad*%
%ADD18O,1.700000X1.700000*%
%TD*%
%TA.AperFunction,ViaPad*%
%ADD19C,0.800000*%
%TD*%
%TA.AperFunction,Conductor*%
%ADD20C,0.250000*%
%TD*%
%TA.AperFunction,Conductor*%
%ADD21C,0.200000*%
%TD*%
G04 APERTURE END LIST*
D10*
%TO.P,USBC1,0,0*%
%TO.N,unconnected-(USBC1-Pad0)_2*%
X139232900Y-48680000D03*
%TO.N,unconnected-(USBC1-Pad0)*%
X135432800Y-48680000D03*
%TO.N,unconnected-(USBC1-Pad0)_3*%
X139232900Y-57320000D03*
%TO.N,unconnected-(USBC1-Pad0)_1*%
X135432800Y-57320000D03*
%TD*%
D11*
%TO.P,SW3,3,A*%
%TO.N,Net-(SW3-A)*%
X203500000Y-65040000D03*
%TO.P,SW3,2,C*%
%TO.N,unconnected-(SW3-C-Pad2)*%
X203500000Y-59960000D03*
D12*
%TO.P,SW3,1,B*%
%TO.N,/Vbat+*%
X203500000Y-62500000D03*
%TD*%
D13*
%TO.P,J3,2,Pin_2*%
%TO.N,/Vbat+*%
X200050000Y-51000000D03*
D14*
%TO.P,J3,1,Pin_1*%
%TO.N,GND*%
X200050000Y-53000000D03*
%TD*%
D15*
%TO.P,U1,17,GND(PPAD)*%
%TO.N,GND*%
X192000000Y-84000000D03*
X192000000Y-85500000D03*
X192000000Y-87000000D03*
D16*
X192750000Y-85500000D03*
D15*
X193500000Y-84000000D03*
X193500000Y-85500000D03*
X193500000Y-87000000D03*
%TD*%
D17*
%TO.P,J1,1,Pin_1*%
%TO.N,/Mtr2 O2*%
X186780000Y-103040000D03*
D18*
%TO.P,J1,2,Pin_2*%
%TO.N,/Mtr2 O1*%
X186780000Y-100500000D03*
%TO.P,J1,3,Pin_3*%
%TO.N,/Mtr4 O1*%
X184240000Y-103040000D03*
%TO.P,J1,4,Pin_4*%
%TO.N,/Mtr2 C1*%
X184240000Y-100500000D03*
%TO.P,J1,5,Pin_5*%
%TO.N,/Mtr4 O2*%
X181700000Y-103040000D03*
%TO.P,J1,6,Pin_6*%
%TO.N,/Mtr2 C2*%
X181700000Y-100500000D03*
%TO.P,J1,7,Pin_7*%
%TO.N,/ex ctrl2*%
X179160000Y-103040000D03*
%TO.P,J1,8,Pin_8*%
%TO.N,/Mtr4 C1*%
X179160000Y-100500000D03*
%TO.P,J1,9,Pin_9*%
%TO.N,/USART2_TX*%
X176620000Y-103040000D03*
%TO.P,J1,10,Pin_10*%
%TO.N,/Mtr4 C2*%
X176620000Y-100500000D03*
%TO.P,J1,11,Pin_11*%
%TO.N,/out2*%
X174080000Y-103040000D03*
%TO.P,J1,12,Pin_12*%
%TO.N,unconnected-(J1-Pin_12-Pad12)*%
X174080000Y-100500000D03*
%TO.P,J1,13,Pin_13*%
%TO.N,/Fast charge CTR*%
X171540000Y-103040000D03*
%TO.P,J1,14,Pin_14*%
%TO.N,/V+*%
X171540000Y-100500000D03*
%TO.P,J1,15,Pin_15*%
%TO.N,unconnected-(J1-Pin_15-Pad15)*%
X169000000Y-103040000D03*
%TO.P,J1,16,Pin_16*%
%TO.N,/I2C1_SCL*%
X169000000Y-100500000D03*
%TO.P,J1,17,Pin_17*%
%TO.N,/I2C1_SDA*%
X166460000Y-103040000D03*
%TO.P,J1,18,Pin_18*%
%TO.N,/3V3*%
X166460000Y-100500000D03*
%TO.P,J1,19,Pin_19*%
%TO.N,GND*%
X163920000Y-103040000D03*
%TO.P,J1,20,Pin_20*%
%TO.N,/5V*%
X163920000Y-100500000D03*
%TO.P,J1,21,Pin_21*%
%TO.N,/out1*%
X161380000Y-103040000D03*
%TO.P,J1,22,Pin_22*%
%TO.N,/9V*%
X161380000Y-100500000D03*
%TO.P,J1,23,Pin_23*%
%TO.N,GND*%
X158840000Y-103040000D03*
%TO.P,J1,24,Pin_24*%
%TO.N,/Mtr3 C1*%
X158840000Y-100500000D03*
%TO.P,J1,25,Pin_25*%
%TO.N,/ex ctrl1*%
X156300000Y-103040000D03*
%TO.P,J1,26,Pin_26*%
%TO.N,/Mtr3 C2*%
X156300000Y-100500000D03*
%TO.P,J1,27,Pin_27*%
%TO.N,/Mtr3 O1*%
X153760000Y-103040000D03*
%TO.P,J1,28,Pin_28*%
%TO.N,/Mtr1 C1*%
X153760000Y-100500000D03*
%TO.P,J1,29,Pin_29*%
%TO.N,/Mtr3 O2*%
X151220000Y-103040000D03*
%TO.P,J1,30,Pin_30*%
%TO.N,/Mtr1 C2*%
X151220000Y-100500000D03*
%TO.P,J1,31,Pin_31*%
%TO.N,/Mtr1 O2*%
X148680000Y-103040000D03*
%TO.P,J1,32,Pin_32*%
%TO.N,/Mtr1 O1*%
X148680000Y-100500000D03*
%TD*%
D15*
%TO.P,U2,17,GND(PPAD)*%
%TO.N,GND*%
X169112500Y-82275000D03*
X169112500Y-83775000D03*
X169112500Y-85275000D03*
D16*
X169862500Y-83775000D03*
D15*
X170612500Y-82275000D03*
X170612500Y-83775000D03*
X170612500Y-85275000D03*
%TD*%
D19*
%TO.N,Net-(U2-VCP)*%
X172211500Y-61500000D03*
%TO.N,/V+*%
X200500000Y-80500000D03*
X200500000Y-80500000D03*
X201000000Y-92000000D03*
%TO.N,Net-(U11-IN+)*%
X189500000Y-78500000D03*
X181000000Y-75000000D03*
X181000000Y-75000000D03*
%TO.N,Net-(SW3-A)*%
X157259000Y-77000000D03*
X157259000Y-86120500D03*
X159538900Y-74720100D03*
%TO.N,Net-(U10-CC2)*%
X142699400Y-57911000D03*
X141443900Y-53908000D03*
%TO.N,Net-(U2-nSLEEP)*%
X165494600Y-72837600D03*
X165494600Y-81494500D03*
%TO.N,Net-(U1-nSLEEP)*%
X187624847Y-72349847D03*
X188210400Y-83122000D03*
%TO.N,/ex ctrl2*%
X174672100Y-75837900D03*
%TO.N,/ex ctrl1*%
X145036000Y-93000000D03*
%TO.N,/Fast charge CTR*%
X170191900Y-88703600D03*
%TO.N,Net-(Q2-D)*%
X145478700Y-82239700D03*
X135458300Y-86958300D03*
%TO.N,/Mtr3 C1*%
X162373200Y-79354800D03*
%TO.N,/Mtr3 C2*%
X162352000Y-77684100D03*
%TO.N,/Mtr4 C2*%
X174566500Y-85400000D03*
%TO.N,/Mtr4 O2*%
X180407900Y-87697800D03*
%TO.N,/Mtr4 C1*%
X176143900Y-86155000D03*
%TO.N,/Mtr4 O1*%
X181665500Y-86519400D03*
%TO.N,/Mtr3 O2*%
X157202500Y-99135000D03*
X161844700Y-83708200D03*
%TO.N,/Mtr3 O1*%
X151684200Y-82221300D03*
%TO.N,/Mtr1 C2*%
X195679800Y-82164200D03*
X189736900Y-94605900D03*
X152187900Y-94605900D03*
%TO.N,/Mtr1 C1*%
X153760000Y-84260500D03*
%TO.N,/Mtr2 O1*%
X186901700Y-92656200D03*
%TO.N,/Mtr2 O2*%
X187373700Y-86075000D03*
%TO.N,/Mtr2 C2*%
X181700000Y-96150000D03*
%TO.N,/Mtr2 C1*%
X184240000Y-91024700D03*
%TO.N,/Mtr1 O1*%
X146568200Y-94467500D03*
X186175000Y-97207500D03*
X187376700Y-83848800D03*
%TO.N,/Mtr1 O2*%
X161803800Y-90612100D03*
%TO.N,Net-(U9-V_{SS})*%
X142185300Y-88500000D03*
X146539000Y-72610800D03*
%TO.N,/I2C1_SDA*%
X186343600Y-76846300D03*
X185381700Y-101863300D03*
%TO.N,/V+*%
X171465200Y-52180100D03*
X171726900Y-93545100D03*
%TO.N,/out2*%
X172810000Y-95816500D03*
%TO.N,Net-(U2-AISEN)*%
X166511500Y-72175200D03*
X165602300Y-82948000D03*
%TO.N,Net-(U2-BISEN)*%
X167264800Y-65104700D03*
X167264800Y-87595600D03*
%TO.N,Net-(U1-AISEN)*%
X190886400Y-50255000D03*
X188492400Y-84575600D03*
%TO.N,/I2C1_SCL*%
X169101300Y-87568300D03*
%TO.N,/Vbat+*%
X149401300Y-86423300D03*
X149401300Y-74394900D03*
X152001000Y-58857500D03*
%TO.N,Net-(U7-CT)*%
X153021900Y-87171200D03*
X155239500Y-71222600D03*
%TO.N,Net-(U3-CT)*%
X137137500Y-92090500D03*
X140284400Y-82988500D03*
%TO.N,/5V*%
X163835100Y-80230000D03*
X161372800Y-71363300D03*
%TO.N,/9V*%
X155902100Y-67500000D03*
X151051900Y-52626900D03*
X143559200Y-53000200D03*
%TO.N,Net-(U2-VINT)*%
X176506800Y-81810000D03*
X177657000Y-71516500D03*
%TO.N,Net-(U2-VCP)*%
X175141300Y-84534700D03*
%TO.N,Net-(U1-VINT)*%
X185137500Y-80372700D03*
X184950000Y-70034200D03*
%TD*%
D20*
%TO.N,Net-(U1-nSLEEP)*%
X192598000Y-76598000D02*
X192598000Y-78734400D01*
X190694800Y-74694800D02*
X192598000Y-76598000D01*
X189969800Y-74694800D02*
X190694800Y-74694800D01*
X192598000Y-78734400D02*
X188210400Y-83122000D01*
X187624847Y-72349847D02*
X189969800Y-74694800D01*
D21*
%TO.N,Net-(U11-IN+)*%
X186926300Y-81073700D02*
X189500000Y-78500000D01*
X185427864Y-81073700D02*
X186926300Y-81073700D01*
X184847136Y-81073700D02*
X185427864Y-81073700D01*
X184436500Y-80663064D02*
X184847136Y-81073700D01*
X184524000Y-79994836D02*
X184436500Y-80082336D01*
X184436500Y-80082336D02*
X184436500Y-80663064D01*
X184524000Y-78524000D02*
X184524000Y-79994836D01*
X181000000Y-75000000D02*
X184524000Y-78524000D01*
D20*
%TO.N,Net-(U2-VCP)*%
X172211500Y-61500000D02*
X172211500Y-61336500D01*
X172211500Y-81604900D02*
X172211500Y-61500000D01*
%TO.N,Net-(U9-V_{SS})*%
X151451000Y-77522800D02*
X146539000Y-72610800D01*
X151451000Y-79234300D02*
X151451000Y-77522800D01*
X142185300Y-88500000D02*
X151451000Y-79234300D01*
%TO.N,/Vbat+*%
X151000000Y-75993600D02*
X149401300Y-74394900D01*
X151637810Y-77071800D02*
X151000000Y-76433990D01*
X151000000Y-76433990D02*
X151000000Y-75993600D01*
X151902000Y-79047490D02*
X151902000Y-77709610D01*
X151902000Y-77709610D02*
X151902000Y-77335990D01*
X151902000Y-79421110D02*
X151902000Y-79047490D01*
X151000000Y-81878780D02*
X151000000Y-80323110D01*
X151902000Y-77335990D02*
X151637810Y-77071800D01*
X151000000Y-82563820D02*
X150958200Y-82522020D01*
X150958200Y-82522020D02*
X150958200Y-81920580D01*
X151000000Y-84824600D02*
X151000000Y-82563820D01*
X151637810Y-79685300D02*
X151902000Y-79421110D01*
X149401300Y-86423300D02*
X151000000Y-84824600D01*
X151000000Y-80323110D02*
X151637810Y-79685300D01*
X150958200Y-81920580D02*
X151000000Y-81878780D01*
X154000000Y-60856500D02*
X152001000Y-58857500D01*
X149401300Y-74394900D02*
X154000000Y-69796200D01*
X154000000Y-69796200D02*
X154000000Y-60856500D01*
D21*
%TO.N,/V+*%
X201000000Y-81000000D02*
X200500000Y-80500000D01*
X201000000Y-92000000D02*
X201000000Y-81000000D01*
%TO.N,/I2C1_SDA*%
X185448300Y-101796700D02*
X185381700Y-101863300D01*
X185724000Y-84863690D02*
X185724000Y-92708800D01*
X185448300Y-92984500D02*
X185448300Y-101796700D01*
X186650700Y-83936990D02*
X185724000Y-84863690D01*
X186650700Y-83548080D02*
X186650700Y-83936990D01*
X187075980Y-83122800D02*
X186650700Y-83548080D01*
X185724000Y-92708800D02*
X185448300Y-92984500D01*
X187464890Y-83122800D02*
X187075980Y-83122800D01*
X187484400Y-83103290D02*
X187464890Y-83122800D01*
X187484400Y-82821280D02*
X187484400Y-83103290D01*
X187759400Y-82546280D02*
X187484400Y-82821280D01*
X187759400Y-82221500D02*
X187759400Y-82546280D01*
X189136550Y-81360750D02*
X188620150Y-81360750D01*
X192172000Y-78325300D02*
X189136550Y-81360750D01*
X192172000Y-76846300D02*
X192172000Y-78325300D01*
X186343600Y-76846300D02*
X192172000Y-76846300D01*
X188620150Y-81360750D02*
X187759400Y-82221500D01*
D20*
%TO.N,Net-(U1-AISEN)*%
X193049000Y-80019000D02*
X188492400Y-84575600D01*
X193049000Y-59736810D02*
X193049000Y-80019000D01*
X193049000Y-59363190D02*
X193049000Y-59736810D01*
X193500000Y-58912190D02*
X193313190Y-59099000D01*
X193500000Y-52868600D02*
X193500000Y-58912190D01*
X193313190Y-59099000D02*
X193049000Y-59363190D01*
X190886400Y-50255000D02*
X193500000Y-52868600D01*
%TO.N,Net-(SW3-A)*%
X157259000Y-86120500D02*
X157259000Y-77000000D01*
X157259000Y-77000000D02*
X159538900Y-74720100D01*
%TO.N,Net-(U10-CC2)*%
X141443900Y-56655500D02*
X141443900Y-53908000D01*
X142699400Y-57911000D02*
X141443900Y-56655500D01*
%TO.N,Net-(U2-nSLEEP)*%
X165494600Y-81494500D02*
X165494600Y-72837600D01*
%TO.N,/ex ctrl2*%
X178792200Y-101863300D02*
X179160000Y-101863300D01*
X177983300Y-101054400D02*
X178792200Y-101863300D01*
X177983300Y-99267100D02*
X177983300Y-101054400D01*
X175408500Y-96692300D02*
X177983300Y-99267100D01*
X175408500Y-85586000D02*
X175408500Y-96692300D01*
X175909100Y-85085400D02*
X175408500Y-85586000D01*
X175909100Y-84006900D02*
X175909100Y-85085400D01*
X174672100Y-82769900D02*
X175909100Y-84006900D01*
X174672100Y-75837900D02*
X174672100Y-82769900D01*
X179160000Y-103040000D02*
X179160000Y-101863300D01*
%TO.N,/ex ctrl1*%
X145036000Y-101137300D02*
X145036000Y-93000000D01*
X149076300Y-105177600D02*
X145036000Y-101137300D01*
X154162400Y-105177600D02*
X149076300Y-105177600D01*
X156300000Y-103040000D02*
X154162400Y-105177600D01*
%TO.N,/Fast charge CTR*%
X171540000Y-103040000D02*
X171540000Y-101863300D01*
X170191900Y-100882900D02*
X170191900Y-88703600D01*
X171172300Y-101863300D02*
X170191900Y-100882900D01*
X171540000Y-101863300D02*
X171172300Y-101863300D01*
%TO.N,Net-(Q2-D)*%
X135458300Y-86787000D02*
X135458300Y-86958300D01*
X140005600Y-82239700D02*
X135458300Y-86787000D01*
X145478700Y-82239700D02*
X140005600Y-82239700D01*
%TO.N,/Mtr3 C1*%
X162589800Y-79571400D02*
X162373200Y-79354800D01*
X162589800Y-95573500D02*
X162589800Y-79571400D01*
X158840000Y-99323300D02*
X162589800Y-95573500D01*
X158840000Y-100500000D02*
X158840000Y-99323300D01*
%TO.N,/Mtr3 C2*%
X156300000Y-100500000D02*
X156300000Y-99323300D01*
X156300000Y-98684500D02*
X156300000Y-99323300D01*
X158389800Y-96594700D02*
X156300000Y-98684500D01*
X158389800Y-81646300D02*
X158389800Y-96594700D01*
X162352000Y-77684100D02*
X158389800Y-81646300D01*
%TO.N,/Mtr4 C2*%
X176620000Y-100500000D02*
X176620000Y-99323300D01*
X174566500Y-97269800D02*
X174566500Y-85400000D01*
X176620000Y-99323300D02*
X174566500Y-97269800D01*
%TO.N,/Mtr4 O2*%
X181700000Y-103040000D02*
X181700000Y-101863300D01*
X180407900Y-100939000D02*
X180407900Y-87697800D01*
X181332200Y-101863300D02*
X180407900Y-100939000D01*
X181700000Y-101863300D02*
X181332200Y-101863300D01*
%TO.N,/Mtr4 C1*%
X179160000Y-100500000D02*
X179160000Y-99323300D01*
X176143900Y-96307200D02*
X176143900Y-86155000D01*
X179160000Y-99323300D02*
X176143900Y-96307200D01*
%TO.N,/Mtr4 O1*%
X184240000Y-103040000D02*
X184240000Y-101863300D01*
X183063300Y-87917200D02*
X181665500Y-86519400D01*
X183063300Y-101054400D02*
X183063300Y-87917200D01*
X183872200Y-101863300D02*
X183063300Y-101054400D01*
X184240000Y-101863300D02*
X183872200Y-101863300D01*
%TO.N,/Mtr3 O2*%
X160105800Y-85447100D02*
X161844700Y-83708200D01*
X160105800Y-96231700D02*
X160105800Y-85447100D01*
X157202500Y-99135000D02*
X160105800Y-96231700D01*
%TO.N,/Mtr3 O1*%
X153760000Y-103040000D02*
X152583300Y-103040000D01*
X151684200Y-85862600D02*
X151684200Y-82221300D01*
X150039900Y-87506900D02*
X151684200Y-85862600D01*
X150039900Y-103549400D02*
X150039900Y-87506900D01*
X150735100Y-104244600D02*
X150039900Y-103549400D01*
X151746400Y-104244600D02*
X150735100Y-104244600D01*
X152583300Y-103407700D02*
X151746400Y-104244600D01*
X152583300Y-103040000D02*
X152583300Y-103407700D01*
%TO.N,/Mtr1 C2*%
X151220000Y-95573800D02*
X151220000Y-100500000D01*
X152187900Y-94605900D02*
X151220000Y-95573800D01*
X195679800Y-88663000D02*
X189736900Y-94605900D01*
X195679800Y-82164200D02*
X195679800Y-88663000D01*
%TO.N,/Mtr1 C1*%
X153760000Y-100500000D02*
X153760000Y-84260500D01*
%TO.N,/Mtr2 O1*%
X186901700Y-99201600D02*
X186901700Y-92656200D01*
X186780000Y-99323300D02*
X186901700Y-99201600D01*
X186780000Y-100500000D02*
X186780000Y-99323300D01*
%TO.N,/Mtr2 O2*%
X187967100Y-86668400D02*
X187373700Y-86075000D01*
X187967100Y-101043900D02*
X187967100Y-86668400D01*
X187147700Y-101863300D02*
X187967100Y-101043900D01*
X186780000Y-101863300D02*
X187147700Y-101863300D01*
X186780000Y-103040000D02*
X186780000Y-101863300D01*
%TO.N,/Mtr2 C2*%
X181700000Y-100500000D02*
X181700000Y-96150000D01*
%TO.N,/Mtr2 C1*%
X184240000Y-100500000D02*
X184240000Y-91024700D01*
%TO.N,/Mtr1 O1*%
X146568200Y-97211500D02*
X146568200Y-94467500D01*
X148680000Y-99323300D02*
X146568200Y-97211500D01*
X186175000Y-85050500D02*
X187376700Y-83848800D01*
X186175000Y-97207500D02*
X186175000Y-85050500D01*
X148680000Y-100500000D02*
X148680000Y-99323300D01*
%TO.N,/Mtr1 O2*%
X150352200Y-104712200D02*
X148680000Y-103040000D01*
X153753300Y-104712200D02*
X150352200Y-104712200D01*
X155030000Y-103435500D02*
X153753300Y-104712200D01*
X155030000Y-102618700D02*
X155030000Y-103435500D01*
X155878700Y-101770000D02*
X155030000Y-102618700D01*
X156730800Y-101770000D02*
X155878700Y-101770000D01*
X157570000Y-100930800D02*
X156730800Y-101770000D01*
X157570000Y-99795200D02*
X157570000Y-100930800D01*
X161803800Y-95561400D02*
X157570000Y-99795200D01*
X161803800Y-90612100D02*
X161803800Y-95561400D01*
%TO.N,/V+*%
X171540000Y-100500000D02*
X171540000Y-99323300D01*
X171726900Y-93545100D02*
X171465200Y-93283400D01*
X171726900Y-99136400D02*
X171540000Y-99323300D01*
X171726900Y-93545100D02*
X171726900Y-99136400D01*
%TO.N,/out2*%
X172810000Y-100961000D02*
X172810000Y-95816500D01*
X173712300Y-101863300D02*
X172810000Y-100961000D01*
X174080000Y-101863300D02*
X173712300Y-101863300D01*
X174080000Y-103040000D02*
X174080000Y-101863300D01*
%TO.N,Net-(U2-AISEN)*%
X166511500Y-82038800D02*
X165602300Y-82948000D01*
X166511500Y-72175200D02*
X166511500Y-82038800D01*
%TO.N,Net-(U2-BISEN)*%
X167264800Y-65104700D02*
X167264800Y-87595600D01*
%TO.N,/I2C1_SCL*%
X169000000Y-100500000D02*
X169000000Y-99323300D01*
X169101300Y-99222000D02*
X169101300Y-87568300D01*
X169000000Y-99323300D02*
X169101300Y-99222000D01*
%TO.N,/Vbat+*%
X203365400Y-61423300D02*
X203500000Y-61423300D01*
X202085200Y-60143100D02*
X203365400Y-61423300D01*
X202085200Y-53151000D02*
X202085200Y-60143100D01*
X200860900Y-51926700D02*
X202085200Y-53151000D01*
X200050000Y-51926700D02*
X200860900Y-51926700D01*
X200050000Y-51000000D02*
X200050000Y-51926700D01*
X203500000Y-62500000D02*
X203500000Y-61423300D01*
%TO.N,Net-(U7-CT)*%
X153021900Y-73440200D02*
X153021900Y-87171200D01*
X155239500Y-71222600D02*
X153021900Y-73440200D01*
%TO.N,Net-(U3-CT)*%
X137137500Y-86135400D02*
X140284400Y-82988500D01*
X137137500Y-92090500D02*
X137137500Y-86135400D01*
%TO.N,/5V*%
X163920000Y-100500000D02*
X163920000Y-99323300D01*
X163684300Y-80380800D02*
X163835100Y-80230000D01*
X163684300Y-99087600D02*
X163684300Y-80380800D01*
X163920000Y-99323300D02*
X163684300Y-99087600D01*
X163835100Y-73825600D02*
X161372800Y-71363300D01*
X163835100Y-80230000D02*
X163835100Y-73825600D01*
%TO.N,/9V*%
X161380000Y-100500000D02*
X161380000Y-99323300D01*
X155902100Y-57477100D02*
X151051900Y-52626900D01*
X155902100Y-67500000D02*
X155902100Y-57477100D01*
X163102200Y-97601100D02*
X161380000Y-99323300D01*
X163102200Y-74700100D02*
X163102200Y-97601100D01*
X155902100Y-67500000D02*
X163102200Y-74700100D01*
X143932500Y-52626900D02*
X143559200Y-53000200D01*
X151051900Y-52626900D02*
X143932500Y-52626900D01*
%TO.N,Net-(U2-VINT)*%
X177657000Y-80659800D02*
X177657000Y-71516500D01*
X176506800Y-81810000D02*
X177657000Y-80659800D01*
%TO.N,Net-(U2-VCP)*%
X175141300Y-84534700D02*
X172211500Y-81604900D01*
%TO.N,Net-(U1-VINT)*%
X184950000Y-80185200D02*
X184950000Y-70034200D01*
X185137500Y-80372700D02*
X184950000Y-80185200D01*
%TO.N,/V+*%
X171465200Y-93283400D02*
X171465200Y-52180100D01*
%TD*%
M02*
