M48
; DRILL file {KiCad 9.0.0} date 2025-03-28T13:41:41+0200
; FORMAT={-:-/ absolute / inch / decimal}
; #@! TF.CreationDate,2025-03-28T13:41:41+02:00
; #@! TF.GenerationSoftware,Kicad,Pcbnew,9.0.0
; #@! TF.FileFunction,Plated,1,2,PTH
FMAT,2
INCH
; #@! TA.AperFunction,Plated,PTH,ComponentDrill
T1C0.0079
; #@! TA.AperFunction,Plated,PTH,ViaDrill
T2C0.0157
; #@! TA.AperFunction,Plated,PTH,ComponentDrill
T3C0.0276
; #@! TA.AperFunction,Plated,PTH,ComponentDrill
T4C0.0295
; #@! TA.AperFunction,Plated,PTH,ComponentDrill
T5C0.0315
; #@! TA.AperFunction,Plated,PTH,ComponentDrill
T6C0.0394
%
G90
G05
T1
X6.658Y-3.2392
X6.658Y-3.2982
X6.658Y-3.3573
X6.717Y-3.2392
X6.717Y-3.2982
X6.717Y-3.3573
X7.5591Y-3.3071
X7.5591Y-3.3661
X7.5591Y-3.4252
X7.6181Y-3.3071
X7.6181Y-3.3661
X7.6181Y-3.4252
T2
X5.333Y-3.4236
X5.3991Y-3.6256
X5.523Y-3.2673
X5.5687Y-2.1224
X5.5978Y-3.4843
X5.6181Y-2.28
X5.6519Y-2.0866
X5.7101Y-3.6614
X5.7275Y-3.2378
X5.7693Y-2.8587
X5.7704Y-3.7192
X5.8819Y-2.9289
X5.8819Y-3.4025
X5.9469Y-2.0719
X5.9718Y-3.2371
X5.9843Y-2.3172
X5.9916Y-3.7246
X6.0245Y-3.4319
X6.0535Y-3.3173
X6.1118Y-2.804
X6.1379Y-2.6575
X6.1891Y-3.903
X6.1913Y-3.0315
X6.1913Y-3.3906
X6.2811Y-2.9417
X6.3533Y-2.8096
X6.3702Y-3.5674
X6.3718Y-3.2956
X6.3918Y-3.0584
X6.3926Y-3.1242
X6.4502Y-3.1587
X6.5155Y-2.8676
X6.5155Y-3.2084
X6.5198Y-3.2657
X6.5556Y-2.8415
X6.5852Y-2.5632
X6.5852Y-3.4486
X6.6575Y-3.4476
X6.7005Y-3.4923
X6.7506Y-2.0543
X6.7609Y-3.6829
X6.78Y-2.4213
X6.8035Y-3.7723
X6.8727Y-3.3622
X6.8769Y-2.9857
X6.8953Y-3.3281
X6.9348Y-3.3919
X6.9491Y-3.2209
X6.9944Y-2.8156
X7.1027Y-3.4527
X7.126Y-2.9528
X7.126Y-2.9528
X7.1522Y-3.4063
X7.1535Y-3.7854
X7.2535Y-3.5836
X7.2815Y-2.7573
X7.2889Y-3.1643
X7.2985Y-4.0104
X7.3297Y-3.8271
X7.3364Y-3.0254
X7.3583Y-3.6479
X7.3769Y-3.3888
X7.377Y-3.3011
X7.3868Y-2.8484
X7.4099Y-3.2725
X7.421Y-3.3297
X7.4606Y-3.0906
X7.47Y-3.7246
X7.5152Y-1.9785
X7.7039Y-3.2348
X7.8937Y-3.1693
X7.8937Y-3.1693
X7.9134Y-3.622
T4
X7.876Y-2.0079
X7.876Y-2.0866
T5
X8.0118Y-2.3606
X8.0118Y-2.4606
X8.0118Y-2.5606
T6
X5.8535Y-3.9567
X5.8535Y-4.0567
X5.9535Y-3.9567
X5.9535Y-4.0567
X6.0535Y-3.9567
X6.0535Y-4.0567
X6.1535Y-3.9567
X6.1535Y-4.0567
X6.2535Y-3.9567
X6.2535Y-4.0567
X6.3535Y-3.9567
X6.3535Y-4.0567
X6.4535Y-3.9567
X6.4535Y-4.0567
X6.5535Y-3.9567
X6.5535Y-4.0567
X6.6535Y-3.9567
X6.6535Y-4.0567
X6.7535Y-3.9567
X6.7535Y-4.0567
X6.8535Y-3.9567
X6.8535Y-4.0567
X6.9535Y-3.9567
X6.9535Y-4.0567
X7.0535Y-3.9567
X7.0535Y-4.0567
X7.1535Y-3.9567
X7.1535Y-4.0567
X7.2535Y-3.9567
X7.2535Y-4.0567
X7.3535Y-3.9567
X7.3535Y-4.0567
T3
G00X5.3497Y-1.9165
M15
G01X5.3143Y-1.9165
M16
G05
G00X5.3497Y-2.2567
M15
G01X5.3143Y-2.2567
M16
G05
G00X5.4993Y-1.9165
M15
G01X5.4639Y-1.9165
M16
G05
G00X5.4993Y-2.2567
M15
G01X5.4639Y-2.2567
M16
G05
M30
